SplineFontDB: 3.0
FontName: CheyenneSans-ExtraBoldItalic
FullName: Cheyenne Sans ExtraBold Italic
FamilyName: Cheyenne Sans ExtraBold
Weight: Heavy
Version: 1.000; ttfautohint (v1.8.2)
ItalicAngle: -8
UnderlinePosition: -150
UnderlineWidth: 50
Ascent: 800
Descent: 200
InvalidEm: 0
sfntRevision: 0x00010000
LayerCount: 2
Layer: 0 1 "Back" 1
Layer: 1 1 "Fore" 0
XUID: [1021 646 1163163066 16215484]
StyleMap: 0x0001
FSType: 0
OS2Version: 3
OS2_WeightWidthSlopeOnly: 0
OS2_UseTypoMetrics: 0
CreationTime: 1513572760
ModificationTime: 1542989924
PfmFamily: 81
TTFWeight: 800
TTFWidth: 5
LineGap: 0
VLineGap: 0
Panose: 0 0 9 0 0 0 0 0 0 0
OS2TypoAscent: 743
OS2TypoAOffset: 0
OS2TypoDescent: -161
OS2TypoDOffset: 0
OS2TypoLinegap: 0
OS2WinAscent: 822
OS2WinAOffset: 0
OS2WinDescent: 178
OS2WinDOffset: 0
HheadAscent: 822
HheadAOffset: 0
HheadDescent: -178
HheadDOffset: 0
OS2SubXSize: 650
OS2SubYSize: 600
OS2SubXOff: 0
OS2SubYOff: 75
OS2SupXSize: 650
OS2SupYSize: 600
OS2SupXOff: 0
OS2SupYOff: 350
OS2StrikeYSize: 50
OS2StrikeYPos: 310
OS2CapHeight: 723
OS2XHeight: 517
OS2Vendor: 'IMPA'
OS2CodePages: 20000193.00000000
OS2UnicodeRanges: 00000007.00000000.00000000.00000000
Lookup: 1 0 0 "'aalt' Access All Alternates in Latin lookup 0" { "'aalt' Access All Alternates in Latin lookup 0 subtable"  } ['aalt' ('DFLT' <'dflt' > 'latn' <'AZE ' 'CAT ' 'CRT ' 'KAZ ' 'MOL ' 'ROM ' 'TAT ' 'TRK ' 'dflt' > ) ]
Lookup: 3 0 0 "'aalt' Access All Alternates in Latin lookup 1" { "'aalt' Access All Alternates in Latin lookup 1 subtable"  } ['aalt' ('DFLT' <'dflt' > 'latn' <'AZE ' 'CAT ' 'CRT ' 'KAZ ' 'MOL ' 'ROM ' 'TAT ' 'TRK ' 'dflt' > ) ]
Lookup: 6 0 0 "'ccmp' Glyph Composition/Decomposition in Latin lookup 2" { "'ccmp' Glyph Composition/Decomposition in Latin lookup 2 contextual 0"  "'ccmp' Glyph Composition/Decomposition in Latin lookup 2 contextual 1"  } ['ccmp' ('DFLT' <'dflt' > 'latn' <'AZE ' 'CAT ' 'CRT ' 'KAZ ' 'MOL ' 'ROM ' 'TAT ' 'TRK ' 'dflt' > ) ]

StartChar: .notdef
Encoding: 65536 -1 0
Width: 640
Flags: W
LayerCount: 2
Fore
SplineSet
632.5 820.5 m 128,-1,1
 637 815 637 815 635 805 c 2,2,-1
 503 -133 l 2,3,4
 501 -148 501 -148 492 -154.5 c 128,-1,5
 483 -161 483 -161 466 -161 c 2,6,-1
 30 -161 l 2,7,8
 15 -161 15 -161 10 -155.5 c 128,-1,9
 5 -150 5 -150 7 -137 c 2,10,-1
 139 803 l 2,11,12
 141 814 141 814 146.5 820 c 128,-1,13
 152 826 152 826 161 826 c 2,14,-1
 620 826 l 2,15,0
 628 826 628 826 632.5 820.5 c 128,-1,1
575.5 772.5 m 128,-1,17
 572 777 572 777 565 777 c 2,18,-1
 222 777 l 1,19,-1
 463 -57 l 1,20,-1
 578 760 l 2,21,16
 579 768 579 768 575.5 772.5 c 128,-1,17
67 -107 m 128,-1,23
 71 -112 71 -112 83 -112 c 2,24,-1
 419 -112 l 1,25,-1
 178 716 l 1,26,-1
 64 -92 l 2,27,22
 63 -102 63 -102 67 -107 c 128,-1,23
EndSplineSet
EndChar

StartChar: exclam
Encoding: 33 33 4
Width: 289
GlyphClass: 2
Flags: W
LayerCount: 2
Fore
SplineSet
180 241 m 1,0,-1
 75 241 l 1,1,-1
 95 723 l 1,2,-1
 293 723 l 1,3,-1
 180 241 l 1,0,-1
183 0 m 1,4,-1
 1 0 l 1,5,-1
 25 174 l 1,6,-1
 207 174 l 1,7,-1
 183 0 l 1,4,-1
EndSplineSet
EndChar

StartChar: quotedbl
Encoding: 34 34 5
Width: 500
GlyphClass: 2
Flags: W
LayerCount: 2
Fore
SplineSet
437 422 m 1,0,-1
 355 422 l 1,1,-1
 356 723 l 1,2,-1
 522 723 l 1,3,-1
 437 422 l 1,0,-1
200 422 m 1,4,-1
 118 422 l 1,5,-1
 119 723 l 1,6,-1
 285 723 l 1,7,-1
 200 422 l 1,4,-1
EndSplineSet
EndChar

StartChar: numbersign
Encoding: 35 35 6
Width: 612
GlyphClass: 2
Flags: W
LayerCount: 2
Fore
SplineSet
479 425 m 1,0,-1
 444 305 l 1,1,-1
 550 305 l 1,2,-1
 538 220 l 1,3,-1
 420 220 l 1,4,-1
 356 -3 l 1,5,-1
 271 8 l 1,6,-1
 332 220 l 1,7,-1
 204 220 l 1,8,-1
 140 -3 l 1,9,-1
 56 8 l 1,10,-1
 117 220 l 1,11,-1
 5 220 l 1,12,-1
 17 305 l 1,13,-1
 142 305 l 1,14,-1
 177 425 l 1,15,-1
 66 425 l 1,16,-1
 78 510 l 1,17,-1
 201 510 l 1,18,-1
 263 725 l 1,19,-1
 346 716 l 1,20,-1
 287 510 l 1,21,-1
 416 510 l 1,22,-1
 478 725 l 1,23,-1
 562 716 l 1,24,-1
 503 510 l 1,25,-1
 611 510 l 1,26,-1
 599 425 l 1,27,-1
 479 425 l 1,0,-1
392 425 m 1,28,-1
 263 425 l 1,29,-1
 228 305 l 1,30,-1
 357 305 l 1,31,-1
 392 425 l 1,28,-1
EndSplineSet
EndChar

StartChar: dollar
Encoding: 36 36 7
Width: 672
GlyphClass: 2
Flags: W
LayerCount: 2
Fore
SplineSet
529.5 69 m 128,-1,1
 461 9 461 9 359 -2 c 0,2,3
 347 -3 347 -3 343.5 -6.5 c 128,-1,4
 340 -10 340 -10 338 -20 c 2,5,-1
 331 -74 l 1,6,-1
 222 -74 l 1,7,-1
 231 -4 l 1,8,9
 152 2 152 2 93.5 27.5 c 128,-1,10
 35 53 35 53 -13 101 c 1,11,-1
 97 205 l 1,12,13
 161 131 161 131 250 116 c 1,14,-1
 276 289 l 1,15,16
 155 311 155 311 108 368.5 c 128,-1,17
 61 426 61 426 73 509 c 0,18,19
 84 587 84 587 146.5 642.5 c 128,-1,20
 209 698 209 698 314 719 c 0,21,22
 321 720 321 720 329 725 c 128,-1,23
 337 730 337 730 338 737 c 2,24,-1
 344 785 l 1,25,-1
 451 785 l 1,26,-1
 443 724 l 1,27,28
 557 692 557 692 626 640 c 1,29,-1
 528 532 l 1,30,31
 514 551 514 551 489.5 568 c 128,-1,32
 465 585 465 585 436 595 c 2,33,-1
 432 596 l 2,34,35
 428 596 428 596 425.5 593.5 c 128,-1,36
 423 591 423 591 423 588 c 2,37,-1
 401 437 l 1,38,-1
 470 419 l 2,39,40
 543 398 543 398 582 344.5 c 128,-1,41
 621 291 621 291 611 218 c 0,42,0
 598 129 598 129 529.5 69 c 128,-1,1
319 601 m 1,43,44
 300 601 300 601 277 592.5 c 128,-1,45
 254 584 254 584 236.5 567.5 c 128,-1,46
 219 551 219 551 216 529 c 0,47,48
 211 494 211 494 233.5 476 c 128,-1,49
 256 458 256 458 297 451 c 1,50,-1
 319 601 l 1,43,44
431.5 141.5 m 128,-1,52
 461 162 461 162 465 190 c 0,53,54
 474 253 474 253 379 274 c 1,55,-1
 356 116 l 1,56,51
 402 121 402 121 431.5 141.5 c 128,-1,52
EndSplineSet
EndChar

StartChar: percent
Encoding: 37 37 8
Width: 948
GlyphClass: 2
Flags: W
LayerCount: 2
Fore
SplineSet
376 706 m 128,-1,1
 415 678 415 678 433.5 630 c 128,-1,2
 452 582 452 582 444 527 c 0,3,4
 436 473 436 473 405 426.5 c 128,-1,5
 374 380 374 380 327.5 352.5 c 128,-1,6
 281 325 281 325 229 325 c 128,-1,7
 177 325 177 325 137 352.5 c 128,-1,8
 97 380 97 380 78.5 426.5 c 128,-1,9
 60 473 60 473 68 527 c 0,10,11
 76 582 76 582 107.5 630 c 128,-1,12
 139 678 139 678 186.5 706 c 128,-1,13
 234 734 234 734 286 734 c 0,14,0
 337 734 337 734 376 706 c 128,-1,1
243 -4 m 1,15,-1
 148 -2 l 1,16,-1
 739 731 l 1,17,-1
 833 731 l 1,18,-1
 243 -4 l 1,15,-1
292 439.5 m 128,-1,20
 311 469 311 469 319 527 c 0,21,22
 328 588 328 588 317 619 c 128,-1,23
 306 650 306 650 273 650 c 0,24,25
 210 650 210 650 193 527 c 0,26,27
 185 469 185 469 196 439.5 c 128,-1,28
 207 410 207 410 240 410 c 128,-1,19
 273 410 273 410 292 439.5 c 128,-1,20
814 371.5 m 128,-1,30
 853 343 853 343 871.5 295.5 c 128,-1,31
 890 248 890 248 882 193 c 0,32,33
 874 139 874 139 842.5 92 c 128,-1,34
 811 45 811 45 764.5 17.5 c 128,-1,35
 718 -10 718 -10 666 -10 c 128,-1,36
 614 -10 614 -10 574 17.5 c 128,-1,37
 534 45 534 45 516 92 c 128,-1,38
 498 139 498 139 505 193 c 0,39,40
 513 248 513 248 544.5 295.5 c 128,-1,41
 576 343 576 343 623.5 371.5 c 128,-1,42
 671 400 671 400 723 400 c 128,-1,29
 775 400 775 400 814 371.5 c 128,-1,30
729 105 m 128,-1,44
 748 134 748 134 756 192 c 0,45,46
 773 315 773 315 710 315 c 0,47,48
 648 315 648 315 631 192 c 0,49,50
 623 135 623 135 633.5 105.5 c 128,-1,51
 644 76 644 76 677 76 c 128,-1,43
 710 76 710 76 729 105 c 128,-1,44
EndSplineSet
EndChar

StartChar: ampersand
Encoding: 38 38 9
Width: 813
GlyphClass: 2
Flags: W
LayerCount: 2
Fore
SplineSet
544.5 714 m 128,-1,1
 595 694 595 694 620 657.5 c 128,-1,2
 645 621 645 621 639 575 c 0,3,4
 626 481 626 481 457 384 c 1,5,-1
 534 275 l 1,6,7
 581 366 581 366 597 420 c 1,8,-1
 773 420 l 1,9,10
 755 383 755 383 727.5 345 c 128,-1,11
 700 307 700 307 659 256 c 0,12,13
 611 194 611 194 600 178 c 1,14,-1
 727 0 l 1,15,-1
 533 0 l 1,16,-1
 484 66 l 1,17,18
 423 28 423 28 359.5 11.5 c 128,-1,19
 296 -5 296 -5 238 -5 c 0,20,21
 118 -5 118 -5 65 45.5 c 128,-1,22
 12 96 12 96 24 181 c 0,23,24
 34 253 34 253 85.5 303.5 c 128,-1,25
 137 354 137 354 243 406 c 1,26,27
 213 445 213 445 201.5 463.5 c 128,-1,28
 190 482 190 482 183 506.5 c 128,-1,29
 176 531 176 531 180 561 c 0,30,31
 187 610 187 610 221 649.5 c 128,-1,32
 255 689 255 689 309.5 711.5 c 128,-1,33
 364 734 364 734 429 734 c 128,-1,0
 494 734 494 734 544.5 714 c 128,-1,1
373.5 616.5 m 128,-1,35
 352 599 352 599 349 573 c 0,36,37
 344 537 344 537 381 490 c 2,38,-1
 400 467 l 1,39,40
 446 495 446 495 466.5 518 c 128,-1,41
 487 541 487 541 491 567 c 0,42,43
 495 599 495 599 476.5 616.5 c 128,-1,44
 458 634 458 634 427 634 c 0,45,34
 395 634 395 634 373.5 616.5 c 128,-1,35
218 206 m 0,46,47
 213 168 213 168 238.5 145.5 c 128,-1,48
 264 123 264 123 299 123 c 0,49,50
 325 123 325 123 358.5 134 c 128,-1,51
 392 145 392 145 417 165 c 1,52,-1
 312 310 l 1,53,54
 226 264 226 264 218 206 c 0,46,47
EndSplineSet
EndChar

StartChar: quotesingle
Encoding: 39 39 10
Width: 258
GlyphClass: 2
Flags: W
LayerCount: 2
Fore
SplineSet
183 422 m 1,0,-1
 101 422 l 1,1,-1
 102 723 l 1,2,-1
 268 723 l 1,3,-1
 183 422 l 1,0,-1
EndSplineSet
EndChar

StartChar: parenleft
Encoding: 40 40 11
Width: 341
GlyphClass: 2
Flags: W
LayerCount: 2
Fore
SplineSet
254 507 m 128,-1,1
 208 393 208 393 192 277 c 0,2,3
 177 167 177 167 190 62 c 128,-1,4
 203 -43 203 -43 242 -161 c 1,5,-1
 122 -161 l 1,6,7
 68 -42 68 -42 47 58 c 128,-1,8
 26 158 26 158 43 278 c 0,9,10
 60 399 60 399 113.5 512 c 128,-1,11
 167 625 167 625 248 723 c 1,12,-1
 369 723 l 1,13,0
 300 621 300 621 254 507 c 128,-1,1
EndSplineSet
EndChar

StartChar: parenright
Encoding: 41 41 12
Width: 341
GlyphClass: 2
Flags: W
LayerCount: 2
Fore
SplineSet
150 55 m 128,-1,1
 196 169 196 169 212 285 c 0,2,3
 227 395 227 395 214 500 c 128,-1,4
 201 605 201 605 162 723 c 1,5,-1
 282 723 l 1,6,7
 336 604 336 604 357 504 c 128,-1,8
 378 404 378 404 361 284 c 0,9,10
 344 163 344 163 290.5 50 c 128,-1,11
 237 -63 237 -63 156 -161 c 1,12,-1
 35 -161 l 1,13,0
 104 -59 104 -59 150 55 c 128,-1,1
EndSplineSet
EndChar

StartChar: asterisk
Encoding: 42 42 13
Width: 503
GlyphClass: 2
Flags: W
LayerCount: 2
Fore
SplineSet
265 442 m 1,0,-1
 159 298 l 1,1,-1
 80 361 l 1,2,-1
 204 487 l 1,3,-1
 56 529 l 1,4,-1
 105 626 l 1,5,-1
 241 562 l 1,6,-1
 252 723 l 1,7,-1
 360 723 l 1,8,-1
 322 561 l 1,9,-1
 478 626 l 1,10,-1
 495 529 l 1,11,-1
 340 487 l 1,12,-1
 428 363 l 1,13,-1
 330 301 l 1,14,-1
 265 442 l 1,0,-1
EndSplineSet
EndChar

StartChar: plus
Encoding: 43 43 14
Width: 596
GlyphClass: 2
Flags: W
LayerCount: 2
Fore
SplineSet
537 303 m 1,0,-1
 353 303 l 1,1,-1
 327 119 l 1,2,-1
 205 119 l 1,3,-1
 231 303 l 1,4,-1
 46 303 l 1,5,-1
 63 425 l 1,6,-1
 248 425 l 1,7,-1
 274 610 l 1,8,-1
 396 610 l 1,9,-1
 370 425 l 1,10,-1
 554 425 l 1,11,-1
 537 303 l 1,0,-1
EndSplineSet
EndChar

StartChar: comma
Encoding: 44 44 15
Width: 287
GlyphClass: 2
Flags: W
LayerCount: 2
Fore
SplineSet
57 -5 m 1,0,-1
 3 1 l 1,1,-1
 25 156 l 1,2,-1
 188 156 l 1,3,-1
 169 19 l 1,4,-1
 37 -146 l 1,5,-1
 -22 -146 l 1,6,-1
 57 -5 l 1,0,-1
EndSplineSet
Substitution2: "'tnum' Tabular Numbers in Latin lookup 23 subtable" comma.tf
Substitution2: "'aalt' Access All Alternates in Latin lookup 0 subtable" comma.tf
EndChar

StartChar: hyphen
Encoding: 45 45 16
Width: 396
GlyphClass: 2
Flags: W
LayerCount: 2
Fore
SplineSet
316 196 m 1,0,-1
 35 196 l 1,1,-1
 52 318 l 1,2,-1
 333 318 l 1,3,-1
 316 196 l 1,0,-1
EndSplineSet
EndChar

StartChar: period
Encoding: 46 46 17
Width: 284
GlyphClass: 2
Flags: W
LayerCount: 2
Fore
SplineSet
181 0 m 1,0,-1
 -2 0 l 1,1,-1
 23 177 l 1,2,-1
 206 177 l 1,3,-1
 181 0 l 1,0,-1
EndSplineSet
Substitution2: "'tnum' Tabular Numbers in Latin lookup 23 subtable" period.tf
Substitution2: "'aalt' Access All Alternates in Latin lookup 0 subtable" period.tf
EndChar

StartChar: slash
Encoding: 47 47 18
Width: 388
GlyphClass: 2
Flags: W
LayerCount: 2
Fore
SplineSet
316 723 m 1,0,-1
 431 723 l 1,1,-1
 74 -9 l 1,2,-1
 -41 -9 l 1,3,-1
 316 723 l 1,0,-1
EndSplineSet
Substitution2: "'frac' Diagonal Fractions in Latin lookup 16 subtable" fraction
Substitution2: "'aalt' Access All Alternates in Latin lookup 0 subtable" fraction
EndChar

StartChar: zero
Encoding: 48 48 19
Width: 671
GlyphClass: 2
Flags: W
LayerCount: 2
Fore
SplineSet
545 690 m 128,-1,1
 607 646 607 646 633 561.5 c 128,-1,2
 659 477 659 477 643 360 c 128,-1,3
 627 243 627 243 578 160.5 c 128,-1,4
 529 78 529 78 454.5 35 c 128,-1,5
 380 -8 380 -8 289 -8 c 0,6,7
 197 -8 197 -8 135 35 c 128,-1,8
 73 78 73 78 47 160.5 c 128,-1,9
 21 243 21 243 38 360 c 0,10,11
 54 477 54 477 104 561.5 c 128,-1,12
 154 646 154 646 228.5 690 c 128,-1,13
 303 734 303 734 393 734 c 128,-1,0
 483 734 483 734 545 690 c 128,-1,1
402.5 180 m 128,-1,15
 437 234 437 234 454 359 c 0,16,17
 472 488 472 488 452 544.5 c 128,-1,18
 432 601 432 601 373 601 c 128,-1,19
 314 601 314 601 278.5 544 c 128,-1,20
 243 487 243 487 225 359 c 0,21,22
 208 235 208 235 228 180.5 c 128,-1,23
 248 126 248 126 307 126 c 0,24,14
 368 126 368 126 402.5 180 c 128,-1,15
EndSplineSet
Substitution2: "'onum' Oldstyle Figures in Latin lookup 24 subtable" zero.osf
Substitution2: "'tnum' Tabular Numbers in Latin lookup 23 subtable" zero.tf
Substitution2: "'frac' Diagonal Fractions in Latin lookup 17 subtable" zero.numr
Substitution2: "'dnom' Denominators in Latin lookup 15 subtable" zero.dnom
Substitution2: "'numr' Numerators in Latin lookup 14 subtable" zero.numr
Substitution2: "'sups' Superscript in Latin lookup 13 subtable" uni2070
Substitution2: "'sinf' Scientific Inferiors in Latin lookup 12 subtable" zero.subs
Substitution2: "'subs' Subscript in Latin lookup 11 subtable" zero.subs
AlternateSubs2: "'aalt' Access All Alternates in Latin lookup 1 subtable" zero.subs uni2070 zero.numr zero.dnom zero.tf zero.osf
EndChar

StartChar: one
Encoding: 49 49 20
Width: 413
GlyphClass: 2
Flags: W
LayerCount: 2
Fore
SplineSet
176 536 m 1,0,-1
 48 504 l 1,1,-1
 64 618 l 1,2,-1
 288 723 l 1,3,-1
 375 723 l 1,4,-1
 273 0 l 1,5,-1
 101 0 l 1,6,-1
 176 536 l 1,0,-1
EndSplineSet
Substitution2: "'onum' Oldstyle Figures in Latin lookup 24 subtable" one.osf
Substitution2: "'tnum' Tabular Numbers in Latin lookup 23 subtable" one.tf
Substitution2: "'frac' Diagonal Fractions in Latin lookup 17 subtable" one.numr
Substitution2: "'dnom' Denominators in Latin lookup 15 subtable" one.dnom
Substitution2: "'numr' Numerators in Latin lookup 14 subtable" one.numr
Substitution2: "'sups' Superscript in Latin lookup 13 subtable" uni00B9
Substitution2: "'sinf' Scientific Inferiors in Latin lookup 12 subtable" one.subs
Substitution2: "'subs' Subscript in Latin lookup 11 subtable" one.subs
AlternateSubs2: "'aalt' Access All Alternates in Latin lookup 1 subtable" one.subs uni00B9 one.numr one.dnom one.tf one.osf
EndChar

StartChar: two
Encoding: 50 50 21
Width: 630
GlyphClass: 2
Flags: W
LayerCount: 2
Fore
SplineSet
5 123 m 1,0,-1
 256 316 l 2,1,2
 332 374 332 374 367.5 405 c 128,-1,3
 403 436 403 436 417.5 458 c 128,-1,4
 432 480 432 480 436 507 c 0,5,6
 442 547 442 547 417.5 570.5 c 128,-1,7
 393 594 393 594 350 594 c 0,8,9
 304 594 304 594 265.5 568.5 c 128,-1,10
 227 543 227 543 205 487 c 1,11,-1
 47 492 l 1,12,13
 69 601 69 601 153 667 c 128,-1,14
 237 733 237 733 374 733 c 0,15,16
 457 733 457 733 514.5 705.5 c 128,-1,17
 572 678 572 678 598 627 c 128,-1,18
 624 576 624 576 615 509 c 0,19,20
 607 453 607 453 574 410 c 128,-1,21
 541 367 541 367 459 299 c 2,22,-1
 268 141 l 1,23,-1
 570 141 l 1,24,-1
 550 0 l 1,25,-1
 -12 0 l 1,26,-1
 5 123 l 1,0,-1
EndSplineSet
Substitution2: "'onum' Oldstyle Figures in Latin lookup 24 subtable" two.osf
Substitution2: "'tnum' Tabular Numbers in Latin lookup 23 subtable" two.tf
Substitution2: "'frac' Diagonal Fractions in Latin lookup 17 subtable" two.numr
Substitution2: "'dnom' Denominators in Latin lookup 15 subtable" two.dnom
Substitution2: "'numr' Numerators in Latin lookup 14 subtable" two.numr
Substitution2: "'sups' Superscript in Latin lookup 13 subtable" uni00B2
Substitution2: "'sinf' Scientific Inferiors in Latin lookup 12 subtable" two.subs
Substitution2: "'subs' Subscript in Latin lookup 11 subtable" two.subs
AlternateSubs2: "'aalt' Access All Alternates in Latin lookup 1 subtable" two.subs uni00B2 two.numr two.dnom two.tf two.osf
EndChar

StartChar: three
Encoding: 51 51 22
Width: 680
GlyphClass: 2
Flags: W
LayerCount: 2
Fore
SplineSet
172.5 681.5 m 128,-1,1
 268 733 268 733 400 733 c 0,2,3
 479 733 479 733 540.5 709 c 128,-1,4
 602 685 602 685 634 641.5 c 128,-1,5
 666 598 666 598 658 542 c 128,-1,6
 650 486 650 486 612 448 c 128,-1,7
 574 410 574 410 505 387 c 1,8,9
 566 371 566 371 605 326 c 128,-1,10
 644 281 644 281 635 212 c 0,11,12
 625 143 625 143 572.5 92.5 c 128,-1,13
 520 42 520 42 445 16 c 128,-1,14
 370 -10 370 -10 295 -10 c 0,15,16
 147 -10 147 -10 73 39.5 c 128,-1,17
 -1 89 -1 89 8 215 c 1,18,-1
 169 219 l 1,19,20
 176 168 176 168 213.5 146.5 c 128,-1,21
 251 125 251 125 301 125 c 0,22,23
 360 125 360 125 400 150 c 128,-1,24
 440 175 440 175 445 211 c 0,25,26
 450 250 450 250 420 276 c 128,-1,27
 390 302 390 302 340 303 c 2,28,-1
 242 304 l 1,29,-1
 260 437 l 1,30,-1
 346 441 l 2,31,32
 398 443 398 443 433.5 467.5 c 128,-1,33
 469 492 469 492 474 528 c 0,34,35
 478 560 478 560 448.5 581.5 c 128,-1,36
 419 603 419 603 377 603 c 0,37,38
 316 603 316 603 273.5 584 c 128,-1,39
 231 565 231 565 213 508 c 1,40,-1
 55 513 l 1,41,0
 77 630 77 630 172.5 681.5 c 128,-1,1
EndSplineSet
Substitution2: "'onum' Oldstyle Figures in Latin lookup 24 subtable" three.osf
Substitution2: "'tnum' Tabular Numbers in Latin lookup 23 subtable" three.tf
Substitution2: "'frac' Diagonal Fractions in Latin lookup 17 subtable" three.numr
Substitution2: "'dnom' Denominators in Latin lookup 15 subtable" three.dnom
Substitution2: "'numr' Numerators in Latin lookup 14 subtable" three.numr
Substitution2: "'sups' Superscript in Latin lookup 13 subtable" uni00B3
Substitution2: "'sinf' Scientific Inferiors in Latin lookup 12 subtable" three.subs
Substitution2: "'subs' Subscript in Latin lookup 11 subtable" three.subs
AlternateSubs2: "'aalt' Access All Alternates in Latin lookup 1 subtable" three.subs uni00B3 three.numr three.dnom three.tf three.osf
EndChar

StartChar: four
Encoding: 52 52 23
Width: 634
GlyphClass: 2
Flags: W
LayerCount: 2
Fore
SplineSet
568 723 m 1,0,-1
 507 294 l 1,1,-1
 613 294 l 1,2,-1
 593 149 l 1,3,-1
 487 149 l 1,4,-1
 466 0 l 1,5,-1
 295 0 l 1,6,-1
 317 149 l 1,7,-1
 -4 149 l 1,8,-1
 16 289 l 1,9,-1
 399 723 l 1,10,-1
 568 723 l 1,0,-1
338 294 m 1,11,-1
 366 489 l 1,12,-1
 193 294 l 1,13,-1
 338 294 l 1,11,-1
EndSplineSet
Substitution2: "'onum' Oldstyle Figures in Latin lookup 24 subtable" four.osf
Substitution2: "'tnum' Tabular Numbers in Latin lookup 23 subtable" four.tf
Substitution2: "'frac' Diagonal Fractions in Latin lookup 17 subtable" four.numr
Substitution2: "'dnom' Denominators in Latin lookup 15 subtable" four.dnom
Substitution2: "'numr' Numerators in Latin lookup 14 subtable" four.numr
Substitution2: "'sups' Superscript in Latin lookup 13 subtable" uni2074
Substitution2: "'sinf' Scientific Inferiors in Latin lookup 12 subtable" four.subs
Substitution2: "'subs' Subscript in Latin lookup 11 subtable" four.subs
AlternateSubs2: "'aalt' Access All Alternates in Latin lookup 1 subtable" four.subs uni2074 four.numr four.dnom four.tf four.osf
EndChar

StartChar: five
Encoding: 53 53 24
Width: 671
GlyphClass: 2
Flags: W
LayerCount: 2
Fore
SplineSet
645 723 m 1,0,-1
 617 585 l 1,1,-1
 276 585 l 1,2,-1
 243 438 l 1,3,4
 302 456 302 456 330.5 462.5 c 128,-1,5
 359 469 359 469 396 469 c 0,6,7
 472 469 472 469 527 441.5 c 128,-1,8
 582 414 582 414 607.5 361.5 c 128,-1,9
 633 309 633 309 623 236 c 0,10,11
 612 160 612 160 568.5 104.5 c 128,-1,12
 525 49 525 49 454 19.5 c 128,-1,13
 383 -10 383 -10 294 -10 c 0,14,15
 191 -10 191 -10 113 30 c 128,-1,16
 35 70 35 70 2 136 c 1,17,-1
 141 223 l 1,18,19
 175 172 175 172 206.5 148 c 128,-1,20
 238 124 238 124 292 124 c 0,21,22
 352 124 352 124 391.5 154 c 128,-1,23
 431 184 431 184 437 230 c 0,24,25
 443 275 443 275 415.5 304 c 128,-1,26
 388 333 388 333 331 333 c 0,27,28
 304 333 304 333 278.5 325.5 c 128,-1,29
 253 318 253 318 213 300 c 0,30,31
 204 296 204 296 200 296 c 0,32,33
 197 296 197 296 187 301 c 2,34,-1
 80 364 l 1,35,-1
 164 723 l 1,36,-1
 645 723 l 1,0,-1
EndSplineSet
Substitution2: "'onum' Oldstyle Figures in Latin lookup 24 subtable" five.osf
Substitution2: "'tnum' Tabular Numbers in Latin lookup 23 subtable" five.tf
Substitution2: "'frac' Diagonal Fractions in Latin lookup 17 subtable" five.numr
Substitution2: "'dnom' Denominators in Latin lookup 15 subtable" five.dnom
Substitution2: "'numr' Numerators in Latin lookup 14 subtable" five.numr
Substitution2: "'sups' Superscript in Latin lookup 13 subtable" uni2075
Substitution2: "'sinf' Scientific Inferiors in Latin lookup 12 subtable" five.subs
Substitution2: "'subs' Subscript in Latin lookup 11 subtable" five.subs
AlternateSubs2: "'aalt' Access All Alternates in Latin lookup 1 subtable" five.subs uni2075 five.numr five.dnom five.tf five.osf
EndChar

StartChar: six
Encoding: 54 54 25
Width: 657
GlyphClass: 2
Flags: W
LayerCount: 2
Fore
SplineSet
531.5 709 m 128,-1,1
 588 684 588 684 617.5 636.5 c 128,-1,2
 647 589 647 589 641 526 c 1,3,-1
 487 521 l 1,4,5
 479 562 479 562 455.5 582 c 128,-1,6
 432 602 432 602 389 602 c 0,7,8
 329 602 329 602 287 555 c 128,-1,9
 245 508 245 508 235 433 c 0,10,11
 231 408 231 408 232 395 c 1,12,13
 262 421 262 421 304.5 434.5 c 128,-1,14
 347 448 347 448 394 448 c 0,15,16
 468 448 468 448 520 420.5 c 128,-1,17
 572 393 572 393 595.5 344 c 128,-1,18
 619 295 619 295 611 233 c 0,19,20
 601 165 601 165 556.5 110.5 c 128,-1,21
 512 56 512 56 442.5 25.5 c 128,-1,22
 373 -5 373 -5 292 -5 c 0,23,24
 197 -5 197 -5 134 38.5 c 128,-1,25
 71 82 71 82 45 161.5 c 128,-1,26
 19 241 19 241 34 348 c 0,27,28
 51 468 51 468 101.5 555 c 128,-1,29
 152 642 152 642 229.5 688 c 128,-1,30
 307 734 307 734 403 734 c 0,31,0
 475 734 475 734 531.5 709 c 128,-1,1
280 313 m 128,-1,33
 252 302 252 302 233.5 285.5 c 128,-1,34
 215 269 215 269 213 253 c 0,35,36
 207 187 207 187 231 153.5 c 128,-1,37
 255 120 255 120 304 120 c 0,38,39
 350 120 350 120 387 150 c 128,-1,40
 424 180 424 180 431 225 c 0,41,42
 438 272 438 272 409 298 c 128,-1,43
 380 324 380 324 335 324 c 0,44,32
 308 324 308 324 280 313 c 128,-1,33
EndSplineSet
Substitution2: "'onum' Oldstyle Figures in Latin lookup 24 subtable" six.osf
Substitution2: "'tnum' Tabular Numbers in Latin lookup 23 subtable" six.tf
Substitution2: "'frac' Diagonal Fractions in Latin lookup 17 subtable" six.numr
Substitution2: "'dnom' Denominators in Latin lookup 15 subtable" six.dnom
Substitution2: "'numr' Numerators in Latin lookup 14 subtable" six.numr
Substitution2: "'sups' Superscript in Latin lookup 13 subtable" uni2076
Substitution2: "'sinf' Scientific Inferiors in Latin lookup 12 subtable" six.subs
Substitution2: "'subs' Subscript in Latin lookup 11 subtable" six.subs
AlternateSubs2: "'aalt' Access All Alternates in Latin lookup 1 subtable" six.subs uni2076 six.numr six.dnom six.tf six.osf
EndChar

StartChar: seven
Encoding: 55 55 26
Width: 592
GlyphClass: 2
Flags: W
LayerCount: 2
Fore
SplineSet
633 723 m 1,0,-1
 608 549 l 1,1,2
 543 483 543 483 474 385.5 c 128,-1,3
 405 288 405 288 354 184.5 c 128,-1,4
 303 81 303 81 292 0 c 1,5,-1
 108 0 l 1,6,7
 120 65 120 65 160.5 161 c 128,-1,8
 201 257 201 257 276 369.5 c 128,-1,9
 351 482 351 482 455 585 c 1,10,-1
 59 585 l 1,11,-1
 79 723 l 1,12,-1
 633 723 l 1,0,-1
EndSplineSet
Substitution2: "'onum' Oldstyle Figures in Latin lookup 24 subtable" seven.osf
Substitution2: "'tnum' Tabular Numbers in Latin lookup 23 subtable" seven.tf
Substitution2: "'frac' Diagonal Fractions in Latin lookup 17 subtable" seven.numr
Substitution2: "'dnom' Denominators in Latin lookup 15 subtable" seven.dnom
Substitution2: "'numr' Numerators in Latin lookup 14 subtable" seven.numr
Substitution2: "'sups' Superscript in Latin lookup 13 subtable" uni2077
Substitution2: "'sinf' Scientific Inferiors in Latin lookup 12 subtable" seven.subs
Substitution2: "'subs' Subscript in Latin lookup 11 subtable" seven.subs
AlternateSubs2: "'aalt' Access All Alternates in Latin lookup 1 subtable" seven.subs uni2077 seven.numr seven.dnom seven.tf seven.osf
EndChar

StartChar: eight
Encoding: 56 56 27
Width: 645
GlyphClass: 2
Flags: W
LayerCount: 2
Fore
SplineSet
512.5 706.5 m 128,-1,1
 571 680 571 680 599 634 c 128,-1,2
 627 588 627 588 619 531 c 0,3,4
 611 473 611 473 569 439 c 128,-1,5
 527 405 527 405 488 391 c 1,6,7
 528 370 528 370 552 353 c 128,-1,8
 576 336 576 336 594.5 300 c 128,-1,9
 613 264 613 264 605 209 c 0,10,11
 595 141 595 141 550.5 91.5 c 128,-1,12
 506 42 506 42 433 16 c 128,-1,13
 360 -10 360 -10 267 -10 c 0,14,15
 135 -10 135 -10 63 39.5 c 128,-1,16
 -9 89 -9 89 3 177 c 0,17,18
 19 288 19 288 158 341 c 1,19,20
 156 343 156 343 105 374.5 c 128,-1,21
 54 406 54 406 68 507 c 0,22,23
 77 569 77 569 117.5 620.5 c 128,-1,24
 158 672 158 672 225 702.5 c 128,-1,25
 292 733 292 733 376 733 c 0,26,0
 454 733 454 733 512.5 706.5 c 128,-1,1
288 586.5 m 128,-1,28
 257 565 257 565 252 530 c 0,29,30
 249 506 249 506 261.5 488.5 c 128,-1,31
 274 471 274 471 302 462 c 2,32,-1
 369 440 l 2,33,34
 372 439 372 439 379 439 c 0,35,36
 404 439 404 439 430.5 467.5 c 128,-1,37
 457 496 457 496 461 526 c 0,38,39
 466 561 466 561 439.5 584.5 c 128,-1,40
 413 608 413 608 361 608 c 0,41,27
 319 608 319 608 288 586.5 c 128,-1,28
379 136.5 m 128,-1,43
 411 157 411 157 416 193 c 0,44,45
 420 219 420 219 406.5 237.5 c 128,-1,46
 393 256 393 256 355 269 c 2,47,-1
 277 295 l 2,48,49
 272 297 272 297 263 297 c 0,50,51
 245 297 245 297 224 285 c 128,-1,52
 203 273 203 273 188.5 252.5 c 128,-1,53
 174 232 174 232 170 208 c 0,54,55
 157 116 157 116 296 116 c 0,56,42
 347 116 347 116 379 136.5 c 128,-1,43
EndSplineSet
Substitution2: "'onum' Oldstyle Figures in Latin lookup 24 subtable" eight.osf
Substitution2: "'tnum' Tabular Numbers in Latin lookup 23 subtable" eight.tf
Substitution2: "'frac' Diagonal Fractions in Latin lookup 17 subtable" eight.numr
Substitution2: "'dnom' Denominators in Latin lookup 15 subtable" eight.dnom
Substitution2: "'numr' Numerators in Latin lookup 14 subtable" eight.numr
Substitution2: "'sups' Superscript in Latin lookup 13 subtable" uni2078
Substitution2: "'sinf' Scientific Inferiors in Latin lookup 12 subtable" eight.subs
Substitution2: "'subs' Subscript in Latin lookup 11 subtable" eight.subs
AlternateSubs2: "'aalt' Access All Alternates in Latin lookup 1 subtable" eight.subs uni2078 eight.numr eight.dnom eight.tf eight.osf
EndChar

StartChar: nine
Encoding: 57 57 28
Width: 657
GlyphClass: 2
Flags: W
LayerCount: 2
Fore
SplineSet
134 18 m 128,-1,1
 77 44 77 44 47 91.5 c 128,-1,2
 17 139 17 139 22 200 c 1,3,-1
 182 204 l 1,4,5
 186 167 186 167 208.5 145.5 c 128,-1,6
 231 124 231 124 272 124 c 0,7,8
 341 124 341 124 389 167.5 c 128,-1,9
 437 211 437 211 450 304 c 0,10,11
 453 326 453 326 454 338 c 1,12,13
 426 305 426 305 382.5 287 c 128,-1,14
 339 269 339 269 282 269 c 0,15,16
 208 269 208 269 153 297.5 c 128,-1,17
 98 326 98 326 72 376.5 c 128,-1,18
 46 427 46 427 55 493 c 0,19,20
 65 562 65 562 109.5 616 c 128,-1,21
 154 670 154 670 223.5 700.5 c 128,-1,22
 293 731 293 731 374 731 c 0,23,24
 469 731 469 731 532.5 688 c 128,-1,25
 596 645 596 645 621.5 565 c 128,-1,26
 647 485 647 485 632 378 c 0,27,28
 605 183 605 183 508.5 87.5 c 128,-1,29
 412 -8 412 -8 262 -8 c 0,30,0
 191 -8 191 -8 134 18 c 128,-1,1
385.5 413 m 128,-1,32
 414 424 414 424 432.5 440.5 c 128,-1,33
 451 457 451 457 453 472 c 0,34,35
 459 539 459 539 435 573 c 128,-1,36
 411 607 411 607 362 607 c 0,37,38
 317 607 317 607 283 577 c 128,-1,39
 249 547 249 547 242 501 c 0,40,41
 236 456 236 456 262 429 c 128,-1,42
 288 402 288 402 331 402 c 0,43,31
 357 402 357 402 385.5 413 c 128,-1,32
EndSplineSet
Substitution2: "'onum' Oldstyle Figures in Latin lookup 24 subtable" nine.osf
Substitution2: "'tnum' Tabular Numbers in Latin lookup 23 subtable" nine.tf
Substitution2: "'frac' Diagonal Fractions in Latin lookup 17 subtable" nine.numr
Substitution2: "'dnom' Denominators in Latin lookup 15 subtable" nine.dnom
Substitution2: "'numr' Numerators in Latin lookup 14 subtable" nine.numr
Substitution2: "'sups' Superscript in Latin lookup 13 subtable" uni2079
Substitution2: "'sinf' Scientific Inferiors in Latin lookup 12 subtable" nine.subs
Substitution2: "'subs' Subscript in Latin lookup 11 subtable" nine.subs
AlternateSubs2: "'aalt' Access All Alternates in Latin lookup 1 subtable" nine.subs uni2079 nine.numr nine.dnom nine.tf nine.osf
EndChar

StartChar: colon
Encoding: 58 58 29
Width: 284
GlyphClass: 2
Flags: W
LayerCount: 2
Fore
SplineSet
228 334 m 1,0,-1
 45 334 l 1,1,-1
 69 508 l 1,2,-1
 252 508 l 1,3,-1
 228 334 l 1,0,-1
181 3 m 1,4,-1
 -2 3 l 1,5,-1
 23 177 l 1,6,-1
 206 177 l 1,7,-1
 181 3 l 1,4,-1
EndSplineSet
EndChar

StartChar: semicolon
Encoding: 59 59 30
Width: 289
GlyphClass: 2
Flags: W
LayerCount: 2
Fore
SplineSet
70 506 m 1,0,-1
 252 506 l 1,1,-1
 227 328 l 1,2,-1
 45 328 l 1,3,-1
 70 506 l 1,0,-1
63 0 m 1,4,-1
 0 0 l 1,5,-1
 25 175 l 1,6,-1
 207 175 l 1,7,-1
 185 20 l 1,8,-1
 40 -160 l 1,9,-1
 -28 -160 l 1,10,-1
 63 0 l 1,4,-1
EndSplineSet
EndChar

StartChar: less
Encoding: 60 60 31
Width: 594
GlyphClass: 2
Flags: W
LayerCount: 2
Fore
SplineSet
489 88 m 1,0,-1
 36 273 l 1,1,-1
 56 411 l 1,2,-1
 561 596 l 1,3,-1
 541 454 l 1,4,-1
 230 341 l 1,5,-1
 510 232 l 1,6,-1
 489 88 l 1,0,-1
EndSplineSet
EndChar

StartChar: equal
Encoding: 61 61 32
Width: 596
GlyphClass: 2
Flags: W
LayerCount: 2
Fore
SplineSet
550 397 m 1,0,-1
 59 397 l 1,1,-1
 76 520 l 1,2,-1
 567 520 l 1,3,-1
 550 397 l 1,0,-1
517 166 m 1,4,-1
 26 165 l 1,5,-1
 43 288 l 1,6,-1
 534 288 l 1,7,-1
 517 166 l 1,4,-1
EndSplineSet
EndChar

StartChar: greater
Encoding: 62 62 33
Width: 594
GlyphClass: 2
Flags: W
LayerCount: 2
Fore
SplineSet
360 341 m 1,0,-1
 80 454 l 1,1,-1
 100 596 l 1,2,-1
 553 411 l 1,3,-1
 533 273 l 1,4,-1
 28 88 l 1,5,-1
 49 232 l 1,6,-1
 360 341 l 1,0,-1
EndSplineSet
EndChar

StartChar: question
Encoding: 63 63 34
Width: 535
GlyphClass: 2
Flags: W
LayerCount: 2
Fore
SplineSet
153.5 688.5 m 128,-1,1
 227 733 227 733 323 733 c 0,2,3
 395 733 395 733 447.5 710 c 128,-1,4
 500 687 500 687 525 648.5 c 128,-1,5
 550 610 550 610 543 564 c 0,6,7
 538 526 538 526 520.5 496.5 c 128,-1,8
 503 467 503 467 481 446.5 c 128,-1,9
 459 426 459 426 422 396 c 0,10,11
 370 356 370 356 342.5 323.5 c 128,-1,12
 315 291 315 291 308 244 c 1,13,-1
 174 244 l 1,14,15
 181 294 181 294 200.5 332 c 128,-1,16
 220 370 220 370 243.5 396.5 c 128,-1,17
 267 423 267 423 303 456 c 0,18,19
 337 488 337 488 354 509 c 128,-1,20
 371 530 371 530 375 555 c 0,21,22
 379 584 379 584 359 601.5 c 128,-1,23
 339 619 339 619 305 619 c 0,24,25
 268 619 268 619 232 594.5 c 128,-1,26
 196 570 196 570 174 527 c 1,27,-1
 36 560 l 1,28,0
 80 644 80 644 153.5 688.5 c 128,-1,1
298 0 m 1,29,-1
 116 0 l 1,30,-1
 140 174 l 1,31,-1
 322 174 l 1,32,-1
 298 0 l 1,29,-1
EndSplineSet
EndChar

StartChar: at
Encoding: 64 64 35
Width: 833
GlyphClass: 2
Flags: W
LayerCount: 2
Fore
SplineSet
509 -88.5 m 128,-1,1
 441 -110 441 -110 363 -110 c 0,2,3
 246 -110 246 -110 165.5 -61.5 c 128,-1,4
 85 -13 85 -13 51 70.5 c 128,-1,5
 17 154 17 154 31 255 c 0,6,7
 46 361 46 361 108 450 c 128,-1,8
 170 539 170 539 269.5 591.5 c 128,-1,9
 369 644 369 644 490 644 c 0,10,11
 584 644 584 644 659.5 610.5 c 128,-1,12
 735 577 735 577 774.5 506 c 128,-1,13
 814 435 814 435 799 330 c 0,14,15
 789 257 789 257 756.5 200 c 128,-1,16
 724 143 724 143 675.5 111 c 128,-1,17
 627 79 627 79 570 79 c 0,18,19
 531 79 531 79 510 92 c 128,-1,20
 489 105 489 105 480 123 c 0,21,22
 477 129 477 129 475 129 c 0,23,24
 472 129 472 129 467 123 c 0,25,26
 440 96 440 96 405.5 80.5 c 128,-1,27
 371 65 371 65 331 65 c 0,28,29
 289 65 289 65 257.5 86 c 128,-1,30
 226 107 226 107 211.5 146 c 128,-1,31
 197 185 197 185 204 236 c 0,32,33
 212 296 212 296 244 348 c 128,-1,34
 276 400 276 400 326 431.5 c 128,-1,35
 376 463 376 463 436 463 c 0,36,37
 473 463 473 463 494 451 c 128,-1,38
 515 439 515 439 533 417 c 0,39,40
 536 415 536 415 538.5 416 c 128,-1,41
 541 417 541 417 542 421 c 2,42,-1
 548 438 l 1,43,-1
 642 438 l 1,44,-1
 577 226 l 2,45,46
 574 218 574 218 572 205 c 0,47,48
 567 171 567 171 595 171 c 0,49,50
 617 171 617 171 638.5 188 c 128,-1,51
 660 205 660 205 677.5 239.5 c 128,-1,52
 695 274 695 274 702 324 c 0,53,54
 719 446 719 446 654 500.5 c 128,-1,55
 589 555 589 555 477 555 c 0,56,57
 374 555 374 555 300 515 c 128,-1,58
 226 475 226 475 184.5 408 c 128,-1,59
 143 341 143 341 131 257 c 0,60,61
 112 121 112 121 181.5 47 c 128,-1,62
 251 -27 251 -27 391 -27 c 0,63,64
 452 -27 452 -27 492 -13 c 128,-1,65
 532 1 532 1 579 31 c 1,66,-1
 619 -34 l 1,67,0
 577 -67 577 -67 509 -88.5 c 128,-1,1
330.5 188.5 m 128,-1,69
 344 164 344 164 375 164 c 0,70,71
 416 164 416 164 448.5 199 c 128,-1,72
 481 234 481 234 487 278 c 0,73,74
 492 316 492 316 477 340.5 c 128,-1,75
 462 365 462 365 431 365 c 0,76,77
 393 365 393 365 361 331.5 c 128,-1,78
 329 298 329 298 322 250 c 0,79,68
 317 213 317 213 330.5 188.5 c 128,-1,69
EndSplineSet
EndChar

StartChar: A
Encoding: 65 65 36
Width: 718
GlyphClass: 2
Flags: W
AnchorPoint: "Anchor-5" -46 0 basechar 0
AnchorPoint: "Anchor-4" -46 0 basechar 0
AnchorPoint: "Anchor-3" 326 723 basechar 0
AnchorPoint: "Anchor-2" 659 9 basechar 0
LayerCount: 2
Fore
SplineSet
327 723 m 1,0,-1
 504 723 l 1,1,-1
 659 0 l 1,2,-1
 490 0 l 1,3,-1
 459 154 l 1,4,-1
 215 154 l 1,5,-1
 138 0 l 1,6,-1
 -32 0 l 1,7,-1
 327 723 l 1,0,-1
439 301 m 1,8,-1
 393 560 l 1,9,-1
 271 301 l 1,10,-1
 439 301 l 1,8,-1
EndSplineSet
Substitution2: "Single Substitution lookup 30 subtable" ordfeminine
Substitution2: "'aalt' Access All Alternates in Latin lookup 0 subtable" ordfeminine
EndChar

StartChar: B
Encoding: 66 66 37
Width: 690
GlyphClass: 2
Flags: W
LayerCount: 2
Fore
SplineSet
128 723 m 1,0,-1
 403 723 l 2,1,2
 688 723 688 723 661 533 c 0,3,4
 653 479 653 479 620 440.5 c 128,-1,5
 587 402 587 402 517 371 c 1,6,7
 597 348 597 348 618 302 c 128,-1,8
 639 256 639 256 631 196 c 0,9,10
 617 95 617 95 542 47.5 c 128,-1,11
 467 0 467 0 315 0 c 2,12,-1
 26 0 l 1,13,-1
 128 723 l 1,0,-1
388 432 m 2,14,15
 429 432 429 432 459 453 c 128,-1,16
 489 474 489 474 494 511 c 0,17,18
 499 550 499 550 473 572 c 128,-1,19
 447 594 447 594 401 594 c 2,20,-1
 279 594 l 1,21,-1
 257 432 l 1,22,-1
 388 432 l 2,14,15
338 130 m 2,23,24
 391 130 391 130 423 154 c 128,-1,25
 455 178 455 178 460 216 c 128,-1,26
 465 254 465 254 440 276.5 c 128,-1,27
 415 299 415 299 369 299 c 2,28,-1
 238 299 l 1,29,-1
 214 130 l 1,30,-1
 338 130 l 2,23,24
EndSplineSet
EndChar

StartChar: C
Encoding: 67 67 38
Width: 721
GlyphClass: 2
Flags: W
AnchorPoint: "Anchor-5" -46 0 basechar 0
AnchorPoint: "Anchor-4" 331 0 basechar 0
AnchorPoint: "Anchor-3" 331 723 basechar 0
AnchorPoint: "Anchor-2" -46 0 basechar 0
LayerCount: 2
Fore
SplineSet
578 700.5 m 128,-1,1
 640 668 640 668 672.5 610.5 c 128,-1,2
 705 553 705 553 702 479 c 1,3,-1
 524 478 l 1,4,5
 523 533 523 533 493.5 564 c 128,-1,6
 464 595 464 595 408 595 c 0,7,8
 264 595 264 595 232 367 c 0,9,10
 215 245 215 245 244.5 186.5 c 128,-1,11
 274 128 274 128 343 128 c 0,12,13
 395 128 395 128 435 164.5 c 128,-1,14
 475 201 475 201 492 257 c 1,15,-1
 670 255 l 1,16,17
 638 134 638 134 558.5 62 c 128,-1,18
 479 -10 479 -10 330 -10 c 0,19,20
 229 -10 229 -10 159 38 c 128,-1,21
 89 86 89 86 59.5 172 c 128,-1,22
 30 258 30 258 46 369 c 128,-1,23
 62 480 62 480 114.5 562 c 128,-1,24
 167 644 167 644 248.5 688.5 c 128,-1,25
 330 733 330 733 433 733 c 0,26,0
 516 733 516 733 578 700.5 c 128,-1,1
EndSplineSet
EndChar

StartChar: D
Encoding: 68 68 39
Width: 724
GlyphClass: 2
Flags: W
AnchorPoint: "Anchor-5" -46 0 basechar 0
AnchorPoint: "Anchor-4" -46 0 basechar 0
AnchorPoint: "Anchor-3" 316 723 basechar 0
AnchorPoint: "Anchor-2" -46 0 basechar 0
LayerCount: 2
Fore
SplineSet
230 723 m 2,0,1
 335 723 335 723 365 722 c 0,2,3
 554 716 554 716 633 622 c 128,-1,4
 712 528 712 528 689 364 c 0,5,6
 665 195 665 195 556.5 97.5 c 128,-1,7
 448 0 448 0 261 0 c 2,8,-1
 26 0 l 1,9,-1
 128 723 l 1,10,-1
 230 723 l 2,0,1
216 136 m 1,11,-1
 284 136 l 2,12,13
 367 136 367 136 431 192 c 128,-1,14
 495 248 495 248 511 366 c 0,15,16
 527 477 527 477 483.5 532.5 c 128,-1,17
 440 588 440 588 349 588 c 2,18,-1
 280 588 l 1,19,-1
 216 136 l 1,11,-1
EndSplineSet
EndChar

StartChar: E
Encoding: 69 69 40
Width: 644
GlyphClass: 2
Flags: W
AnchorPoint: "Anchor-5" -46 0 basechar 0
AnchorPoint: "Anchor-4" 289 0 basechar 0
AnchorPoint: "Anchor-3" 286 723 basechar 0
AnchorPoint: "Anchor-2" 542 10 basechar 0
LayerCount: 2
Fore
SplineSet
128 723 m 1,0,-1
 643 723 l 1,1,-1
 622 581 l 1,2,-1
 279 581 l 1,3,-1
 258 433 l 1,4,-1
 551 433 l 1,5,-1
 531 294 l 1,6,-1
 237 294 l 1,7,-1
 216 143 l 1,8,-1
 564 143 l 1,9,-1
 544 0 l 1,10,-1
 26 0 l 1,11,-1
 128 723 l 1,0,-1
EndSplineSet
EndChar

StartChar: F
Encoding: 70 70 41
Width: 612
GlyphClass: 2
Flags: W
LayerCount: 2
Fore
SplineSet
639 723 m 1,0,-1
 618 583 l 1,1,-1
 279 583 l 1,2,-1
 257 427 l 1,3,-1
 546 427 l 1,4,-1
 527 289 l 1,5,-1
 238 289 l 1,6,-1
 197 0 l 1,7,-1
 26 0 l 1,8,-1
 128 723 l 1,9,-1
 639 723 l 1,0,-1
EndSplineSet
EndChar

StartChar: G
Encoding: 71 71 42
Width: 763
GlyphClass: 2
Flags: W
AnchorPoint: "Anchor-5" -46 0 basechar 0
AnchorPoint: "Anchor-4" 330 0 basechar 0
AnchorPoint: "Anchor-3" 329 723 basechar 0
AnchorPoint: "Anchor-2" -46 0 basechar 0
LayerCount: 2
Fore
SplineSet
157 36 m 128,-1,1
 88 82 88 82 58.5 166 c 128,-1,2
 29 250 29 250 44 359 c 0,3,4
 60 471 60 471 115.5 556 c 128,-1,5
 171 641 171 641 255.5 687 c 128,-1,6
 340 733 340 733 441 733 c 0,7,8
 529 733 529 733 593 697.5 c 128,-1,9
 657 662 657 662 687.5 603.5 c 128,-1,10
 718 545 718 545 710 479 c 1,11,-1
 532 478 l 1,12,13
 528 529 528 529 498.5 560 c 128,-1,14
 469 591 469 591 416 591 c 0,15,16
 347 591 347 591 297 536 c 128,-1,17
 247 481 247 481 230 365 c 0,18,19
 212 240 212 240 251.5 189.5 c 128,-1,20
 291 139 291 139 360 139 c 0,21,22
 410 139 410 139 446.5 167 c 128,-1,23
 483 195 483 195 496 230 c 2,24,-1
 508 266 l 1,25,-1
 370 266 l 1,26,-1
 387 382 l 1,27,-1
 703 380 l 1,28,-1
 650 0 l 1,29,-1
 536 0 l 1,30,-1
 548 87 l 1,31,32
 506 44 506 44 455.5 17 c 128,-1,33
 405 -10 405 -10 326 -10 c 0,34,0
 226 -10 226 -10 157 36 c 128,-1,1
EndSplineSet
EndChar

StartChar: H
Encoding: 72 72 43
Width: 733
GlyphClass: 2
Flags: W
AnchorPoint: "Anchor-5" -46 0 basechar 0
AnchorPoint: "Anchor-4" 316 0 basechar 0
AnchorPoint: "Anchor-3" 318 723 basechar 0
AnchorPoint: "Anchor-2" -46 0 basechar 0
LayerCount: 2
Fore
SplineSet
238 300 m 1,0,-1
 196 0 l 1,1,-1
 26 0 l 1,2,-1
 128 723 l 1,3,-1
 298 723 l 1,4,-1
 258 441 l 1,5,-1
 505 441 l 1,6,-1
 545 723 l 1,7,-1
 716 723 l 1,8,-1
 614 0 l 1,9,-1
 443 0 l 1,10,-1
 485 300 l 1,11,-1
 238 300 l 1,0,-1
EndSplineSet
EndChar

StartChar: I
Encoding: 73 73 44
Width: 315
GlyphClass: 2
Flags: W
AnchorPoint: "Anchor-5" -46 0 basechar 0
AnchorPoint: "Anchor-4" 120 0 basechar 0
AnchorPoint: "Anchor-3" 112 723 basechar 0
AnchorPoint: "Anchor-2" 175 4 basechar 0
LayerCount: 2
Fore
SplineSet
298 723 m 1,0,-1
 196 0 l 1,1,-1
 26 0 l 1,2,-1
 128 723 l 1,3,-1
 298 723 l 1,0,-1
EndSplineSet
EndChar

StartChar: J
Encoding: 74 74 45
Width: 422
GlyphClass: 2
Flags: W
AnchorPoint: "Anchor-5" -46 0 basechar 0
AnchorPoint: "Anchor-4" -46 0 basechar 0
AnchorPoint: "Anchor-3" 176 723 basechar 0
AnchorPoint: "Anchor-2" -46 0 basechar 0
LayerCount: 2
Fore
SplineSet
298.5 87.5 m 128,-1,1
 275 39 275 39 228.5 14.5 c 128,-1,2
 182 -10 182 -10 102 -10 c 0,3,4
 72 -10 72 -10 34.5 -6 c 128,-1,5
 -3 -2 -3 -2 -25 3 c 1,6,-1
 -1 157 l 1,7,8
 6 156 6 156 27 152 c 128,-1,9
 48 148 48 148 67 148 c 0,10,11
 116 148 116 148 138 173.5 c 128,-1,12
 160 199 160 199 168 259 c 2,13,-1
 234 723 l 1,14,-1
 405 723 l 1,15,-1
 333 215 l 2,16,0
 322 136 322 136 298.5 87.5 c 128,-1,1
EndSplineSet
EndChar

StartChar: K
Encoding: 75 75 46
Width: 728
GlyphClass: 2
Flags: W
AnchorPoint: "Anchor-5" -46 0 basechar 0
AnchorPoint: "Anchor-4" 307 0 basechar 0
AnchorPoint: "Anchor-3" 311 723 basechar 0
AnchorPoint: "Anchor-2" -46 0 basechar 0
LayerCount: 2
Fore
SplineSet
477 0 m 1,0,-1
 346 321 l 1,1,-1
 231 198 l 1,2,-1
 203 0 l 1,3,-1
 26 0 l 1,4,-1
 128 723 l 1,5,-1
 305 723 l 1,6,-1
 261 411 l 1,7,-1
 541 723 l 1,8,-1
 734 723 l 1,9,-1
 486 446 l 1,10,-1
 662 0 l 1,11,-1
 477 0 l 1,0,-1
EndSplineSet
EndChar

StartChar: L
Encoding: 76 76 47
Width: 568
GlyphClass: 2
Flags: W
AnchorPoint: "Anchor-5" 428 723 basechar 0
AnchorPoint: "Anchor-4" 259 0 basechar 0
AnchorPoint: "Anchor-3" 103 723 basechar 0
AnchorPoint: "Anchor-2" -46 0 basechar 0
LayerCount: 2
Fore
SplineSet
299 723 m 1,0,-1
 217 142 l 1,1,-1
 518 142 l 1,2,-1
 498 0 l 1,3,-1
 26 0 l 1,4,-1
 128 723 l 1,5,-1
 299 723 l 1,0,-1
EndSplineSet
EndChar

StartChar: M
Encoding: 77 77 48
Width: 928
GlyphClass: 2
Flags: W
LayerCount: 2
Fore
SplineSet
128 723 m 1,0,-1
 378 723 l 1,1,-1
 452 245 l 1,2,-1
 662 723 l 1,3,-1
 912 723 l 1,4,-1
 810 0 l 1,5,-1
 639 0 l 1,6,-1
 715 538 l 1,7,-1
 481 0 l 1,8,-1
 354 0 l 1,9,-1
 272 537 l 1,10,-1
 197 0 l 1,11,-1
 26 0 l 1,12,-1
 128 723 l 1,0,-1
EndSplineSet
EndChar

StartChar: N
Encoding: 78 78 49
Width: 791
GlyphClass: 2
Flags: W
AnchorPoint: "Anchor-5" -46 0 basechar 0
AnchorPoint: "Anchor-4" 345 0 basechar 0
AnchorPoint: "Anchor-3" 351 723 basechar 0
AnchorPoint: "Anchor-2" -46 0 basechar 0
LayerCount: 2
Fore
SplineSet
775 723 m 1,0,-1
 673 0 l 1,1,-1
 519 0 l 1,2,-1
 261 464 l 1,3,-1
 196 0 l 1,4,-1
 26 0 l 1,5,-1
 128 723 l 1,6,-1
 298 723 l 1,7,-1
 542 282 l 1,8,-1
 604 723 l 1,9,-1
 775 723 l 1,0,-1
EndSplineSet
EndChar

StartChar: O
Encoding: 79 79 50
Width: 762
GlyphClass: 2
Flags: W
AnchorPoint: "Anchor-5" -46 0 basechar 0
AnchorPoint: "Anchor-4" 337 0 basechar 0
AnchorPoint: "Anchor-3" 335 723 basechar 0
AnchorPoint: "Anchor-2" 423 10 basechar 0
LayerCount: 2
Fore
SplineSet
159.5 35 m 128,-1,1
 88 80 88 80 58.5 163.5 c 128,-1,2
 29 247 29 247 45 360 c 128,-1,3
 61 473 61 473 114.5 557.5 c 128,-1,4
 168 642 168 642 252 687.5 c 128,-1,5
 336 733 336 733 439 733 c 0,6,7
 541 733 541 733 611.5 687.5 c 128,-1,8
 682 642 682 642 712 557.5 c 128,-1,9
 742 473 742 473 727 360 c 0,10,11
 711 247 711 247 657.5 163.5 c 128,-1,12
 604 80 604 80 521 35 c 128,-1,13
 438 -10 438 -10 335 -10 c 0,14,0
 231 -10 231 -10 159.5 35 c 128,-1,1
541 357 m 0,15,16
 558 480 558 480 525.5 537.5 c 128,-1,17
 493 595 493 595 420 595 c 128,-1,18
 347 595 347 595 297 537.5 c 128,-1,19
 247 480 247 480 230 357 c 0,20,21
 213 238 213 238 246.5 183 c 128,-1,22
 280 128 280 128 354 128 c 0,23,24
 509 128 509 128 541 357 c 0,15,16
EndSplineSet
Substitution2: "Single Substitution lookup 30 subtable" ordmasculine
Substitution2: "'aalt' Access All Alternates in Latin lookup 0 subtable" ordmasculine
EndChar

StartChar: P
Encoding: 80 80 51
Width: 655
GlyphClass: 2
Flags: W
LayerCount: 2
Fore
SplineSet
128 723 m 1,0,-1
 404 723 l 2,1,2
 485 723 485 723 544 695.5 c 128,-1,3
 603 668 603 668 632 614 c 128,-1,4
 661 560 661 560 650 485 c 0,5,6
 635 379 635 379 557.5 319.5 c 128,-1,7
 480 260 480 260 361 260 c 2,8,-1
 234 260 l 1,9,-1
 197 0 l 1,10,-1
 26 0 l 1,11,-1
 128 723 l 1,0,-1
374 389 m 2,12,13
 419 389 419 389 453 419.5 c 128,-1,14
 487 450 487 450 493 494 c 0,15,16
 499 539 499 539 472.5 567 c 128,-1,17
 446 595 446 595 402 595 c 2,18,-1
 279 595 l 1,19,-1
 250 389 l 1,20,-1
 374 389 l 2,12,13
EndSplineSet
EndChar

StartChar: Q
Encoding: 81 81 52
Width: 769
GlyphClass: 2
Flags: W
LayerCount: 2
Fore
SplineSet
105 557.5 m 128,-1,1
 159 642 159 642 243 687.5 c 128,-1,2
 327 733 327 733 430 733 c 128,-1,3
 533 733 533 733 603.5 687.5 c 128,-1,4
 674 642 674 642 704 557.5 c 128,-1,5
 734 473 734 473 719 360 c 0,6,7
 693 175 693 175 567 70 c 1,8,9
 572 45 572 45 601 28 c 128,-1,10
 630 11 630 11 668 10 c 1,11,-1
 650 -124 l 1,12,13
 590 -124 590 -124 550 -115.5 c 128,-1,14
 510 -107 510 -107 474.5 -81.5 c 128,-1,15
 439 -56 439 -56 407 -4 c 1,16,17
 365 -10 365 -10 326 -10 c 0,18,19
 222 -10 222 -10 151 35 c 128,-1,20
 80 80 80 80 50 163.5 c 128,-1,21
 20 247 20 247 36 360 c 0,22,0
 51 473 51 473 105 557.5 c 128,-1,1
237 182.5 m 128,-1,24
 269 128 269 128 345 128 c 128,-1,25
 421 128 421 128 468.5 182.5 c 128,-1,26
 516 237 516 237 533 358 c 0,27,28
 566 595 566 595 411 595 c 128,-1,29
 256 595 256 595 222 358 c 0,30,23
 205 237 205 237 237 182.5 c 128,-1,24
EndSplineSet
EndChar

StartChar: R
Encoding: 82 82 53
Width: 701
GlyphClass: 2
Flags: W
AnchorPoint: "Anchor-5" -46 0 basechar 0
AnchorPoint: "Anchor-4" 306 0 basechar 0
AnchorPoint: "Anchor-3" 296 723 basechar 0
AnchorPoint: "Anchor-2" -46 0 basechar 0
LayerCount: 2
Fore
SplineSet
432 0 m 1,0,-1
 357 264 l 1,1,-1
 233 264 l 1,2,-1
 196 0 l 1,3,-1
 26 0 l 1,4,-1
 128 723 l 1,5,-1
 444 723 l 2,6,7
 574 723 574 723 627.5 662 c 128,-1,8
 681 601 681 601 667 498 c 0,9,10
 656 420 656 420 617 371.5 c 128,-1,11
 578 323 578 323 517 291 c 1,12,-1
 607 0 l 1,13,-1
 432 0 l 1,0,-1
454.5 422.5 m 128,-1,15
 489 452 489 452 495 496 c 0,16,17
 501 539 501 539 475.5 567 c 128,-1,18
 450 595 450 595 408 595 c 2,19,-1
 280 595 l 1,20,-1
 251 393 l 1,21,-1
 373 393 l 2,22,14
 420 393 420 393 454.5 422.5 c 128,-1,15
EndSplineSet
EndChar

StartChar: S
Encoding: 83 83 54
Width: 705
GlyphClass: 2
Flags: W
AnchorPoint: "Anchor-5" -46 0 basechar 0
AnchorPoint: "Anchor-4" 307 0 basechar 0
AnchorPoint: "Anchor-3" 308 723 basechar 0
AnchorPoint: "Anchor-2" -46 0 basechar 0
LayerCount: 2
Fore
SplineSet
166 14.5 m 128,-1,1
 99 39 99 39 60 89 c 128,-1,2
 21 139 21 139 24 212 c 1,3,-1
 201 213 l 1,4,5
 204 170 204 170 238 146 c 128,-1,6
 272 122 272 122 328 122 c 0,7,8
 386 122 386 122 426.5 141 c 128,-1,9
 467 160 467 160 473 200 c 0,10,11
 478 233 478 233 448.5 250 c 128,-1,12
 419 267 419 267 361 278 c 2,13,-1
 243 300 l 2,14,15
 158 315 158 315 116 368.5 c 128,-1,16
 74 422 74 422 87 509 c 0,17,18
 97 577 97 577 142.5 627.5 c 128,-1,19
 188 678 188 678 259 705 c 128,-1,20
 330 732 330 732 412 732 c 0,21,22
 496 732 496 732 558.5 701.5 c 128,-1,23
 621 671 621 671 653.5 620 c 128,-1,24
 686 569 686 569 685 510 c 1,25,-1
 511 508 l 1,26,27
 513 599 513 599 396 599 c 0,28,29
 340 599 340 599 307.5 578 c 128,-1,30
 275 557 275 557 271 526 c 0,31,32
 267 497 267 497 284.5 479.5 c 128,-1,33
 302 462 302 462 352 452 c 2,34,-1
 467 430 l 2,35,36
 593 407 593 407 625.5 343.5 c 128,-1,37
 658 280 658 280 647 201 c 0,38,39
 639 142 639 142 592.5 93.5 c 128,-1,40
 546 45 546 45 472.5 17.5 c 128,-1,41
 399 -10 399 -10 311 -10 c 0,42,0
 233 -10 233 -10 166 14.5 c 128,-1,1
EndSplineSet
EndChar

StartChar: T
Encoding: 84 84 55
Width: 618
GlyphClass: 2
Flags: W
AnchorPoint: "Anchor-5" -46 0 basechar 0
AnchorPoint: "Anchor-4" 272 0 basechar 0
AnchorPoint: "Anchor-3" 272 723 basechar 0
AnchorPoint: "Anchor-2" -46 0 basechar 0
LayerCount: 2
Fore
SplineSet
68 723 m 1,0,-1
 661 723 l 1,1,-1
 639 572 l 1,2,-1
 429 572 l 1,3,-1
 349 0 l 1,4,-1
 178 0 l 1,5,-1
 258 572 l 1,6,-1
 46 572 l 1,7,-1
 68 723 l 1,0,-1
EndSplineSet
EndChar

StartChar: U
Encoding: 85 85 56
Width: 746
GlyphClass: 2
Flags: W
AnchorPoint: "Anchor-5" -46 0 basechar 0
AnchorPoint: "Anchor-4" -46 0 basechar 0
AnchorPoint: "Anchor-3" 312 723 basechar 0
AnchorPoint: "Anchor-2" 404 12 basechar 0
LayerCount: 2
Fore
SplineSet
565.5 67.5 m 128,-1,1
 484 -10 484 -10 325 -10 c 128,-1,2
 166 -10 166 -10 106.5 68 c 128,-1,3
 47 146 47 146 67 290 c 2,4,-1
 128 723 l 1,5,-1
 301 723 l 1,6,-1
 238 280 l 2,7,8
 228 206 228 206 258 169.5 c 128,-1,9
 288 133 288 133 345 133 c 0,10,11
 403 133 403 133 443.5 169.5 c 128,-1,12
 484 206 484 206 494 280 c 2,13,-1
 557 723 l 1,14,-1
 729 723 l 1,15,-1
 667 287 l 2,16,0
 647 145 647 145 565.5 67.5 c 128,-1,1
EndSplineSet
EndChar

StartChar: V
Encoding: 86 86 57
Width: 699
GlyphClass: 2
Flags: W
LayerCount: 2
Fore
SplineSet
398 0 m 1,0,-1
 208 0 l 1,1,-1
 64 723 l 1,2,-1
 225 723 l 1,3,-1
 331 199 l 1,4,-1
 585 723 l 1,5,-1
 747 723 l 1,6,-1
 398 0 l 1,0,-1
EndSplineSet
EndChar

StartChar: W
Encoding: 87 87 58
Width: 971
GlyphClass: 2
Flags: W
AnchorPoint: "Anchor-5" -46 0 basechar 0
AnchorPoint: "Anchor-4" -46 0 basechar 0
AnchorPoint: "Anchor-3" 440 723 basechar 0
AnchorPoint: "Anchor-2" -46 0 basechar 0
LayerCount: 2
Fore
SplineSet
695 0 m 1,0,-1
 564 0 l 1,1,-1
 500 433 l 1,2,-1
 313 0 l 1,3,-1
 184 0 l 1,4,-1
 71 723 l 1,5,-1
 236 723 l 1,6,-1
 299 290 l 1,7,-1
 481 723 l 1,8,-1
 602 723 l 1,9,-1
 665 290 l 1,10,-1
 847 723 l 1,11,-1
 1012 723 l 1,12,-1
 695 0 l 1,0,-1
EndSplineSet
EndChar

StartChar: X
Encoding: 88 88 59
Width: 717
GlyphClass: 2
Flags: W
LayerCount: 2
Fore
SplineSet
444 0 m 1,0,-1
 330 243 l 1,1,-1
 151 0 l 1,2,-1
 -31 0 l 1,3,-1
 258 366 l 1,4,-1
 77 723 l 1,5,-1
 289 723 l 1,6,-1
 386 508 l 1,7,-1
 544 723 l 1,8,-1
 724 723 l 1,9,-1
 457 390 l 1,10,-1
 657 0 l 1,11,-1
 444 0 l 1,0,-1
EndSplineSet
EndChar

StartChar: Y
Encoding: 89 89 60
Width: 683
GlyphClass: 2
Flags: W
AnchorPoint: "Anchor-5" -46 0 basechar 0
AnchorPoint: "Anchor-4" -46 0 basechar 0
AnchorPoint: "Anchor-3" 315 723 basechar 0
AnchorPoint: "Anchor-2" -46 0 basechar 0
LayerCount: 2
Fore
SplineSet
423 303 m 1,0,-1
 380 0 l 1,1,-1
 209 0 l 1,2,-1
 252 303 l 1,3,-1
 58 723 l 1,4,-1
 242 723 l 1,5,-1
 358 448 l 1,6,-1
 550 723 l 1,7,-1
 736 723 l 1,8,-1
 423 303 l 1,0,-1
EndSplineSet
EndChar

StartChar: Z
Encoding: 90 90 61
Width: 681
GlyphClass: 2
Flags: W
AnchorPoint: "Anchor-5" -46 0 basechar 0
AnchorPoint: "Anchor-4" 301 0 basechar 0
AnchorPoint: "Anchor-3" 319 723 basechar 0
AnchorPoint: "Anchor-2" -46 0 basechar 0
LayerCount: 2
Fore
SplineSet
8 80 m 1,0,-1
 433 582 l 1,1,-1
 108 582 l 1,2,-1
 128 723 l 1,3,-1
 698 723 l 1,4,-1
 687 647 l 1,5,-1
 255 143 l 1,6,-1
 611 143 l 1,7,-1
 591 0 l 1,8,-1
 -3 0 l 1,9,-1
 8 80 l 1,0,-1
EndSplineSet
EndChar

StartChar: bracketleft
Encoding: 91 91 62
Width: 343
GlyphClass: 2
Flags: W
LayerCount: 2
Fore
SplineSet
368 723 m 1,0,-1
 355 630 l 1,1,-1
 244 630 l 1,2,-1
 144 -68 l 1,3,-1
 256 -68 l 1,4,-1
 243 -161 l 1,5,-1
 -6 -161 l 1,6,-1
 119 723 l 1,7,-1
 368 723 l 1,0,-1
EndSplineSet
EndChar

StartChar: backslash
Encoding: 92 92 63
Width: 388
GlyphClass: 2
Flags: W
LayerCount: 2
Fore
SplineSet
59 723 m 1,0,-1
 174 723 l 1,1,-1
 325 -9 l 1,2,-1
 210 -9 l 1,3,-1
 59 723 l 1,0,-1
EndSplineSet
EndChar

StartChar: bracketright
Encoding: 93 93 64
Width: 343
GlyphClass: 2
Flags: W
LayerCount: 2
Fore
SplineSet
-6 -161 m 1,0,-1
 7 -68 l 1,1,-1
 118 -68 l 1,2,-1
 218 630 l 1,3,-1
 106 630 l 1,4,-1
 119 723 l 1,5,-1
 368 723 l 1,6,-1
 243 -161 l 1,7,-1
 -6 -161 l 1,0,-1
EndSplineSet
EndChar

StartChar: asciicircum
Encoding: 94 94 65
Width: 483
GlyphClass: 2
Flags: W
LayerCount: 2
Fore
SplineSet
240 358 m 1,0,-1
 109 120 l 1,1,-1
 -2 120 l 1,2,-1
 209 491 l 2,3,4
 218 508 218 508 233.5 517 c 128,-1,5
 249 526 249 526 265 526 c 128,-1,6
 281 526 281 526 293.5 517.5 c 128,-1,7
 306 509 306 509 310 492 c 2,8,-1
 415 120 l 1,9,-1
 305 120 l 1,10,-1
 240 358 l 1,0,-1
EndSplineSet
EndChar

StartChar: underscore
Encoding: 95 95 66
Width: 564
GlyphClass: 2
Flags: W
LayerCount: 2
Fore
SplineSet
437 -147 m 1,0,-1
 -15 -147 l 1,1,-1
 2 -26 l 1,2,-1
 454 -26 l 1,3,-1
 437 -147 l 1,0,-1
EndSplineSet
EndChar

StartChar: grave
Encoding: 96 96 67
Width: 324
GlyphClass: 2
Flags: W
LayerCount: 2
Fore
SplineSet
347 630 m 1,0,-1
 314 560 l 1,1,-1
 52 628 l 1,2,-1
 104 734 l 1,3,-1
 347 630 l 1,0,-1
EndSplineSet
EndChar

StartChar: a
Encoding: 97 97 68
Width: 614
GlyphClass: 2
Flags: W
LayerCount: 2
Fore
SplineSet
506 0 m 1,0,-1
 335 0 l 1,1,-1
 506 0 l 1,0,-1
335 0 m 1,2,-1
 342 48 l 1,3,4
 303 16 303 16 266.5 3 c 128,-1,5
 230 -10 230 -10 193 -10 c 0,6,7
 101 -10 101 -10 51.5 57.5 c 128,-1,8
 2 125 2 125 21 261 c 0,9,10
 33 349 33 349 68.5 408.5 c 128,-1,11
 104 468 104 468 154.5 497.5 c 128,-1,12
 205 527 205 527 262 527 c 0,13,14
 303 527 303 527 339 511.5 c 128,-1,15
 375 496 375 496 400 471 c 1,16,-1
 407 517 l 1,17,-1
 579 517 l 1,18,-1
 506 0 l 1,19,-1
 335 0 l 1,2,-1
326.5 138 m 128,-1,21
 353 174 353 174 369 239 c 1,22,-1
 374 278 l 2,23,24
 383 344 383 344 365.5 379 c 128,-1,25
 348 414 348 414 308 414 c 0,26,27
 266 414 266 414 235 376 c 128,-1,28
 204 338 204 338 193 264 c 0,29,30
 182 189 182 189 203 145.5 c 128,-1,31
 224 102 224 102 266 102 c 0,32,20
 300 102 300 102 326.5 138 c 128,-1,21
EndSplineSet
Substitution2: "Single Substitution lookup 30 subtable" ordfeminine
Substitution2: "'aalt' Access All Alternates in Latin lookup 0 subtable" ordfeminine
EndChar

StartChar: b
Encoding: 98 98 69
Width: 612
GlyphClass: 2
Flags: W
LayerCount: 2
Fore
SplineSet
219 13 m 128,-1,1
 178 36 178 36 164 73 c 1,2,-1
 136 0 l 1,3,-1
 15 0 l 1,4,-1
 119 743 l 1,5,-1
 290 743 l 1,6,-1
 248 441 l 1,7,8
 277 481 277 481 320 504 c 128,-1,9
 363 527 363 527 408 527 c 0,10,11
 504 527 504 527 547.5 455.5 c 128,-1,12
 591 384 591 384 574 262 c 0,13,14
 556 137 556 137 487.5 63.5 c 128,-1,15
 419 -10 419 -10 313 -10 c 0,16,0
 260 -10 260 -10 219 13 c 128,-1,1
401 263 m 0,17,18
 412 340 412 340 392.5 372.5 c 128,-1,19
 373 405 373 405 331 405 c 0,20,21
 293 405 293 405 266 375.5 c 128,-1,22
 239 346 239 346 226 286 c 1,23,-1
 221 250 l 2,24,25
 211 182 211 182 229.5 146.5 c 128,-1,26
 248 111 248 111 286 111 c 0,27,28
 380 111 380 111 401 263 c 0,17,18
EndSplineSet
EndChar

StartChar: c
Encoding: 99 99 70
Width: 535
GlyphClass: 2
Flags: W
AnchorPoint: "Anchor-5" -46 0 basechar 0
AnchorPoint: "Anchor-4" 238 0 basechar 0
AnchorPoint: "Anchor-3" 239 517 basechar 0
AnchorPoint: "Anchor-2" -46 0 basechar 0
LayerCount: 2
Fore
SplineSet
423 499.5 m 128,-1,1
 467 472 467 472 487 425.5 c 128,-1,2
 507 379 507 379 504 323 c 1,3,-1
 366 320 l 1,4,5
 358 357 358 357 344 378.5 c 128,-1,6
 330 400 330 400 296 400 c 0,7,8
 250 400 250 400 218.5 363 c 128,-1,9
 187 326 187 326 177 258 c 0,10,11
 167 189 167 189 190 149 c 128,-1,12
 213 109 213 109 259 109 c 0,13,14
 293 109 293 109 314.5 132.5 c 128,-1,15
 336 156 336 156 351 189 c 1,16,-1
 484 186 l 1,17,18
 473 133 473 133 439.5 88 c 128,-1,19
 406 43 406 43 354 16.5 c 128,-1,20
 302 -10 302 -10 238 -10 c 0,21,22
 165 -10 165 -10 111.5 23.5 c 128,-1,23
 58 57 58 57 33.5 117.5 c 128,-1,24
 9 178 9 178 20 256 c 0,25,26
 31 335 31 335 72 396.5 c 128,-1,27
 113 458 113 458 176 492.5 c 128,-1,28
 239 527 239 527 313 527 c 0,29,0
 379 527 379 527 423 499.5 c 128,-1,1
EndSplineSet
EndChar

StartChar: d
Encoding: 100 100 71
Width: 612
GlyphClass: 2
Flags: W
AnchorPoint: "Anchor-5" 534 549 basechar 0
AnchorPoint: "Anchor-4" 249 0 basechar 0
AnchorPoint: "Anchor-3" -46 0 basechar 0
AnchorPoint: "Anchor-2" -46 0 basechar 0
LayerCount: 2
Fore
SplineSet
51 62 m 128,-1,1
 3 134 3 134 21 260 c 0,2,3
 38 384 38 384 101.5 455.5 c 128,-1,4
 165 527 165 527 262 527 c 0,5,6
 306 527 306 527 342 511 c 128,-1,7
 378 495 378 495 398 459 c 1,8,-1
 437 743 l 1,9,-1
 608 743 l 1,10,-1
 504 0 l 1,11,-1
 382 0 l 1,12,-1
 379 69 l 1,13,14
 354 37 354 37 308 13.5 c 128,-1,15
 262 -10 262 -10 203 -10 c 0,16,0
 99 -10 99 -10 51 62 c 128,-1,1
328 142 m 128,-1,18
 357 173 357 173 365 228 c 2,19,-1
 376 304 l 1,20,21
 378 357 378 357 358 381 c 128,-1,22
 338 405 338 405 301 405 c 0,23,24
 206 405 206 405 186 262 c 0,25,26
 175 183 175 183 196 147 c 128,-1,27
 217 111 217 111 260 111 c 0,28,17
 299 111 299 111 328 142 c 128,-1,18
EndSplineSet
EndChar

StartChar: e
Encoding: 101 101 72
Width: 564
GlyphClass: 2
Flags: W
AnchorPoint: "Anchor-5" -46 0 basechar 0
AnchorPoint: "Anchor-4" 242 0 basechar 0
AnchorPoint: "Anchor-3" 241 517 basechar 0
AnchorPoint: "Anchor-2" 364 24 basechar 0
LayerCount: 2
Fore
SplineSet
196.5 139.5 m 128,-1,1
 218 111 218 111 260 111 c 0,2,3
 294 111 294 111 318.5 124 c 128,-1,4
 343 137 343 137 360 168 c 1,5,-1
 510 165 l 1,6,7
 495 112 495 112 454 72.5 c 128,-1,8
 413 33 413 33 358.5 11.5 c 128,-1,9
 304 -10 304 -10 248 -10 c 0,10,11
 170 -10 170 -10 114.5 22.5 c 128,-1,12
 59 55 59 55 33.5 114.5 c 128,-1,13
 8 174 8 174 19 252 c 0,14,15
 30 329 30 329 69.5 391.5 c 128,-1,16
 109 454 109 454 172 490.5 c 128,-1,17
 235 527 235 527 314 527 c 0,18,19
 433 527 433 527 487 454 c 128,-1,20
 541 381 541 381 524 262 c 2,21,-1
 518 219 l 1,22,-1
 182 219 l 1,23,0
 175 168 175 168 196.5 139.5 c 128,-1,1
375 317 m 1,24,25
 381 357 381 357 361 383.5 c 128,-1,26
 341 410 341 410 298 410 c 0,27,28
 259 410 259 410 230 382 c 128,-1,29
 201 354 201 354 196 317 c 1,30,-1
 375 317 l 1,24,25
EndSplineSet
EndChar

StartChar: f
Encoding: 102 102 73
Width: 408
GlyphClass: 2
Flags: W
LayerCount: 2
Fore
SplineSet
390 400 m 1,0,-1
 289 400 l 1,1,-1
 210 -161 l 1,2,-1
 39 -161 l 1,3,-1
 118 400 l 1,4,-1
 29 400 l 1,5,-1
 46 517 l 1,6,-1
 135 517 l 1,7,-1
 145 589 l 2,8,9
 154 652 154 652 198.5 687.5 c 128,-1,10
 243 723 243 723 312 723 c 2,11,-1
 440 723 l 1,12,-1
 425 611 l 1,13,-1
 361 611 l 2,14,15
 335 611 335 611 323 599 c 128,-1,16
 311 587 311 587 307 557 c 2,17,-1
 302 517 l 1,18,-1
 407 517 l 1,19,-1
 390 400 l 1,0,-1
EndSplineSet
EndChar

StartChar: g
Encoding: 103 103 74
Width: 641
GlyphClass: 2
Flags: W
AnchorPoint: "Anchor-5" -46 0 basechar 0
AnchorPoint: "Anchor-4" -46 0 basechar 0
AnchorPoint: "Anchor-3" 268 517 basechar 0
AnchorPoint: "Anchor-2" -46 0 basechar 0
LayerCount: 2
Fore
SplineSet
31.5 -137 m 128,-1,1
 -39 -103 -39 -103 -32 -48 c 0,2,3
 -23 13 -23 13 28.5 27.5 c 128,-1,4
 80 42 80 42 83 43 c 1,5,6
 81 44 81 44 64 53 c 128,-1,7
 47 62 47 62 35 81.5 c 128,-1,8
 23 101 23 101 27 125 c 0,9,10
 31 156 31 156 63 179.5 c 128,-1,11
 95 203 95 203 151 212 c 1,12,13
 102 236 102 236 80.5 277 c 128,-1,14
 59 318 59 318 65 363 c 0,15,16
 72 413 72 413 110.5 450 c 128,-1,17
 149 487 149 487 210 506 c 128,-1,18
 271 525 271 525 341 525 c 0,19,20
 391 525 391 525 423.5 515 c 128,-1,21
 456 505 456 505 487 486 c 1,22,23
 494 489 494 489 506 493.5 c 128,-1,24
 518 498 518 498 534 503 c 2,25,-1
 657 550 l 1,26,-1
 639 425 l 1,27,-1
 548 411 l 1,28,29
 550 400 550 400 550.5 386.5 c 128,-1,30
 551 373 551 373 550 364 c 0,31,32
 544 319 544 319 510.5 279 c 128,-1,33
 477 239 477 239 418.5 214.5 c 128,-1,34
 360 190 360 190 283 190 c 2,35,-1
 223 192 l 1,36,37
 191 189 191 189 189 177 c 0,38,39
 188 167 188 167 204.5 164 c 128,-1,40
 221 161 221 161 272 157 c 2,41,-1
 377 151 l 2,42,43
 474 145 474 145 518 103.5 c 128,-1,44
 562 62 562 62 553 0 c 0,45,46
 542 -77 542 -77 461.5 -124 c 128,-1,47
 381 -171 381 -171 243 -171 c 0,48,0
 102 -171 102 -171 31.5 -137 c 128,-1,1
360 302.5 m 128,-1,50
 383 323 383 323 388 358 c 128,-1,51
 393 393 393 393 375.5 416 c 128,-1,52
 358 439 358 439 323 439 c 128,-1,53
 288 439 288 439 263.5 416 c 128,-1,54
 239 393 239 393 234 358 c 0,55,56
 229 324 229 324 247.5 303 c 128,-1,57
 266 282 266 282 301 282 c 0,58,49
 337 282 337 282 360 302.5 c 128,-1,50
360.5 -68 m 128,-1,60
 383 -57 383 -57 386 -34 c 0,61,62
 389 -14 389 -14 372.5 -1.5 c 128,-1,63
 356 11 356 11 322 13 c 2,64,-1
 217 20 l 2,65,66
 182 22 182 22 161 7 c 128,-1,67
 140 -8 140 -8 137 -28 c 0,68,69
 133 -56 133 -56 168 -67.5 c 128,-1,70
 203 -79 203 -79 283 -79 c 0,71,59
 338 -79 338 -79 360.5 -68 c 128,-1,60
EndSplineSet
EndChar

StartChar: h
Encoding: 104 104 75
Width: 617
GlyphClass: 2
Flags: W
AnchorPoint: "Anchor-5" -46 0 basechar 0
AnchorPoint: "Anchor-4" 264 0 basechar 0
AnchorPoint: "Anchor-3" 383 517 basechar 0
AnchorPoint: "Anchor-2" -46 0 basechar 0
LayerCount: 2
Fore
SplineSet
119 743 m 1,0,-1
 287 743 l 1,1,-1
 246 451 l 1,2,3
 277 477 277 477 295 489.5 c 128,-1,4
 313 502 313 502 339.5 510.5 c 128,-1,5
 366 519 366 519 404 519 c 0,6,7
 453 519 453 519 490.5 498 c 128,-1,8
 528 477 528 477 546 439 c 128,-1,9
 564 401 564 401 557 352 c 2,10,-1
 508 0 l 1,11,-1
 338 0 l 1,12,-1
 384 330 l 2,13,14
 388 356 388 356 370 372.5 c 128,-1,15
 352 389 352 389 323 389 c 0,16,17
 296 389 296 389 270.5 373.5 c 128,-1,18
 245 358 245 358 233 333 c 1,19,-1
 186 0 l 1,20,-1
 15 0 l 1,21,-1
 119 743 l 1,0,-1
EndSplineSet
EndChar

StartChar: i
Encoding: 105 105 76
Width: 296
GlyphClass: 2
Flags: W
LayerCount: 2
Fore
SplineSet
270 590 m 1,0,-1
 98 590 l 1,1,-1
 119 743 l 1,2,-1
 291 743 l 1,3,-1
 270 590 l 1,0,-1
187 0 m 1,4,-1
 16 0 l 1,5,-1
 89 517 l 1,6,-1
 260 517 l 1,7,-1
 187 0 l 1,4,-1
EndSplineSet
Substitution2: "Single Substitution lookup 28 subtable" dotlessi
Substitution2: "'locl' Localized Forms in Latin lookup 10 subtable" i.loclTRK
Substitution2: "'locl' Localized Forms in Latin lookup 9 subtable" i.loclTRK
Substitution2: "'locl' Localized Forms in Latin lookup 8 subtable" i.loclTRK
Substitution2: "'locl' Localized Forms in Latin lookup 7 subtable" i.loclTRK
Substitution2: "'locl' Localized Forms in Latin lookup 6 subtable" i.loclTRK
AlternateSubs2: "'aalt' Access All Alternates in Latin lookup 1 subtable" dotlessi i.loclTRK
EndChar

StartChar: j
Encoding: 106 106 77
Width: 303
GlyphClass: 2
Flags: W
LayerCount: 2
Fore
SplineSet
275 590 m 1,0,-1
 103 590 l 1,1,-1
 124 743 l 1,2,-1
 296 743 l 1,3,-1
 275 590 l 1,0,-1
128.5 -121 m 128,-1,5
 76 -166 76 -166 -21 -166 c 0,6,7
 -45 -166 -45 -166 -59 -162.5 c 128,-1,8
 -73 -159 -73 -159 -78.5 -155 c 128,-1,9
 -84 -151 -84 -151 -85 -150 c 2,10,-1
 -70 -37 l 1,11,-1
 -34 -32 l 2,12,13
 -4 -27 -4 -27 8 -16 c 128,-1,14
 20 -5 20 -5 23 17 c 2,15,-1
 94 517 l 1,16,-1
 265 517 l 1,17,-1
 194 16 l 2,18,4
 181 -76 181 -76 128.5 -121 c 128,-1,5
EndSplineSet
Substitution2: "Single Substitution lookup 28 subtable" uni0237
Substitution2: "'aalt' Access All Alternates in Latin lookup 0 subtable" uni0237
EndChar

StartChar: k
Encoding: 107 107 78
Width: 601
GlyphClass: 2
Flags: W
AnchorPoint: "Anchor-5" -46 0 basechar 0
AnchorPoint: "Anchor-4" 256 0 basechar 0
AnchorPoint: "Anchor-3" -46 0 basechar 0
AnchorPoint: "Anchor-2" -46 0 basechar 0
LayerCount: 2
Fore
SplineSet
368 0 m 1,0,-1
 268 207 l 1,1,-1
 207 148 l 1,2,-1
 186 0 l 1,3,-1
 15 0 l 1,4,-1
 119 743 l 1,5,-1
 290 743 l 1,6,-1
 230 314 l 1,7,-1
 434 517 l 1,8,-1
 605 517 l 1,9,-1
 387 307 l 1,10,-1
 536 0 l 1,11,-1
 368 0 l 1,0,-1
EndSplineSet
EndChar

StartChar: l
Encoding: 108 108 79
Width: 334
GlyphClass: 2
Flags: W
AnchorPoint: "Anchor-5" 327 758 basechar 0
AnchorPoint: "Anchor-4" 88 0 basechar 0
AnchorPoint: "Anchor-3" 100 765 basechar 0
AnchorPoint: "Anchor-2" -46 0 basechar 0
LayerCount: 2
Fore
SplineSet
79 13.5 m 128,-1,1
 42 36 42 36 35.5 69.5 c 128,-1,2
 29 103 29 103 36 151 c 2,3,-1
 119 743 l 1,4,-1
 287 743 l 1,5,-1
 207 173 l 2,6,7
 203 146 203 146 213 130.5 c 128,-1,8
 223 115 223 115 257 111 c 2,9,-1
 278 109 l 1,10,-1
 264 5 l 1,11,12
 225 -9 225 -9 196 -9 c 0,13,0
 116 -9 116 -9 79 13.5 c 128,-1,1
EndSplineSet
Substitution2: "'ss01' Style Set 1 in Latin lookup 27 subtable" l.ss01
Substitution2: "'salt' Stylistic Alternatives in Latin lookup 26 subtable" l.ss01
Substitution2: "'aalt' Access All Alternates in Latin lookup 0 subtable" l.ss01
EndChar

StartChar: m
Encoding: 109 109 80
Width: 933
GlyphClass: 2
Flags: W
LayerCount: 2
Fore
SplineSet
88 517 m 1,0,-1
 256 517 l 1,1,-1
 247 453 l 1,2,3
 288 485 288 485 329 506 c 128,-1,4
 370 527 370 527 423 527 c 0,5,6
 468 527 468 527 505 509 c 128,-1,7
 542 491 542 491 560 453 c 1,8,9
 591 487 591 487 637 507 c 128,-1,10
 683 527 683 527 728 527 c 0,11,12
 770 527 770 527 807 508 c 128,-1,13
 844 489 844 489 863.5 451 c 128,-1,14
 883 413 883 413 875 359 c 2,15,-1
 825 0 l 1,16,-1
 654 0 l 1,17,-1
 702 340 l 2,18,19
 706 372 706 372 687.5 388.5 c 128,-1,20
 669 405 669 405 639 405 c 0,21,22
 597 405 597 405 576 383.5 c 128,-1,23
 555 362 555 362 549 318 c 2,24,-1
 504 0 l 1,25,-1
 335 0 l 1,26,-1
 384 346 l 2,27,28
 388 373 388 373 368 389 c 128,-1,29
 348 405 348 405 318 405 c 0,30,31
 290 405 290 405 264 388.5 c 128,-1,32
 238 372 238 372 234 344 c 2,33,-1
 186 0 l 1,34,-1
 15 0 l 1,35,-1
 88 517 l 1,0,-1
EndSplineSet
EndChar

StartChar: n
Encoding: 110 110 81
Width: 618
GlyphClass: 2
Flags: W
AnchorPoint: "Anchor-5" -46 0 basechar 0
AnchorPoint: "Anchor-4" 262 0 basechar 0
AnchorPoint: "Anchor-3" 264 517 basechar 0
AnchorPoint: "Anchor-2" -46 0 basechar 0
LayerCount: 2
Fore
SplineSet
88 517 m 1,0,-1
 257 517 l 1,1,-1
 248 453 l 1,2,3
 282 486 282 486 314 503 c 128,-1,4
 346 520 346 520 401 520 c 0,5,6
 448 520 448 520 486.5 498 c 128,-1,7
 525 476 525 476 545 436 c 128,-1,8
 565 396 565 396 558 347 c 2,9,-1
 509 0 l 1,10,-1
 339 0 l 1,11,-1
 385 325 l 2,12,13
 389 354 389 354 370 371.5 c 128,-1,14
 351 389 351 389 321 389 c 0,15,16
 290 389 290 389 263 372.5 c 128,-1,17
 236 356 236 356 232 329 c 2,18,-1
 186 0 l 1,19,-1
 15 0 l 1,20,-1
 88 517 l 1,0,-1
EndSplineSet
EndChar

StartChar: o
Encoding: 111 111 82
Width: 572
GlyphClass: 2
Flags: W
AnchorPoint: "Anchor-5" -46 0 basechar 0
AnchorPoint: "Anchor-4" 238 0 basechar 0
AnchorPoint: "Anchor-3" 241 517 basechar 0
AnchorPoint: "Anchor-2" 314 10 basechar 0
LayerCount: 2
Fore
SplineSet
107.5 23.5 m 128,-1,1
 54 57 54 57 31.5 117.5 c 128,-1,2
 9 178 9 178 20 255 c 0,3,4
 31 335 31 335 72.5 397 c 128,-1,5
 114 459 114 459 176.5 493 c 128,-1,6
 239 527 239 527 315 527 c 0,7,8
 392 527 392 527 445 492 c 128,-1,9
 498 457 498 457 520.5 395.5 c 128,-1,10
 543 334 543 334 532 255 c 0,11,12
 521 178 521 178 481.5 118 c 128,-1,13
 442 58 442 58 379.5 24 c 128,-1,14
 317 -10 317 -10 239 -10 c 128,-1,0
 161 -10 161 -10 107.5 23.5 c 128,-1,1
331.5 157.5 m 128,-1,16
 358 200 358 200 367 261 c 128,-1,17
 376 322 376 322 361 363 c 128,-1,18
 346 404 346 404 298 404 c 0,19,20
 249 404 249 404 222 363 c 128,-1,21
 195 322 195 322 187 261 c 0,22,23
 178 200 178 200 193 157.5 c 128,-1,24
 208 115 208 115 257 115 c 0,25,15
 305 115 305 115 331.5 157.5 c 128,-1,16
EndSplineSet
Substitution2: "Single Substitution lookup 30 subtable" ordmasculine
Substitution2: "'aalt' Access All Alternates in Latin lookup 0 subtable" ordmasculine
EndChar

StartChar: p
Encoding: 112 112 83
Width: 612
GlyphClass: 2
Flags: W
LayerCount: 2
Fore
SplineSet
88 517 m 1,0,-1
 259 517 l 1,1,-1
 250 454 l 1,2,3
 282 490 282 490 322 508.5 c 128,-1,4
 362 527 362 527 407 527 c 0,5,6
 464 527 464 527 506 497.5 c 128,-1,7
 548 468 548 468 566.5 408.5 c 128,-1,8
 585 349 585 349 573 261 c 0,9,10
 560 169 560 169 521 108.5 c 128,-1,11
 482 48 482 48 427.5 19 c 128,-1,12
 373 -10 373 -10 312 -10 c 0,13,14
 225 -10 225 -10 194 57 c 1,15,-1
 163 -161 l 1,16,-1
 -8 -161 l 1,17,-1
 88 517 l 1,0,-1
370.5 149.5 m 128,-1,19
 404 188 404 188 415 261 c 0,20,21
 425 329 425 329 401.5 367 c 128,-1,22
 378 405 378 405 337 405 c 0,23,24
 312 405 312 405 288.5 390.5 c 128,-1,25
 265 376 265 376 249 353.5 c 128,-1,26
 233 331 233 331 229 308 c 2,27,-1
 214 202 l 1,28,29
 214 163 214 163 237.5 137 c 128,-1,30
 261 111 261 111 295 111 c 0,31,18
 337 111 337 111 370.5 149.5 c 128,-1,19
EndSplineSet
EndChar

StartChar: q
Encoding: 113 113 84
Width: 614
GlyphClass: 2
Flags: W
LayerCount: 2
Fore
SplineSet
312 -161 m 1,0,-1
 342 48 l 1,1,2
 303 16 303 16 266.5 3 c 128,-1,3
 230 -10 230 -10 193 -10 c 0,4,5
 101 -10 101 -10 51.5 57.5 c 128,-1,6
 2 125 2 125 21 261 c 0,7,8
 33 349 33 349 68.5 408.5 c 128,-1,9
 104 468 104 468 154.5 497.5 c 128,-1,10
 205 527 205 527 262 527 c 0,11,12
 303 527 303 527 339 511.5 c 128,-1,13
 375 496 375 496 400 471 c 1,14,-1
 407 517 l 1,15,-1
 579 517 l 1,16,-1
 483 -161 l 1,17,-1
 312 -161 l 1,0,-1
326.5 138 m 128,-1,19
 353 174 353 174 369 239 c 1,20,-1
 374 278 l 2,21,22
 383 344 383 344 365.5 379 c 128,-1,23
 348 414 348 414 308 414 c 0,24,25
 266 414 266 414 235 376 c 128,-1,26
 204 338 204 338 193 264 c 0,27,28
 182 189 182 189 203 145.5 c 128,-1,29
 224 102 224 102 266 102 c 0,30,18
 300 102 300 102 326.5 138 c 128,-1,19
EndSplineSet
EndChar

StartChar: r
Encoding: 114 114 85
Width: 435
GlyphClass: 2
Flags: W
AnchorPoint: "Anchor-5" -46 0 basechar 0
AnchorPoint: "Anchor-4" 110 0 basechar 0
AnchorPoint: "Anchor-3" 189 517 basechar 0
AnchorPoint: "Anchor-2" -46 0 basechar 0
LayerCount: 2
Fore
SplineSet
88 517 m 1,0,-1
 253 517 l 1,1,-1
 234 382 l 1,2,3
 264 446 264 446 315 486.5 c 128,-1,4
 366 527 366 527 431 527 c 1,5,-1
 409 366 l 1,6,7
 383 368 383 368 374 368 c 0,8,9
 301 368 301 368 265 338 c 128,-1,10
 229 308 229 308 223 263 c 2,11,-1
 186 0 l 1,12,-1
 15 0 l 1,13,-1
 88 517 l 1,0,-1
EndSplineSet
EndChar

StartChar: s
Encoding: 115 115 86
Width: 522
GlyphClass: 2
Flags: W
AnchorPoint: "Anchor-5" -46 0 basechar 0
AnchorPoint: "Anchor-4" 221 0 basechar 0
AnchorPoint: "Anchor-3" 220 517 basechar 0
AnchorPoint: "Anchor-2" -46 0 basechar 0
LayerCount: 2
Fore
SplineSet
67.5 31 m 128,-1,1
 6 72 6 72 3 158 c 1,2,-1
 144 160 l 1,3,4
 151 128 151 128 175.5 116.5 c 128,-1,5
 200 105 200 105 238 105 c 0,6,7
 277 105 277 105 300 116.5 c 128,-1,8
 323 128 323 128 326 147 c 0,9,10
 329 165 329 165 314 175.5 c 128,-1,11
 299 186 299 186 267 192 c 2,12,-1
 185 207 l 2,13,14
 30 236 30 236 48 361 c 0,15,16
 55 409 55 409 87 446.5 c 128,-1,17
 119 484 119 484 173 505.5 c 128,-1,18
 227 527 227 527 297 527 c 0,19,20
 365 527 365 527 413 506.5 c 128,-1,21
 461 486 461 486 482.5 448.5 c 128,-1,22
 504 411 504 411 496 361 c 1,23,-1
 357 360 l 1,24,25
 355 390 355 390 333 403.5 c 128,-1,26
 311 417 311 417 277 417 c 0,27,28
 204 417 204 417 197 373 c 0,29,30
 195 357 195 357 211.5 346.5 c 128,-1,31
 228 336 228 336 271 328 c 2,32,-1
 344 313 l 2,33,34
 424 293 424 293 450.5 247.5 c 128,-1,35
 477 202 477 202 471 156 c 0,36,37
 460 79 460 79 389.5 34.5 c 128,-1,38
 319 -10 319 -10 219 -10 c 0,39,0
 129 -10 129 -10 67.5 31 c 128,-1,1
EndSplineSet
EndChar

StartChar: t
Encoding: 116 116 87
Width: 437
GlyphClass: 2
Flags: W
AnchorPoint: "Anchor-5" 374 786 basechar 0
AnchorPoint: "Anchor-4" 218 0 basechar 0
AnchorPoint: "Anchor-3" -46 0 basechar 0
AnchorPoint: "Anchor-2" -46 0 basechar 0
LayerCount: 2
Fore
SplineSet
289 400 m 1,0,-1
 255 146 l 2,1,2
 252 125 252 125 260 117 c 128,-1,3
 268 109 268 109 285 109 c 2,4,-1
 363 109 l 1,5,-1
 349 8 l 1,6,7
 319 -7 319 -7 251 -7 c 0,8,9
 146 -7 146 -7 110 31 c 128,-1,10
 74 69 74 69 83 138 c 2,11,-1
 120 400 l 1,12,-1
 36 400 l 1,13,-1
 53 517 l 1,14,-1
 143 517 l 1,15,-1
 190 680 l 1,16,-1
 329 680 l 1,17,-1
 306 518 l 1,18,-1
 420 518 l 1,19,-1
 403 400 l 1,20,-1
 289 400 l 1,0,-1
EndSplineSet
EndChar

StartChar: u
Encoding: 117 117 88
Width: 618
GlyphClass: 2
Flags: W
AnchorPoint: "Anchor-5" -46 0 basechar 0
AnchorPoint: "Anchor-4" 262 0 basechar 0
AnchorPoint: "Anchor-3" 260 517 basechar 0
AnchorPoint: "Anchor-2" 482 10 basechar 0
LayerCount: 2
Fore
SplineSet
120 9.5 m 128,-1,1
 78 29 78 29 54 67 c 128,-1,2
 30 105 30 105 37 156 c 2,3,-1
 88 517 l 1,4,-1
 259 517 l 1,5,-1
 211 179 l 2,6,7
 207 148 207 148 225 130 c 128,-1,8
 243 112 243 112 276 112 c 0,9,10
 311 112 311 112 334.5 130.5 c 128,-1,11
 358 149 358 149 362 180 c 2,12,-1
 410 517 l 1,13,-1
 582 517 l 1,14,-1
 506 0 l 1,15,-1
 379 0 l 1,16,-1
 377 71 l 1,17,18
 350 32 350 32 300.5 11 c 128,-1,19
 251 -10 251 -10 206 -10 c 0,20,0
 162 -10 162 -10 120 9.5 c 128,-1,1
EndSplineSet
EndChar

StartChar: v
Encoding: 118 118 89
Width: 561
GlyphClass: 2
Flags: W
LayerCount: 2
Fore
SplineSet
291 0 m 1,0,-1
 179 0 l 1,1,-1
 41 517 l 1,2,-1
 194 517 l 1,3,-1
 266 221 l 1,4,-1
 420 517 l 1,5,-1
 575 517 l 1,6,-1
 291 0 l 1,0,-1
EndSplineSet
EndChar

StartChar: w
Encoding: 119 119 90
Width: 803
GlyphClass: 2
Flags: W
AnchorPoint: "Anchor-5" -46 0 basechar 0
AnchorPoint: "Anchor-4" -46 0 basechar 0
AnchorPoint: "Anchor-3" 360 517 basechar 0
AnchorPoint: "Anchor-2" -46 0 basechar 0
LayerCount: 2
Fore
SplineSet
566 0 m 1,0,-1
 440 0 l 1,1,-1
 392 282 l 1,2,-1
 262 0 l 1,3,-1
 141 0 l 1,4,-1
 42 517 l 1,5,-1
 191 517 l 1,6,-1
 241 231 l 1,7,-1
 369 517 l 1,8,-1
 488 517 l 1,9,-1
 533 231 l 1,10,-1
 663 517 l 1,11,-1
 816 517 l 1,12,-1
 566 0 l 1,0,-1
EndSplineSet
EndChar

StartChar: x
Encoding: 120 120 91
Width: 604
GlyphClass: 2
Flags: W
LayerCount: 2
Fore
SplineSet
368 0 m 1,0,-1
 278 153 l 1,1,-1
 144 0 l 1,2,-1
 -32 0 l 1,3,-1
 204 270 l 1,4,-1
 59 517 l 1,5,-1
 235 517 l 1,6,-1
 312 388 l 1,7,-1
 425 517 l 1,8,-1
 601 517 l 1,9,-1
 384 270 l 1,10,-1
 544 0 l 1,11,-1
 368 0 l 1,0,-1
EndSplineSet
EndChar

StartChar: y
Encoding: 121 121 92
Width: 586
GlyphClass: 2
Flags: W
AnchorPoint: "Anchor-5" -46 0 basechar 0
AnchorPoint: "Anchor-4" -46 0 basechar 0
AnchorPoint: "Anchor-3" 268 517 basechar 0
AnchorPoint: "Anchor-2" -46 0 basechar 0
LayerCount: 2
Fore
SplineSet
31 -160.5 m 128,-1,1
 8 -156 8 -156 -3 -151.5 c 128,-1,2
 -14 -147 -14 -147 -15 -145 c 2,3,-1
 0 -37 l 1,4,-1
 50 -40 l 2,5,6
 93 -43 93 -43 117 -34.5 c 128,-1,7
 141 -26 141 -26 149.5 -16 c 128,-1,8
 158 -6 158 -6 165 7 c 2,9,-1
 173 26 l 1,10,-1
 41 517 l 1,11,-1
 209 517 l 1,12,-1
 276 208 l 1,13,-1
 434 517 l 1,14,-1
 600 517 l 1,15,-1
 323 14 l 2,16,17
 284 -57 284 -57 246.5 -96.5 c 128,-1,18
 209 -136 209 -136 171 -150.5 c 128,-1,19
 133 -165 133 -165 87 -165 c 0,20,0
 54 -165 54 -165 31 -160.5 c 128,-1,1
EndSplineSet
EndChar

StartChar: z
Encoding: 122 122 93
Width: 521
GlyphClass: 2
Flags: W
AnchorPoint: "Anchor-5" -46 0 basechar 0
AnchorPoint: "Anchor-4" -46 0 basechar 0
AnchorPoint: "Anchor-3" 225 517 basechar 0
AnchorPoint: "Anchor-2" -46 0 basechar 0
LayerCount: 2
Fore
SplineSet
-9 84 m 1,0,-1
 292 411 l 1,1,-1
 59 411 l 1,2,-1
 74 517 l 1,3,-1
 521 517 l 1,4,-1
 509 436 l 1,5,-1
 207 107 l 1,6,-1
 465 107 l 1,7,-1
 450 0 l 1,8,-1
 -21 0 l 1,9,-1
 -9 84 l 1,0,-1
EndSplineSet
EndChar

StartChar: braceleft
Encoding: 123 123 94
Width: 401
GlyphClass: 2
Flags: W
LayerCount: 2
Fore
SplineSet
194 666.5 m 128,-1,1
 222 695 222 695 262 709 c 128,-1,2
 302 723 302 723 342 723 c 2,3,-1
 425 723 l 1,4,-1
 412 630 l 1,5,-1
 365 630 l 2,6,7
 325 630 325 630 312 617 c 128,-1,8
 299 604 299 604 295 578 c 2,9,-1
 268 386 l 2,10,11
 260 340 260 340 224.5 317 c 128,-1,12
 189 294 189 294 147 289 c 0,13,14
 141 288 141 288 140 286 c 128,-1,15
 139 284 139 284 146 283 c 0,16,17
 249 274 249 274 239 178 c 2,18,-1
 212 -15 l 2,19,20
 208 -44 208 -44 219.5 -56 c 128,-1,21
 231 -68 231 -68 266 -68 c 2,22,-1
 313 -68 l 1,23,-1
 300 -161 l 1,24,-1
 220 -161 l 2,25,26
 178 -161 178 -161 141.5 -147 c 128,-1,27
 105 -133 105 -133 85 -104.5 c 128,-1,28
 65 -76 65 -76 71 -35 c 2,29,-1
 99 163 l 2,30,31
 104 200 104 200 79 222.5 c 128,-1,32
 54 245 54 245 -3 245 c 1,33,-1
 9 327 l 1,34,35
 69 327 69 327 98.5 348 c 128,-1,36
 128 369 128 369 134 413 c 2,37,-1
 160 598 l 2,38,0
 166 638 166 638 194 666.5 c 128,-1,1
EndSplineSet
EndChar

StartChar: bar
Encoding: 124 124 95
Width: 267
GlyphClass: 2
Flags: W
LayerCount: 2
Fore
SplineSet
3 -161 m 1,0,-1
 142 826 l 1,1,-1
 264 826 l 1,2,-1
 125 -161 l 1,3,-1
 3 -161 l 1,0,-1
EndSplineSet
EndChar

StartChar: braceright
Encoding: 125 125 96
Width: 401
GlyphClass: 2
Flags: W
LayerCount: 2
Fore
SplineSet
228 -104.5 m 128,-1,1
 200 -133 200 -133 160 -147 c 128,-1,2
 120 -161 120 -161 80 -161 c 2,3,-1
 -3 -161 l 1,4,-1
 10 -68 l 1,5,-1
 57 -68 l 2,6,7
 97 -68 97 -68 110 -55 c 128,-1,8
 123 -42 123 -42 127 -16 c 2,9,-1
 154 176 l 2,10,11
 162 222 162 222 197.5 245 c 128,-1,12
 233 268 233 268 275 273 c 0,13,14
 281 274 281 274 282 276 c 128,-1,15
 283 278 283 278 276 279 c 0,16,17
 173 288 173 288 183 384 c 2,18,-1
 210 577 l 2,19,20
 214 606 214 606 202.5 618 c 128,-1,21
 191 630 191 630 156 630 c 2,22,-1
 109 630 l 1,23,-1
 122 723 l 1,24,-1
 202 723 l 2,25,26
 244 723 244 723 280.5 709 c 128,-1,27
 317 695 317 695 337 666.5 c 128,-1,28
 357 638 357 638 351 597 c 2,29,-1
 323 399 l 2,30,31
 318 362 318 362 343 339.5 c 128,-1,32
 368 317 368 317 425 317 c 1,33,-1
 413 235 l 1,34,35
 353 235 353 235 323.5 214 c 128,-1,36
 294 193 294 193 288 149 c 2,37,-1
 262 -36 l 2,38,0
 256 -76 256 -76 228 -104.5 c 128,-1,1
EndSplineSet
EndChar

StartChar: asciitilde
Encoding: 126 126 97
Width: 627
GlyphClass: 2
Flags: W
LayerCount: 2
Fore
SplineSet
492 304 m 128,-1,1
 447 278 447 278 402 278 c 0,2,3
 374 278 374 278 352.5 287 c 128,-1,4
 331 296 331 296 303 313 c 0,5,6
 277 329 277 329 259.5 336.5 c 128,-1,7
 242 344 242 344 221 344 c 0,8,9
 187 344 187 344 160 325 c 128,-1,10
 133 306 133 306 92 266 c 1,11,-1
 56 349 l 1,12,13
 110 399 110 399 151 423.5 c 128,-1,14
 192 448 192 448 238 448 c 0,15,16
 268 448 268 448 289 439 c 128,-1,17
 310 430 310 430 340 412 c 0,18,19
 364 397 364 397 379.5 390 c 128,-1,20
 395 383 395 383 414 383 c 0,21,22
 447 383 447 383 478 404.5 c 128,-1,23
 509 426 509 426 534 460 c 1,24,-1
 572 379 l 1,25,0
 537 330 537 330 492 304 c 128,-1,1
EndSplineSet
EndChar

StartChar: exclamdown
Encoding: 161 161 99
Width: 288
GlyphClass: 2
Flags: W
LayerCount: 2
Fore
SplineSet
51 343 m 1,0,-1
 76 517 l 1,1,-1
 259 517 l 1,2,-1
 234 343 l 1,3,-1
 51 343 l 1,0,-1
-27 -161 m 1,4,-1
 82 275 l 1,5,-1
 187 275 l 1,6,-1
 171 -161 l 1,7,-1
 -27 -161 l 1,4,-1
EndSplineSet
EndChar

StartChar: cent
Encoding: 162 162 100
Width: 561
GlyphClass: 2
Flags: W
AnchorPoint: "Anchor-1" 248 628 basechar 0
AnchorPoint: "Anchor-0" 247 111 basechar 0
LayerCount: 2
Fore
SplineSet
339.5 243.5 m 128,-1,1
 361 267 361 267 375 300 c 1,2,-1
 509 297 l 1,3,4
 495 230 495 230 446 178 c 128,-1,5
 397 126 397 126 325 108 c 1,6,-1
 310 0 l 1,7,-1
 201 0 l 1,8,-1
 216 105 l 1,9,10
 156 115 156 115 114 150.5 c 128,-1,11
 72 186 72 186 53.5 242 c 128,-1,12
 35 298 35 298 45 367 c 0,13,14
 60 473 60 473 127 545.5 c 128,-1,15
 194 618 194 618 290 634 c 1,16,-1
 303 723 l 1,17,-1
 412 723 l 1,18,-1
 399 631 l 1,19,20
 467 614 467 614 500 560 c 128,-1,21
 533 506 533 506 529 434 c 1,22,-1
 391 431 l 1,23,24
 383 468 383 468 369 489.5 c 128,-1,25
 355 511 355 511 321 511 c 0,26,27
 275 511 275 511 243 474 c 128,-1,28
 211 437 211 437 202 369 c 0,29,30
 192 300 192 300 215 260 c 128,-1,31
 238 220 238 220 284 220 c 0,32,0
 318 220 318 220 339.5 243.5 c 128,-1,1
EndSplineSet
EndChar

StartChar: sterling
Encoding: 163 163 101
Width: 657
GlyphClass: 2
Flags: W
LayerCount: 2
Fore
SplineSet
-8 140 m 1,0,-1
 24 140 l 2,1,2
 108 140 108 140 120 228 c 0,3,4
 123 250 123 250 124 275.5 c 128,-1,5
 125 301 125 301 125 336 c 1,6,-1
 23 336 l 1,7,-1
 36 427 l 1,8,-1
 119 427 l 1,9,-1
 124 521 l 2,10,11
 124 529 124 529 126 544 c 0,12,13
 134 604 134 604 173 646.5 c 128,-1,14
 212 689 212 689 269 711 c 128,-1,15
 326 733 326 733 389 733 c 0,16,17
 475 733 475 733 534 693 c 128,-1,18
 593 653 593 653 614 578 c 1,19,-1
 460 535 l 1,20,21
 450 570 450 570 436 585 c 128,-1,22
 422 600 422 600 396 600 c 0,23,24
 367 600 367 600 347 581 c 128,-1,25
 327 562 327 562 322 528 c 128,-1,26
 317 494 317 494 321 428 c 1,27,-1
 461 428 l 1,28,-1
 448 337 l 1,29,-1
 320 337 l 1,30,31
 318 305 318 305 316 294 c 0,32,33
 312 262 312 262 300 235 c 0,34,35
 290 204 290 204 274.5 184.5 c 128,-1,36
 259 165 259 165 229 141 c 1,37,-1
 346 141 l 2,38,39
 392 141 392 141 416.5 158 c 128,-1,40
 441 175 441 175 463 220 c 1,41,-1
 602 191 l 1,42,43
 526 0 526 0 340 0 c 2,44,-1
 -28 0 l 1,45,-1
 -8 140 l 1,0,-1
EndSplineSet
EndChar

StartChar: currency
Encoding: 164 164 102
Width: 591
GlyphClass: 2
Flags: W
LayerCount: 2
Fore
SplineSet
154 167 m 0,0,1
 148 169 148 169 147 169 c 0,2,3
 142 169 142 169 137 165 c 2,4,-1
 66 103 l 1,5,-1
 8 174 l 1,6,-1
 87 242 l 1,7,8
 72 271 72 271 67.5 299.5 c 128,-1,9
 63 328 63 328 68 363 c 0,10,11
 77 427 77 427 114 477 c 0,12,13
 118 482 118 482 118 485 c 128,-1,14
 118 488 118 488 114 493 c 2,15,-1
 62 555 l 1,16,-1
 140 626 l 1,17,-1
 200 555 l 1,18,19
 266 593 266 593 327 593 c 0,20,21
 390 593 390 593 443 559 c 0,22,23
 450 556 450 556 454 560 c 2,24,-1
 518 618 l 1,25,-1
 577 547 l 1,26,-1
 505 486 l 1,27,28
 534 429 534 429 525 364 c 0,29,30
 515 295 515 295 475 246 c 0,31,32
 472 241 472 241 474 239 c 2,33,-1
 525 181 l 1,34,-1
 447 111 l 1,35,-1
 394 173 l 1,36,37
 330 135 330 135 267 135 c 0,38,39
 202 135 202 135 154 167 c 0,0,1
370.5 279.5 m 128,-1,41
 410 315 410 315 417 364 c 0,42,43
 421 395 421 395 409.5 423 c 128,-1,44
 398 451 398 451 373 467.5 c 128,-1,45
 348 484 348 484 314 484 c 128,-1,46
 280 484 280 484 250 467.5 c 128,-1,47
 220 451 220 451 200.5 423 c 128,-1,48
 181 395 181 395 176 364 c 0,49,50
 172 332 172 332 184 304.5 c 128,-1,51
 196 277 196 277 221 260.5 c 128,-1,52
 246 244 246 244 280 244 c 0,53,40
 331 244 331 244 370.5 279.5 c 128,-1,41
EndSplineSet
EndChar

StartChar: yen
Encoding: 165 165 103
Width: 674
GlyphClass: 2
Flags: W
LayerCount: 2
Fore
SplineSet
462 353 m 1,0,-1
 589 353 l 1,1,-1
 576 263 l 1,2,-1
 428 263 l 1,3,-1
 418 191 l 1,4,-1
 566 191 l 1,5,-1
 553 103 l 1,6,-1
 405 103 l 1,7,-1
 391 0 l 1,8,-1
 197 0 l 1,9,-1
 211 103 l 1,10,-1
 64 103 l 1,11,-1
 77 191 l 1,12,-1
 224 191 l 1,13,-1
 234 263 l 1,14,-1
 87 263 l 1,15,-1
 99 352 l 1,16,-1
 215 352 l 1,17,-1
 42 723 l 1,18,-1
 263 723 l 1,19,-1
 377 452 l 1,20,-1
 565 723 l 1,21,-1
 743 723 l 1,22,-1
 462 353 l 1,0,-1
EndSplineSet
EndChar

StartChar: brokenbar
Encoding: 166 166 104
Width: 267
GlyphClass: 2
Flags: W
LayerCount: 2
Fore
SplineSet
84 415 m 1,0,-1
 142 826 l 1,1,-1
 264 826 l 1,2,-1
 206 415 l 1,3,-1
 84 415 l 1,0,-1
3 -161 m 1,4,-1
 61 250 l 1,5,-1
 183 250 l 1,6,-1
 125 -161 l 1,7,-1
 3 -161 l 1,4,-1
EndSplineSet
EndChar

StartChar: section
Encoding: 167 167 105
Width: 517
GlyphClass: 2
Flags: W
LayerCount: 2
Fore
SplineSet
54.5 -46.5 m 128,-1,1
 -4 -13 -4 -13 -20 36 c 1,2,-1
 90 87 l 1,3,4
 110 56 110 56 137.5 38 c 128,-1,5
 165 20 165 20 211 20 c 0,6,7
 248 20 248 20 271 32 c 128,-1,8
 294 44 294 44 297 67 c 0,9,10
 300 85 300 85 286.5 99.5 c 128,-1,11
 273 114 273 114 236 128 c 2,12,-1
 168 155 l 2,13,14
 86 187 86 187 54 224.5 c 128,-1,15
 22 262 22 262 30 321 c 0,16,17
 36 366 36 366 63 399.5 c 128,-1,18
 90 433 90 433 132 453 c 1,19,20
 96 478 96 478 82 507 c 128,-1,21
 68 536 68 536 73 572 c 0,22,23
 79 618 79 618 110 654.5 c 128,-1,24
 141 691 141 691 191.5 712 c 128,-1,25
 242 733 242 733 305 733 c 0,26,27
 381 733 381 733 435.5 700 c 128,-1,28
 490 667 490 667 506 620 c 1,29,-1
 396 570 l 1,30,31
 372 600 372 600 350 616 c 128,-1,32
 328 632 328 632 295 632 c 0,33,34
 266 632 266 632 247.5 620.5 c 128,-1,35
 229 609 229 609 226 589 c 0,36,37
 222 563 222 563 267 545 c 2,38,-1
 338 517 l 2,39,40
 422 483 422 483 454.5 445 c 128,-1,41
 487 407 487 407 479 347 c 0,42,43
 467 263 467 263 382 216 c 1,44,45
 423 191 423 191 439.5 161.5 c 128,-1,46
 456 132 456 132 450 90 c 0,47,48
 439 13 439 13 374 -33.5 c 128,-1,49
 309 -80 309 -80 201 -80 c 0,50,0
 113 -80 113 -80 54.5 -46.5 c 128,-1,1
317 278.5 m 128,-1,52
 334 293 334 293 337 316 c 0,53,54
 340 338 340 338 326 354.5 c 128,-1,55
 312 371 312 371 275 386 c 2,56,-1
 237 401 l 1,57,58
 208 399 208 399 190.5 383.5 c 128,-1,59
 173 368 173 368 170 346 c 0,60,61
 167 326 167 326 179 314 c 128,-1,62
 191 302 191 302 234 285 c 2,63,-1
 277 267 l 1,64,51
 300 264 300 264 317 278.5 c 128,-1,52
EndSplineSet
EndChar

StartChar: dieresis
Encoding: 168 168 106
Width: 402
GlyphClass: 2
Flags: W
LayerCount: 2
Fore
SplineSet
200 591 m 1,0,-1
 53 591 l 1,1,-1
 72 723 l 1,2,-1
 219 723 l 1,3,-1
 200 591 l 1,0,-1
415 591 m 1,4,-1
 267 591 l 1,5,-1
 286 723 l 1,6,-1
 434 723 l 1,7,-1
 415 591 l 1,4,-1
EndSplineSet
EndChar

StartChar: copyright
Encoding: 169 169 107
Width: 829
GlyphClass: 2
Flags: W
LayerCount: 2
Fore
SplineSet
184 40 m 128,-1,1
 106 90 106 90 68 175 c 128,-1,2
 30 260 30 260 44 362 c 0,3,4
 58 462 58 462 120 547.5 c 128,-1,5
 182 633 182 633 274 683 c 128,-1,6
 366 733 366 733 467 733 c 128,-1,7
 568 733 568 733 646.5 683 c 128,-1,8
 725 633 725 633 763 547.5 c 128,-1,9
 801 462 801 462 787 362 c 0,10,11
 773 260 773 260 711 175 c 128,-1,12
 649 90 649 90 556.5 40 c 128,-1,13
 464 -10 464 -10 363 -10 c 128,-1,0
 262 -10 262 -10 184 40 c 128,-1,1
522 114.5 m 128,-1,15
 589 149 589 149 632.5 213 c 128,-1,16
 676 277 676 277 688 362 c 0,17,18
 700 446 700 446 674.5 510 c 128,-1,19
 649 574 649 574 592 609.5 c 128,-1,20
 535 645 535 645 455 645 c 0,21,22
 374 645 374 645 307.5 609.5 c 128,-1,23
 241 574 241 574 198 510 c 128,-1,24
 155 446 155 446 143 362 c 0,25,26
 131 277 131 277 156 213 c 128,-1,27
 181 149 181 149 237.5 114.5 c 128,-1,28
 294 80 294 80 375 80 c 0,29,14
 455 80 455 80 522 114.5 c 128,-1,15
559.5 528.5 m 128,-1,31
 600 487 600 487 607 432 c 1,32,-1
 489 423 l 1,33,34
 485 451 485 451 474.5 468 c 128,-1,35
 464 485 464 485 439 485 c 0,36,37
 405 485 405 485 381.5 455 c 128,-1,38
 358 425 358 425 349 364 c 0,39,40
 332 242 332 242 412 242 c 0,41,42
 443 242 443 242 464 259 c 128,-1,43
 485 276 485 276 506 309 c 1,44,-1
 586 291 l 1,45,46
 575 263 575 263 549.5 232.5 c 128,-1,47
 524 202 524 202 483 179.5 c 128,-1,48
 442 157 442 157 389 157 c 0,49,50
 331 157 331 157 288 183 c 128,-1,51
 245 209 245 209 225.5 255.5 c 128,-1,52
 206 302 206 302 215 362 c 0,53,54
 224 423 224 423 256.5 470.5 c 128,-1,55
 289 518 289 518 339 544 c 128,-1,56
 389 570 389 570 447 570 c 0,57,30
 519 570 519 570 559.5 528.5 c 128,-1,31
EndSplineSet
EndChar

StartChar: ordfeminine
Encoding: 170 170 108
Width: 411
GlyphClass: 2
Flags: W
LayerCount: 2
Fore
SplineSet
71.5 423 m 128,-1,1
 47 448 47 448 53 490 c 0,2,3
 60 539 60 539 111.5 570.5 c 128,-1,4
 163 602 163 602 243 603 c 2,5,-1
 274 604 l 1,6,-1
 277 625 l 2,7,8
 280 648 280 648 268.5 657 c 128,-1,9
 257 666 257 666 239 666 c 0,10,11
 196 666 196 666 174 626 c 1,12,-1
 83 645 l 1,13,14
 110 690 110 690 147.5 711.5 c 128,-1,15
 185 733 185 733 251 733 c 0,16,17
 329 732 329 732 358.5 706.5 c 128,-1,18
 388 681 388 681 381 631 c 2,19,-1
 363 502 l 2,20,21
 355 447 355 447 356 430 c 2,22,-1
 360 404 l 1,23,-1
 253 404 l 1,24,-1
 250 435 l 1,25,26
 219 415 219 415 197 406.5 c 128,-1,27
 175 398 175 398 147 398 c 0,28,0
 96 398 96 398 71.5 423 c 128,-1,1
243 478 m 0,29,30
 258 489 258 489 260 502 c 2,31,-1
 266 548 l 1,32,-1
 240 548 l 2,33,34
 207 546 207 546 185 532.5 c 128,-1,35
 163 519 163 519 160 497 c 0,36,37
 158 482 158 482 168 472.5 c 128,-1,38
 178 463 178 463 199 463 c 0,39,40
 224 463 224 463 243 478 c 0,29,30
EndSplineSet
EndChar

StartChar: guillemotleft
Encoding: 171 171 109
Width: 511
GlyphClass: 2
Flags: W
LayerCount: 2
Fore
SplineSet
215 62 m 1,0,-1
 126 62 l 1,1,-1
 39 251 l 1,2,-1
 179 448 l 1,3,-1
 269 448 l 1,4,-1
 168 251 l 1,5,-1
 215 62 l 1,0,-1
411 62 m 1,6,-1
 323 62 l 1,7,-1
 235 251 l 1,8,-1
 376 448 l 1,9,-1
 466 448 l 1,10,-1
 365 251 l 1,11,-1
 411 62 l 1,6,-1
EndSplineSet
EndChar

StartChar: logicalnot
Encoding: 172 172 110
Width: 596
GlyphClass: 2
Flags: W
LayerCount: 2
Fore
SplineSet
554 425 m 1,0,-1
 515 148 l 1,1,-1
 378 148 l 1,2,-1
 400 303 l 1,3,-1
 46 303 l 1,4,-1
 63 425 l 1,5,-1
 554 425 l 1,0,-1
EndSplineSet
EndChar

StartChar: uni00AD
Encoding: 173 173 111
Width: 393
GlyphClass: 2
Flags: W
LayerCount: 2
Fore
SplineSet
333 196 m 1,0,-1
 52 196 l 1,1,-1
 69 318 l 1,2,-1
 350 318 l 1,3,-1
 333 196 l 1,0,-1
EndSplineSet
EndChar

StartChar: registered
Encoding: 174 174 112
Width: 551
GlyphClass: 2
Flags: W
LayerCount: 2
Fore
SplineSet
150.5 299 m 128,-1,1
 101 330 101 330 77.5 383 c 128,-1,2
 54 436 54 436 63 500 c 128,-1,3
 72 564 72 564 110.5 617 c 128,-1,4
 149 670 149 670 207 701.5 c 128,-1,5
 265 733 265 733 329 733 c 0,6,7
 392 733 392 733 441 701.5 c 128,-1,8
 490 670 490 670 513.5 616.5 c 128,-1,9
 537 563 537 563 528 500 c 128,-1,10
 519 437 519 437 480.5 383.5 c 128,-1,11
 442 330 442 330 384.5 299 c 128,-1,12
 327 268 327 268 264 268 c 0,13,0
 200 268 200 268 150.5 299 c 128,-1,1
397.5 378 m 128,-1,15
 448 424 448 424 458 500 c 0,16,17
 469 577 469 577 431 623 c 128,-1,18
 393 669 393 669 320 669 c 0,19,20
 245 669 245 669 194.5 623 c 128,-1,21
 144 577 144 577 133 500 c 128,-1,22
 122 423 122 423 160 377.5 c 128,-1,23
 198 332 198 332 273 332 c 0,24,14
 347 332 347 332 397.5 378 c 128,-1,15
216 614 m 1,25,-1
 326 614 l 2,26,27
 369 614 369 614 391 597.5 c 128,-1,28
 413 581 413 581 408 551 c 0,29,30
 405 530 405 530 390.5 514 c 128,-1,31
 376 498 376 498 355 489 c 1,32,-1
 385 384 l 1,33,-1
 316 384 l 1,34,-1
 296 482 l 1,35,-1
 262 482 l 1,36,-1
 248 384 l 1,37,-1
 184 384 l 1,38,-1
 216 614 l 1,25,-1
312 525 m 2,39,40
 324 525 324 525 332.5 531.5 c 128,-1,41
 341 538 341 538 342 548 c 0,42,43
 344 559 344 559 336.5 565 c 128,-1,44
 329 571 329 571 315 571 c 2,45,-1
 274 571 l 1,46,-1
 268 525 l 1,47,-1
 312 525 l 2,39,40
EndSplineSet
EndChar

StartChar: macron
Encoding: 175 175 113
Width: 416
GlyphClass: 2
Flags: W
LayerCount: 2
Fore
SplineSet
432 614 m 1,0,-1
 56 614 l 1,1,-1
 71 720 l 1,2,-1
 447 720 l 1,3,-1
 432 614 l 1,0,-1
EndSplineSet
EndChar

StartChar: degree
Encoding: 176 176 114
Width: 473
GlyphClass: 2
Flags: W
LayerCount: 2
Fore
SplineSet
416 574 m 128,-1,1
 388 535 388 535 346 513 c 128,-1,2
 304 491 304 491 255 491 c 128,-1,3
 206 491 206 491 170 513 c 128,-1,4
 134 535 134 535 117 574 c 128,-1,5
 100 613 100 613 107 663 c 0,6,7
 114 712 114 712 142 751.5 c 128,-1,8
 170 791 170 791 212 813.5 c 128,-1,9
 254 836 254 836 303 836 c 0,10,11
 351 836 351 836 387.5 813.5 c 128,-1,12
 424 791 424 791 441 751.5 c 128,-1,13
 458 712 458 712 451 663 c 0,14,0
 444 613 444 613 416 574 c 128,-1,1
340.5 718.5 m 128,-1,16
 323 740 323 740 288 740 c 0,17,18
 254 740 254 740 230.5 719 c 128,-1,19
 207 698 207 698 202 664 c 0,20,21
 197 628 197 628 214.5 605.5 c 128,-1,22
 232 583 232 583 267 583 c 0,23,24
 301 583 301 583 324.5 605 c 128,-1,25
 348 627 348 627 353 662 c 128,-1,15
 358 697 358 697 340.5 718.5 c 128,-1,16
EndSplineSet
EndChar

StartChar: plusminus
Encoding: 177 177 115
Width: 596
GlyphClass: 2
Flags: W
LayerCount: 2
Fore
SplineSet
566 514 m 1,0,-1
 549 392 l 1,1,-1
 365 392 l 1,2,-1
 339 208 l 1,3,-1
 217 208 l 1,4,-1
 243 392 l 1,5,-1
 58 392 l 1,6,-1
 75 514 l 1,7,-1
 260 514 l 1,8,-1
 286 699 l 1,9,-1
 408 699 l 1,10,-1
 382 514 l 1,11,-1
 566 514 l 1,0,-1
24 147 m 1,12,-1
 515 147 l 1,13,-1
 498 25 l 1,14,-1
 7 25 l 1,15,-1
 24 147 l 1,12,-1
EndSplineSet
EndChar

StartChar: uni00B2
Encoding: 178 178 116
Width: 389
GlyphClass: 2
Flags: W
LayerCount: 2
Fore
SplineSet
30 461 m 1,0,-1
 188 583 l 2,1,2
 236 620 236 620 258.5 639 c 128,-1,3
 281 658 281 658 290.5 672 c 128,-1,4
 300 686 300 686 302 703 c 0,5,6
 306 728 306 728 290.5 743 c 128,-1,7
 275 758 275 758 248 758 c 0,8,9
 219 758 219 758 194.5 741.5 c 128,-1,10
 170 725 170 725 156 690 c 1,11,-1
 57 693 l 1,12,13
 72 762 72 762 124.5 803.5 c 128,-1,14
 177 845 177 845 262 845 c 0,15,16
 341 845 341 845 381.5 806.5 c 128,-1,17
 422 768 422 768 413 704 c 0,18,19
 408 669 408 669 387.5 641.5 c 128,-1,20
 367 614 367 614 316 572 c 2,21,-1
 196 473 l 1,22,-1
 386 473 l 1,23,-1
 373 384 l 1,24,-1
 19 384 l 1,25,-1
 30 461 l 1,0,-1
EndSplineSet
EndChar

StartChar: uni00B3
Encoding: 179 179 117
Width: 404
GlyphClass: 2
Flags: W
LayerCount: 2
Fore
SplineSet
145.5 813 m 128,-1,1
 206 845 206 845 289 845 c 0,2,3
 365 845 365 845 412 811.5 c 128,-1,4
 459 778 459 778 451 725 c 0,5,6
 441 656 441 656 355 627 c 1,7,8
 394 617 394 617 418 589 c 128,-1,9
 442 561 442 561 436 517 c 0,10,11
 430 474 430 474 397 442.5 c 128,-1,12
 364 411 364 411 316.5 394.5 c 128,-1,13
 269 378 269 378 222 378 c 0,14,15
 129 378 129 378 82.5 409 c 128,-1,16
 36 440 36 440 42 519 c 1,17,-1
 144 522 l 1,18,19
 149 490 149 490 172 476.5 c 128,-1,20
 195 463 195 463 226 463 c 0,21,22
 263 463 263 463 288.5 478.5 c 128,-1,23
 314 494 314 494 317 517 c 0,24,25
 320 541 320 541 301.5 557.5 c 128,-1,26
 283 574 283 574 251 575 c 2,27,-1
 189 575 l 1,28,-1
 201 659 l 1,29,-1
 255 661 l 2,30,31
 287 662 287 662 310 678 c 128,-1,32
 333 694 333 694 336 716 c 0,33,34
 339 736 339 736 319.5 749.5 c 128,-1,35
 300 763 300 763 274 763 c 0,36,37
 236 763 236 763 209.5 751 c 128,-1,38
 183 739 183 739 171 704 c 1,39,-1
 72 707 l 1,40,0
 85 781 85 781 145.5 813 c 128,-1,1
EndSplineSet
EndChar

StartChar: acute
Encoding: 180 180 118
Width: 324
GlyphClass: 2
Flags: W
LayerCount: 2
Fore
SplineSet
349 628 m 1,0,-1
 69 560 l 1,1,-1
 55 630 l 1,2,-1
 327 734 l 1,3,-1
 349 628 l 1,0,-1
EndSplineSet
EndChar

StartChar: paragraph
Encoding: 182 182 119
Width: 624
GlyphClass: 2
Flags: W
LayerCount: 2
Fore
SplineSet
541 629 m 1,0,-1
 441 -83 l 1,1,-1
 339 -83 l 1,2,-1
 439 629 l 1,3,-1
 377 629 l 1,4,-1
 277 -83 l 1,5,-1
 175 -83 l 1,6,-1
 229 299 l 1,7,8
 142 308 142 308 92 362 c 128,-1,9
 42 416 42 416 56 510 c 0,10,11
 64 570 64 570 98.5 618.5 c 128,-1,12
 133 667 133 667 190 695 c 128,-1,13
 247 723 247 723 320 723 c 2,14,-1
 618 723 l 1,15,-1
 604 629 l 1,16,-1
 541 629 l 1,0,-1
EndSplineSet
EndChar

StartChar: periodcentered
Encoding: 183 183 120
Width: 281
GlyphClass: 2
Flags: W
LayerCount: 2
Fore
SplineSet
211 285 m 1,0,-1
 46 285 l 1,1,-1
 68 444 l 1,2,-1
 233 444 l 1,3,-1
 211 285 l 1,0,-1
EndSplineSet
EndChar

StartChar: cedilla
Encoding: 184 184 121
Width: 286
GlyphClass: 2
Flags: W
LayerCount: 2
Fore
SplineSet
152.5 -193 m 128,-1,1
 113 -216 113 -216 61 -216 c 0,2,3
 -17 -216 -17 -216 -59 -188 c 1,4,-1
 -30 -134 l 1,5,6
 10 -159 10 -159 48 -159 c 0,7,8
 70 -159 70 -159 84 -151.5 c 128,-1,9
 98 -144 98 -144 100 -131 c 0,10,11
 103 -111 103 -111 84 -101 c 128,-1,12
 65 -91 65 -91 18 -91 c 0,13,14
 11 -91 11 -91 9 -89 c 128,-1,15
 7 -87 7 -87 11 -80 c 2,16,-1
 60 5 l 1,17,-1
 132 5 l 1,18,-1
 102 -53 l 1,19,20
 156 -54 156 -54 179 -78 c 128,-1,21
 202 -102 202 -102 197 -133 c 0,22,0
 192 -170 192 -170 152.5 -193 c 128,-1,1
EndSplineSet
EndChar

StartChar: uni00B9
Encoding: 185 185 122
Width: 306
GlyphClass: 2
Flags: W
LayerCount: 2
Fore
SplineSet
125 717 m 1,0,-1
 44 697 l 1,1,-1
 54 769 l 1,2,-1
 196 835 l 1,3,-1
 251 835 l 1,4,-1
 187 380 l 1,5,-1
 78 380 l 1,6,-1
 125 717 l 1,0,-1
EndSplineSet
EndChar

StartChar: ordmasculine
Encoding: 186 186 123
Width: 394
GlyphClass: 2
Flags: W
LayerCount: 2
Fore
SplineSet
368 685.5 m 128,-1,1
 408 638 408 638 397 564 c 0,2,3
 387 491 387 491 334 444.5 c 128,-1,4
 281 398 281 398 206 398 c 0,5,6
 132 398 132 398 92.5 444.5 c 128,-1,7
 53 491 53 491 63 564 c 0,8,9
 70 614 70 614 97 652 c 128,-1,10
 124 690 124 690 165 711.5 c 128,-1,11
 206 733 206 733 253 733 c 0,12,0
 328 733 328 733 368 685.5 c 128,-1,1
197 639 m 128,-1,14
 180 615 180 615 174 566 c 0,15,16
 167 517 167 517 177 493 c 128,-1,17
 187 469 187 469 216 469 c 0,18,19
 274 469 274 469 288 566 c 128,-1,20
 302 663 302 663 243 663 c 0,21,13
 214 663 214 663 197 639 c 128,-1,14
EndSplineSet
EndChar

StartChar: guillemotright
Encoding: 187 187 124
Width: 511
GlyphClass: 2
Flags: W
LayerCount: 2
Fore
SplineSet
71 448 m 1,0,-1
 161 448 l 1,1,-1
 245 251 l 1,2,-1
 106 62 l 1,3,-1
 17 62 l 1,4,-1
 116 251 l 1,5,-1
 71 448 l 1,0,-1
267 448 m 1,6,-1
 357 448 l 1,7,-1
 441 251 l 1,8,-1
 303 62 l 1,9,-1
 213 62 l 1,10,-1
 313 251 l 1,11,-1
 267 448 l 1,6,-1
EndSplineSet
EndChar

StartChar: onequarter
Encoding: 188 188 125
Width: 980
GlyphClass: 2
Flags: W
LayerCount: 2
Fore
SplineSet
110 613 m 1,0,-1
 29 593 l 1,1,-1
 39 665 l 1,2,-1
 181 731 l 1,3,-1
 236 731 l 1,4,-1
 172 276 l 1,5,-1
 63 276 l 1,6,-1
 110 613 l 1,0,-1
184 -4 m 1,7,-1
 89 -2 l 1,8,-1
 680 731 l 1,9,-1
 774 731 l 1,10,-1
 184 -4 l 1,7,-1
894 455 m 1,11,-1
 856 185 l 1,12,-1
 922 185 l 1,13,-1
 910 94 l 1,14,-1
 843 94 l 1,15,-1
 830 0 l 1,16,-1
 722 0 l 1,17,-1
 736 94 l 1,18,-1
 534 94 l 1,19,-1
 547 182 l 1,20,-1
 788 455 l 1,21,-1
 894 455 l 1,11,-1
750 185 m 1,22,-1
 767 308 l 1,23,-1
 658 185 l 1,24,-1
 750 185 l 1,22,-1
EndSplineSet
EndChar

StartChar: onehalf
Encoding: 189 189 126
Width: 949
GlyphClass: 2
Flags: W
LayerCount: 2
Fore
SplineSet
110 613 m 1,0,-1
 29 593 l 1,1,-1
 39 665 l 1,2,-1
 181 731 l 1,3,-1
 236 731 l 1,4,-1
 172 276 l 1,5,-1
 63 276 l 1,6,-1
 110 613 l 1,0,-1
184 -4 m 1,7,-1
 89 -2 l 1,8,-1
 680 731 l 1,9,-1
 774 731 l 1,10,-1
 184 -4 l 1,7,-1
536 77 m 1,11,-1
 694 199 l 2,12,13
 742 235 742 235 764 254.5 c 128,-1,14
 786 274 786 274 795.5 288 c 128,-1,15
 805 302 805 302 807 319 c 0,16,17
 811 344 811 344 795.5 359 c 128,-1,18
 780 374 780 374 753 374 c 0,19,20
 724 374 724 374 700 358 c 128,-1,21
 676 342 676 342 662 306 c 1,22,-1
 562 309 l 1,23,24
 576 378 576 378 629 419.5 c 128,-1,25
 682 461 682 461 768 461 c 0,26,27
 820 461 820 461 856.5 443.5 c 128,-1,28
 893 426 893 426 909 394 c 128,-1,29
 925 362 925 362 920 320 c 0,30,31
 915 285 915 285 894 258 c 128,-1,32
 873 231 873 231 822 188 c 2,33,-1
 701 89 l 1,34,-1
 891 89 l 1,35,-1
 879 0 l 1,36,-1
 525 0 l 1,37,-1
 536 77 l 1,11,-1
EndSplineSet
EndChar

StartChar: threequarters
Encoding: 190 190 127
Width: 1078
GlyphClass: 2
Flags: W
LayerCount: 2
Fore
SplineSet
130.5 708 m 128,-1,1
 191 740 191 740 274 740 c 0,2,3
 350 740 350 740 397 706.5 c 128,-1,4
 444 673 444 673 436 620 c 0,5,6
 426 551 426 551 340 522 c 1,7,8
 379 512 379 512 403 484 c 128,-1,9
 427 456 427 456 421 412 c 0,10,11
 415 369 415 369 382 337.5 c 128,-1,12
 349 306 349 306 301.5 289.5 c 128,-1,13
 254 273 254 273 207 273 c 0,14,15
 114 273 114 273 67.5 304 c 128,-1,16
 21 335 21 335 27 414 c 1,17,-1
 129 417 l 1,18,19
 134 385 134 385 157 371.5 c 128,-1,20
 180 358 180 358 211 358 c 0,21,22
 248 358 248 358 273.5 373.5 c 128,-1,23
 299 389 299 389 302 412 c 0,24,25
 305 436 305 436 286.5 452.5 c 128,-1,26
 268 469 268 469 236 470 c 2,27,-1
 174 470 l 1,28,-1
 186 554 l 1,29,-1
 240 556 l 2,30,31
 272 557 272 557 295 573 c 128,-1,32
 318 589 318 589 321 611 c 0,33,34
 324 631 324 631 304.5 644.5 c 128,-1,35
 285 658 285 658 259 658 c 0,36,37
 221 658 221 658 194.5 646 c 128,-1,38
 168 634 168 634 156 599 c 1,39,-1
 57 602 l 1,40,0
 70 676 70 676 130.5 708 c 128,-1,1
282 -4 m 1,41,-1
 187 -2 l 1,42,-1
 778 731 l 1,43,-1
 872 731 l 1,44,-1
 282 -4 l 1,41,-1
992 455 m 1,45,-1
 954 185 l 1,46,-1
 1020 185 l 1,47,-1
 1008 94 l 1,48,-1
 941 94 l 1,49,-1
 928 0 l 1,50,-1
 820 0 l 1,51,-1
 834 94 l 1,52,-1
 632 94 l 1,53,-1
 645 182 l 1,54,-1
 886 455 l 1,55,-1
 992 455 l 1,45,-1
848 185 m 1,56,-1
 865 308 l 1,57,-1
 756 185 l 1,58,-1
 848 185 l 1,56,-1
EndSplineSet
EndChar

StartChar: questiondown
Encoding: 191 191 128
Width: 550
GlyphClass: 2
Flags: W
LayerCount: 2
Fore
SplineSet
224 517 m 1,0,-1
 407 517 l 1,1,-1
 382 343 l 1,2,-1
 199 343 l 1,3,-1
 224 517 l 1,0,-1
375.5 -126 m 128,-1,5
 302 -171 302 -171 206 -171 c 0,6,7
 127 -171 127 -171 74.5 -148 c 128,-1,8
 22 -125 22 -125 0 -86.5 c 128,-1,9
 -22 -48 -22 -48 -15 -1 c 0,10,11
 -9 39 -9 39 9.5 68 c 128,-1,12
 28 97 28 97 51 116.5 c 128,-1,13
 74 136 74 136 112 161 c 0,14,15
 161 194 161 194 184.5 218.5 c 128,-1,16
 208 243 208 243 213 281 c 1,17,-1
 348 281 l 1,18,19
 342 239 342 239 324.5 207 c 128,-1,20
 307 175 307 175 284.5 153 c 128,-1,21
 262 131 262 131 228 103 c 0,22,23
 192 74 192 74 174.5 54 c 128,-1,24
 157 34 157 34 153 8 c 0,25,26
 149 -19 149 -19 170 -36 c 128,-1,27
 191 -53 191 -53 224 -53 c 0,28,29
 261 -53 261 -53 296.5 -29 c 128,-1,30
 332 -5 332 -5 354 35 c 1,31,-1
 492 3 l 1,32,4
 449 -81 449 -81 375.5 -126 c 128,-1,5
EndSplineSet
EndChar

StartChar: Agrave
Encoding: 192 192 129
Width: 718
GlyphClass: 2
Flags: W
AnchorPoint: "Anchor-5" -46 0 basechar 0
AnchorPoint: "Anchor-4" -46 0 basechar 0
AnchorPoint: "Anchor-3" 326 723 basechar 0
AnchorPoint: "Anchor-2" 659 9 basechar 0
LayerCount: 2
Fore
SplineSet
327 723 m 1,0,-1
 504 723 l 1,1,-1
 659 0 l 1,2,-1
 490 0 l 1,3,-1
 459 154 l 1,4,-1
 215 154 l 1,5,-1
 138 0 l 1,6,-1
 -32 0 l 1,7,-1
 327 723 l 1,0,-1
439 301 m 1,8,-1
 393 560 l 1,9,-1
 271 301 l 1,10,-1
 439 301 l 1,8,-1
587 836 m 1,11,-1
 554 766 l 1,12,-1
 292 834 l 1,13,-1
 344 940 l 1,14,-1
 587 836 l 1,11,-1
EndSplineSet
EndChar

StartChar: Aacute
Encoding: 193 193 130
Width: 718
GlyphClass: 2
Flags: W
AnchorPoint: "Anchor-5" -46 0 basechar 0
AnchorPoint: "Anchor-4" -46 0 basechar 0
AnchorPoint: "Anchor-3" 326 723 basechar 0
AnchorPoint: "Anchor-2" 659 9 basechar 0
LayerCount: 2
Fore
SplineSet
327 723 m 1,0,-1
 504 723 l 1,1,-1
 659 0 l 1,2,-1
 490 0 l 1,3,-1
 459 154 l 1,4,-1
 215 154 l 1,5,-1
 138 0 l 1,6,-1
 -32 0 l 1,7,-1
 327 723 l 1,0,-1
439 301 m 1,8,-1
 393 560 l 1,9,-1
 271 301 l 1,10,-1
 439 301 l 1,8,-1
592 834 m 1,11,-1
 312 766 l 1,12,-1
 298 836 l 1,13,-1
 570 940 l 1,14,-1
 592 834 l 1,11,-1
EndSplineSet
EndChar

StartChar: Acircumflex
Encoding: 194 194 131
Width: 718
GlyphClass: 2
Flags: W
AnchorPoint: "Anchor-5" -46 0 basechar 0
AnchorPoint: "Anchor-4" -46 0 basechar 0
AnchorPoint: "Anchor-3" 326 723 basechar 0
AnchorPoint: "Anchor-2" 659 9 basechar 0
LayerCount: 2
Fore
SplineSet
327 723 m 1,0,-1
 504 723 l 1,1,-1
 659 0 l 1,2,-1
 490 0 l 1,3,-1
 459 154 l 1,4,-1
 215 154 l 1,5,-1
 138 0 l 1,6,-1
 -32 0 l 1,7,-1
 327 723 l 1,0,-1
439 301 m 1,8,-1
 393 560 l 1,9,-1
 271 301 l 1,10,-1
 439 301 l 1,8,-1
448 872 m 1,11,-1
 365 794 l 1,12,-1
 245 794 l 1,13,-1
 400 937 l 1,14,-1
 516 937 l 1,15,-1
 628 794 l 1,16,-1
 501 794 l 1,17,-1
 448 872 l 1,11,-1
EndSplineSet
EndChar

StartChar: Atilde
Encoding: 195 195 132
Width: 718
GlyphClass: 2
Flags: W
AnchorPoint: "Anchor-5" -46 0 basechar 0
AnchorPoint: "Anchor-4" -46 0 basechar 0
AnchorPoint: "Anchor-3" 326 723 basechar 0
AnchorPoint: "Anchor-2" 659 9 basechar 0
LayerCount: 2
Fore
SplineSet
327 723 m 1,0,-1
 504 723 l 1,1,-1
 659 0 l 1,2,-1
 490 0 l 1,3,-1
 459 154 l 1,4,-1
 215 154 l 1,5,-1
 138 0 l 1,6,-1
 -32 0 l 1,7,-1
 327 723 l 1,0,-1
439 301 m 1,8,-1
 393 560 l 1,9,-1
 271 301 l 1,10,-1
 439 301 l 1,8,-1
572 818 m 128,-1,12
 547 810 547 810 519 810 c 0,13,14
 500 810 500 810 484.5 813.5 c 128,-1,15
 469 817 469 817 443 825 c 0,16,17
 426 830 426 830 407.5 834.5 c 128,-1,18
 389 839 389 839 372 839 c 0,19,20
 352 839 352 839 336.5 833.5 c 128,-1,21
 321 828 321 828 302 815 c 0,22,23
 294 810 294 810 290 810 c 0,24,25
 284 810 284 810 282 822 c 2,26,-1
 274 869 l 2,27,28
 273 871 273 871 272.5 873.5 c 128,-1,29
 272 876 272 876 273 880 c 0,30,31
 274 886 274 886 285 896 c 0,32,33
 307 914 307 914 329 923.5 c 128,-1,34
 351 933 351 933 380 933 c 0,35,36
 400 933 400 933 418.5 929 c 128,-1,37
 437 925 437 925 465 916 c 0,38,39
 482 911 482 911 499.5 906.5 c 128,-1,40
 517 902 517 902 531 902 c 0,41,42
 567 902 567 902 605 927 c 0,43,44
 612 931 612 931 616 931 c 0,45,46
 625 931 625 931 626 920 c 2,47,-1
 630 863 l 2,48,49
 631 861 631 861 630 856 c 0,50,51
 629 847 629 847 615 837 c 0,52,11
 597 826 597 826 572 818 c 128,-1,12
EndSplineSet
EndChar

StartChar: Adieresis
Encoding: 196 196 133
Width: 718
GlyphClass: 2
Flags: W
AnchorPoint: "Anchor-5" -46 0 basechar 0
AnchorPoint: "Anchor-4" -46 0 basechar 0
AnchorPoint: "Anchor-3" 326 723 basechar 0
AnchorPoint: "Anchor-2" 659 9 basechar 0
LayerCount: 2
Fore
SplineSet
327 723 m 1,0,-1
 504 723 l 1,1,-1
 659 0 l 1,2,-1
 490 0 l 1,3,-1
 459 154 l 1,4,-1
 215 154 l 1,5,-1
 138 0 l 1,6,-1
 -32 0 l 1,7,-1
 327 723 l 1,0,-1
439 301 m 1,8,-1
 393 560 l 1,9,-1
 271 301 l 1,10,-1
 439 301 l 1,8,-1
404 797 m 1,11,-1
 257 797 l 1,12,-1
 276 929 l 1,13,-1
 423 929 l 1,14,-1
 404 797 l 1,11,-1
619 797 m 1,15,-1
 471 797 l 1,16,-1
 490 929 l 1,17,-1
 638 929 l 1,18,-1
 619 797 l 1,15,-1
EndSplineSet
EndChar

StartChar: Aring
Encoding: 197 197 134
Width: 718
GlyphClass: 2
Flags: W
AnchorPoint: "Anchor-5" -46 0 basechar 0
AnchorPoint: "Anchor-4" -46 0 basechar 0
AnchorPoint: "Anchor-3" 326 723 basechar 0
AnchorPoint: "Anchor-2" 659 9 basechar 0
LayerCount: 2
Fore
SplineSet
327 723 m 1,0,-1
 504 723 l 1,1,-1
 659 0 l 1,2,-1
 490 0 l 1,3,-1
 459 154 l 1,4,-1
 215 154 l 1,5,-1
 138 0 l 1,6,-1
 -32 0 l 1,7,-1
 327 723 l 1,0,-1
439 301 m 1,8,-1
 393 560 l 1,9,-1
 271 301 l 1,10,-1
 439 301 l 1,8,-1
518 801.5 m 128,-1,12
 481 769 481 769 434 769 c 0,13,14
 388 769 388 769 360 802 c 128,-1,15
 332 835 332 835 339 882 c 0,16,17
 345 927 345 927 382 958.5 c 128,-1,18
 419 990 419 990 465 990 c 0,19,20
 512 990 512 990 540 958 c 128,-1,21
 568 926 568 926 561 880 c 0,22,11
 555 834 555 834 518 801.5 c 128,-1,12
487 913.5 m 128,-1,24
 475 927 475 927 455 927 c 128,-1,25
 435 927 435 927 418.5 913.5 c 128,-1,26
 402 900 402 900 399 879 c 0,27,28
 396 860 396 860 409 845 c 128,-1,29
 422 830 422 830 441 830 c 0,30,31
 461 830 461 830 477.5 845 c 128,-1,32
 494 860 494 860 496 879 c 0,33,23
 499 900 499 900 487 913.5 c 128,-1,24
EndSplineSet
EndChar

StartChar: AE
Encoding: 198 198 135
Width: 1090
GlyphClass: 2
Flags: W
AnchorPoint: "Anchor-5" -46 0 basechar 0
AnchorPoint: "Anchor-4" -46 0 basechar 0
AnchorPoint: "Anchor-3" 647 723 basechar 0
AnchorPoint: "Anchor-2" -46 0 basechar 0
LayerCount: 2
Fore
SplineSet
989 0 m 1,0,-1
 443 0 l 1,1,-1
 465 154 l 1,2,-1
 239 154 l 1,3,-1
 138 0 l 1,4,-1
 -32 0 l 1,5,-1
 451 723 l 1,6,-1
 1082 723 l 1,7,-1
 1061 583 l 1,8,-1
 720 583 l 1,9,-1
 699 433 l 1,10,-1
 922 433 l 1,11,-1
 902 295 l 1,12,-1
 679 295 l 1,13,-1
 658 141 l 1,14,-1
 1009 141 l 1,15,-1
 989 0 l 1,0,-1
529 614 m 1,16,-1
 322 301 l 1,17,-1
 485 301 l 1,18,-1
 529 614 l 1,16,-1
EndSplineSet
EndChar

StartChar: Ccedilla
Encoding: 199 199 136
Width: 721
GlyphClass: 2
Flags: W
AnchorPoint: "Anchor-5" -46 0 basechar 0
AnchorPoint: "Anchor-4" 331 0 basechar 0
AnchorPoint: "Anchor-3" 331 723 basechar 0
AnchorPoint: "Anchor-2" -46 0 basechar 0
LayerCount: 2
Fore
SplineSet
578 700.5 m 128,-1,1
 640 668 640 668 672.5 610.5 c 128,-1,2
 705 553 705 553 702 479 c 1,3,-1
 524 478 l 1,4,5
 523 533 523 533 493.5 564 c 128,-1,6
 464 595 464 595 408 595 c 0,7,8
 264 595 264 595 232 367 c 0,9,10
 215 245 215 245 244.5 186.5 c 128,-1,11
 274 128 274 128 343 128 c 0,12,13
 395 128 395 128 435 164.5 c 128,-1,14
 475 201 475 201 492 257 c 1,15,-1
 670 255 l 1,16,17
 638 134 638 134 558.5 62 c 128,-1,18
 479 -10 479 -10 330 -10 c 0,19,20
 229 -10 229 -10 159 38 c 128,-1,21
 89 86 89 86 59.5 172 c 128,-1,22
 30 258 30 258 46 369 c 128,-1,23
 62 480 62 480 114.5 562 c 128,-1,24
 167 644 167 644 248.5 688.5 c 128,-1,25
 330 733 330 733 433 733 c 0,26,0
 516 733 516 733 578 700.5 c 128,-1,1
392.5 -193 m 128,-1,28
 353 -216 353 -216 301 -216 c 0,29,30
 223 -216 223 -216 181 -188 c 1,31,-1
 210 -134 l 1,32,33
 250 -159 250 -159 288 -159 c 0,34,35
 310 -159 310 -159 324 -151.5 c 128,-1,36
 338 -144 338 -144 340 -131 c 0,37,38
 343 -111 343 -111 324 -101 c 128,-1,39
 305 -91 305 -91 258 -91 c 0,40,41
 251 -91 251 -91 249 -89 c 128,-1,42
 247 -87 247 -87 251 -80 c 2,43,-1
 300 5 l 1,44,-1
 372 5 l 1,45,-1
 342 -53 l 1,46,47
 396 -54 396 -54 419 -78 c 128,-1,48
 442 -102 442 -102 437 -133 c 0,49,27
 432 -170 432 -170 392.5 -193 c 128,-1,28
EndSplineSet
EndChar

StartChar: Egrave
Encoding: 200 200 137
Width: 643
GlyphClass: 2
Flags: W
AnchorPoint: "Anchor-5" -46 0 basechar 0
AnchorPoint: "Anchor-4" 289 0 basechar 0
AnchorPoint: "Anchor-3" 286 723 basechar 0
AnchorPoint: "Anchor-2" 542 10 basechar 0
LayerCount: 2
Fore
SplineSet
128 723 m 1,0,-1
 643 723 l 1,1,-1
 622 581 l 1,2,-1
 279 581 l 1,3,-1
 258 433 l 1,4,-1
 551 433 l 1,5,-1
 531 294 l 1,6,-1
 237 294 l 1,7,-1
 216 143 l 1,8,-1
 564 143 l 1,9,-1
 544 0 l 1,10,-1
 26 0 l 1,11,-1
 128 723 l 1,0,-1
547 836 m 1,12,-1
 514 766 l 1,13,-1
 252 834 l 1,14,-1
 304 940 l 1,15,-1
 547 836 l 1,12,-1
EndSplineSet
EndChar

StartChar: Eacute
Encoding: 201 201 138
Width: 643
GlyphClass: 2
Flags: W
AnchorPoint: "Anchor-5" -46 0 basechar 0
AnchorPoint: "Anchor-4" 289 0 basechar 0
AnchorPoint: "Anchor-3" 286 723 basechar 0
AnchorPoint: "Anchor-2" 542 10 basechar 0
LayerCount: 2
Fore
SplineSet
128 723 m 1,0,-1
 643 723 l 1,1,-1
 622 581 l 1,2,-1
 279 581 l 1,3,-1
 258 433 l 1,4,-1
 551 433 l 1,5,-1
 531 294 l 1,6,-1
 237 294 l 1,7,-1
 216 143 l 1,8,-1
 564 143 l 1,9,-1
 544 0 l 1,10,-1
 26 0 l 1,11,-1
 128 723 l 1,0,-1
552 834 m 1,12,-1
 272 766 l 1,13,-1
 258 836 l 1,14,-1
 530 940 l 1,15,-1
 552 834 l 1,12,-1
EndSplineSet
EndChar

StartChar: Ecircumflex
Encoding: 202 202 139
Width: 643
GlyphClass: 2
Flags: W
AnchorPoint: "Anchor-5" -46 0 basechar 0
AnchorPoint: "Anchor-4" 289 0 basechar 0
AnchorPoint: "Anchor-3" 286 723 basechar 0
AnchorPoint: "Anchor-2" 542 10 basechar 0
LayerCount: 2
Fore
SplineSet
128 723 m 1,0,-1
 643 723 l 1,1,-1
 622 581 l 1,2,-1
 279 581 l 1,3,-1
 258 433 l 1,4,-1
 551 433 l 1,5,-1
 531 294 l 1,6,-1
 237 294 l 1,7,-1
 216 143 l 1,8,-1
 564 143 l 1,9,-1
 544 0 l 1,10,-1
 26 0 l 1,11,-1
 128 723 l 1,0,-1
408 872 m 1,12,-1
 325 794 l 1,13,-1
 205 794 l 1,14,-1
 360 937 l 1,15,-1
 476 937 l 1,16,-1
 588 794 l 1,17,-1
 461 794 l 1,18,-1
 408 872 l 1,12,-1
EndSplineSet
EndChar

StartChar: Edieresis
Encoding: 203 203 140
Width: 643
GlyphClass: 2
Flags: W
AnchorPoint: "Anchor-5" -46 0 basechar 0
AnchorPoint: "Anchor-4" 289 0 basechar 0
AnchorPoint: "Anchor-3" 286 723 basechar 0
AnchorPoint: "Anchor-2" 542 10 basechar 0
LayerCount: 2
Fore
SplineSet
128 723 m 1,0,-1
 643 723 l 1,1,-1
 622 581 l 1,2,-1
 279 581 l 1,3,-1
 258 433 l 1,4,-1
 551 433 l 1,5,-1
 531 294 l 1,6,-1
 237 294 l 1,7,-1
 216 143 l 1,8,-1
 564 143 l 1,9,-1
 544 0 l 1,10,-1
 26 0 l 1,11,-1
 128 723 l 1,0,-1
364 797 m 1,12,-1
 217 797 l 1,13,-1
 236 929 l 1,14,-1
 383 929 l 1,15,-1
 364 797 l 1,12,-1
579 797 m 1,16,-1
 431 797 l 1,17,-1
 450 929 l 1,18,-1
 598 929 l 1,19,-1
 579 797 l 1,16,-1
EndSplineSet
EndChar

StartChar: Igrave
Encoding: 204 204 141
Width: 314
GlyphClass: 2
Flags: W
AnchorPoint: "Anchor-5" -46 0 basechar 0
AnchorPoint: "Anchor-4" 120 0 basechar 0
AnchorPoint: "Anchor-3" 112 723 basechar 0
AnchorPoint: "Anchor-2" 175 4 basechar 0
LayerCount: 2
Fore
SplineSet
298 723 m 1,0,-1
 196 0 l 1,1,-1
 26 0 l 1,2,-1
 128 723 l 1,3,-1
 298 723 l 1,0,-1
373 836 m 1,4,-1
 340 766 l 1,5,-1
 78 834 l 1,6,-1
 130 940 l 1,7,-1
 373 836 l 1,4,-1
EndSplineSet
EndChar

StartChar: Iacute
Encoding: 205 205 142
Width: 314
GlyphClass: 2
Flags: W
AnchorPoint: "Anchor-5" -46 0 basechar 0
AnchorPoint: "Anchor-4" 120 0 basechar 0
AnchorPoint: "Anchor-3" 112 723 basechar 0
AnchorPoint: "Anchor-2" 175 4 basechar 0
LayerCount: 2
Fore
SplineSet
298 723 m 1,0,-1
 196 0 l 1,1,-1
 26 0 l 1,2,-1
 128 723 l 1,3,-1
 298 723 l 1,0,-1
378 834 m 1,4,-1
 98 766 l 1,5,-1
 84 836 l 1,6,-1
 356 940 l 1,7,-1
 378 834 l 1,4,-1
EndSplineSet
EndChar

StartChar: Icircumflex
Encoding: 206 206 143
Width: 314
GlyphClass: 2
Flags: W
AnchorPoint: "Anchor-5" -46 0 basechar 0
AnchorPoint: "Anchor-4" 120 0 basechar 0
AnchorPoint: "Anchor-3" 112 723 basechar 0
AnchorPoint: "Anchor-2" 175 4 basechar 0
LayerCount: 2
Fore
SplineSet
298 723 m 1,0,-1
 196 0 l 1,1,-1
 26 0 l 1,2,-1
 128 723 l 1,3,-1
 298 723 l 1,0,-1
234 872 m 1,4,-1
 151 794 l 1,5,-1
 31 794 l 1,6,-1
 186 937 l 1,7,-1
 302 937 l 1,8,-1
 414 794 l 1,9,-1
 287 794 l 1,10,-1
 234 872 l 1,4,-1
EndSplineSet
EndChar

StartChar: Idieresis
Encoding: 207 207 144
Width: 314
GlyphClass: 2
Flags: W
AnchorPoint: "Anchor-5" -46 0 basechar 0
AnchorPoint: "Anchor-4" 120 0 basechar 0
AnchorPoint: "Anchor-3" 112 723 basechar 0
AnchorPoint: "Anchor-2" 175 4 basechar 0
LayerCount: 2
Fore
SplineSet
298 723 m 1,0,-1
 196 0 l 1,1,-1
 26 0 l 1,2,-1
 128 723 l 1,3,-1
 298 723 l 1,0,-1
190 797 m 1,4,-1
 43 797 l 1,5,-1
 62 929 l 1,6,-1
 209 929 l 1,7,-1
 190 797 l 1,4,-1
405 797 m 1,8,-1
 257 797 l 1,9,-1
 276 929 l 1,10,-1
 424 929 l 1,11,-1
 405 797 l 1,8,-1
EndSplineSet
EndChar

StartChar: Eth
Encoding: 208 208 145
Width: 752
GlyphClass: 2
Flags: W
AnchorPoint: "Anchor-5" -46 0 basechar 0
AnchorPoint: "Anchor-4" -46 0 basechar 0
AnchorPoint: "Anchor-3" 344 723 basechar 0
AnchorPoint: "Anchor-2" -46 0 basechar 0
LayerCount: 2
Fore
SplineSet
661.5 622 m 128,-1,1
 740 528 740 528 717 364 c 0,2,3
 693 195 693 195 584.5 97.5 c 128,-1,4
 476 0 476 0 289 0 c 2,5,-1
 54 0 l 1,6,-1
 95 295 l 1,7,-1
 49 295 l 2,8,9
 36 295 36 295 32 300 c 128,-1,10
 28 305 28 305 30 317 c 2,11,-1
 41 397 l 2,12,13
 44 417 44 417 61 417 c 2,14,-1
 113 417 l 1,15,-1
 156 723 l 1,16,-1
 258 723 l 2,17,18
 363 723 363 723 393 722 c 0,19,0
 583 716 583 716 661.5 622 c 128,-1,1
459 192 m 128,-1,21
 523 248 523 248 539 366 c 0,22,23
 555 477 555 477 511.5 532.5 c 128,-1,24
 468 588 468 588 377 588 c 2,25,-1
 308 588 l 1,26,-1
 284 417 l 1,27,-1
 410 417 l 2,28,29
 417 417 417 417 420.5 412.5 c 128,-1,30
 424 408 424 408 423 400 c 2,31,-1
 412 320 l 2,32,33
 410 306 410 306 402 300.5 c 128,-1,34
 394 295 394 295 379 295 c 2,35,-1
 266 295 l 1,36,-1
 244 136 l 1,37,-1
 312 136 l 2,38,20
 395 136 395 136 459 192 c 128,-1,21
EndSplineSet
EndChar

StartChar: Ntilde
Encoding: 209 209 146
Width: 790
GlyphClass: 2
Flags: W
AnchorPoint: "Anchor-5" -46 0 basechar 0
AnchorPoint: "Anchor-4" 345 0 basechar 0
AnchorPoint: "Anchor-3" 351 723 basechar 0
AnchorPoint: "Anchor-2" -46 0 basechar 0
LayerCount: 2
Fore
SplineSet
775 723 m 1,0,-1
 673 0 l 1,1,-1
 519 0 l 1,2,-1
 261 464 l 1,3,-1
 196 0 l 1,4,-1
 26 0 l 1,5,-1
 128 723 l 1,6,-1
 298 723 l 1,7,-1
 542 282 l 1,8,-1
 604 723 l 1,9,-1
 775 723 l 1,0,-1
597 818 m 128,-1,11
 572 810 572 810 544 810 c 0,12,13
 525 810 525 810 509.5 813.5 c 128,-1,14
 494 817 494 817 468 825 c 0,15,16
 451 830 451 830 432.5 834.5 c 128,-1,17
 414 839 414 839 397 839 c 0,18,19
 377 839 377 839 361.5 833.5 c 128,-1,20
 346 828 346 828 327 815 c 0,21,22
 319 810 319 810 315 810 c 0,23,24
 309 810 309 810 307 822 c 2,25,-1
 299 869 l 2,26,27
 298 871 298 871 297.5 873.5 c 128,-1,28
 297 876 297 876 298 880 c 0,29,30
 299 886 299 886 310 896 c 0,31,32
 332 914 332 914 354 923.5 c 128,-1,33
 376 933 376 933 405 933 c 0,34,35
 425 933 425 933 443.5 929 c 128,-1,36
 462 925 462 925 490 916 c 0,37,38
 507 911 507 911 524.5 906.5 c 128,-1,39
 542 902 542 902 556 902 c 0,40,41
 592 902 592 902 630 927 c 0,42,43
 637 931 637 931 641 931 c 0,44,45
 650 931 650 931 651 920 c 2,46,-1
 655 863 l 2,47,48
 656 861 656 861 655 856 c 0,49,50
 654 847 654 847 640 837 c 0,51,10
 622 826 622 826 597 818 c 128,-1,11
EndSplineSet
EndChar

StartChar: Ograve
Encoding: 210 210 147
Width: 762
GlyphClass: 2
Flags: W
AnchorPoint: "Anchor-5" -46 0 basechar 0
AnchorPoint: "Anchor-4" 337 0 basechar 0
AnchorPoint: "Anchor-3" 335 723 basechar 0
AnchorPoint: "Anchor-2" 423 10 basechar 0
LayerCount: 2
Fore
SplineSet
159.5 35 m 128,-1,1
 88 80 88 80 58.5 163.5 c 128,-1,2
 29 247 29 247 45 360 c 128,-1,3
 61 473 61 473 114.5 557.5 c 128,-1,4
 168 642 168 642 252 687.5 c 128,-1,5
 336 733 336 733 439 733 c 0,6,7
 541 733 541 733 611.5 687.5 c 128,-1,8
 682 642 682 642 712 557.5 c 128,-1,9
 742 473 742 473 727 360 c 0,10,11
 711 247 711 247 657.5 163.5 c 128,-1,12
 604 80 604 80 521 35 c 128,-1,13
 438 -10 438 -10 335 -10 c 0,14,0
 231 -10 231 -10 159.5 35 c 128,-1,1
541 357 m 0,15,16
 558 480 558 480 525.5 537.5 c 128,-1,17
 493 595 493 595 420 595 c 128,-1,18
 347 595 347 595 297 537.5 c 128,-1,19
 247 480 247 480 230 357 c 0,20,21
 213 238 213 238 246.5 183 c 128,-1,22
 280 128 280 128 354 128 c 0,23,24
 509 128 509 128 541 357 c 0,15,16
596 836 m 1,25,-1
 563 766 l 1,26,-1
 301 834 l 1,27,-1
 353 940 l 1,28,-1
 596 836 l 1,25,-1
EndSplineSet
EndChar

StartChar: Oacute
Encoding: 211 211 148
Width: 762
GlyphClass: 2
Flags: W
AnchorPoint: "Anchor-5" -46 0 basechar 0
AnchorPoint: "Anchor-4" 337 0 basechar 0
AnchorPoint: "Anchor-3" 335 723 basechar 0
AnchorPoint: "Anchor-2" 423 10 basechar 0
LayerCount: 2
Fore
SplineSet
159.5 35 m 128,-1,1
 88 80 88 80 58.5 163.5 c 128,-1,2
 29 247 29 247 45 360 c 128,-1,3
 61 473 61 473 114.5 557.5 c 128,-1,4
 168 642 168 642 252 687.5 c 128,-1,5
 336 733 336 733 439 733 c 0,6,7
 541 733 541 733 611.5 687.5 c 128,-1,8
 682 642 682 642 712 557.5 c 128,-1,9
 742 473 742 473 727 360 c 0,10,11
 711 247 711 247 657.5 163.5 c 128,-1,12
 604 80 604 80 521 35 c 128,-1,13
 438 -10 438 -10 335 -10 c 0,14,0
 231 -10 231 -10 159.5 35 c 128,-1,1
541 357 m 0,15,16
 558 480 558 480 525.5 537.5 c 128,-1,17
 493 595 493 595 420 595 c 128,-1,18
 347 595 347 595 297 537.5 c 128,-1,19
 247 480 247 480 230 357 c 0,20,21
 213 238 213 238 246.5 183 c 128,-1,22
 280 128 280 128 354 128 c 0,23,24
 509 128 509 128 541 357 c 0,15,16
601 834 m 1,25,-1
 321 766 l 1,26,-1
 307 836 l 1,27,-1
 579 940 l 1,28,-1
 601 834 l 1,25,-1
EndSplineSet
EndChar

StartChar: Ocircumflex
Encoding: 212 212 149
Width: 762
GlyphClass: 2
Flags: W
AnchorPoint: "Anchor-5" -46 0 basechar 0
AnchorPoint: "Anchor-4" 337 0 basechar 0
AnchorPoint: "Anchor-3" 335 723 basechar 0
AnchorPoint: "Anchor-2" 423 10 basechar 0
LayerCount: 2
Fore
SplineSet
159.5 35 m 128,-1,1
 88 80 88 80 58.5 163.5 c 128,-1,2
 29 247 29 247 45 360 c 128,-1,3
 61 473 61 473 114.5 557.5 c 128,-1,4
 168 642 168 642 252 687.5 c 128,-1,5
 336 733 336 733 439 733 c 0,6,7
 541 733 541 733 611.5 687.5 c 128,-1,8
 682 642 682 642 712 557.5 c 128,-1,9
 742 473 742 473 727 360 c 0,10,11
 711 247 711 247 657.5 163.5 c 128,-1,12
 604 80 604 80 521 35 c 128,-1,13
 438 -10 438 -10 335 -10 c 0,14,0
 231 -10 231 -10 159.5 35 c 128,-1,1
541 357 m 0,15,16
 558 480 558 480 525.5 537.5 c 128,-1,17
 493 595 493 595 420 595 c 128,-1,18
 347 595 347 595 297 537.5 c 128,-1,19
 247 480 247 480 230 357 c 0,20,21
 213 238 213 238 246.5 183 c 128,-1,22
 280 128 280 128 354 128 c 0,23,24
 509 128 509 128 541 357 c 0,15,16
457 872 m 1,25,-1
 374 794 l 1,26,-1
 254 794 l 1,27,-1
 409 937 l 1,28,-1
 525 937 l 1,29,-1
 637 794 l 1,30,-1
 510 794 l 1,31,-1
 457 872 l 1,25,-1
EndSplineSet
EndChar

StartChar: Otilde
Encoding: 213 213 150
Width: 762
GlyphClass: 2
Flags: W
AnchorPoint: "Anchor-5" -46 0 basechar 0
AnchorPoint: "Anchor-4" 337 0 basechar 0
AnchorPoint: "Anchor-3" 335 723 basechar 0
AnchorPoint: "Anchor-2" 423 10 basechar 0
LayerCount: 2
Fore
SplineSet
159.5 35 m 128,-1,1
 88 80 88 80 58.5 163.5 c 128,-1,2
 29 247 29 247 45 360 c 128,-1,3
 61 473 61 473 114.5 557.5 c 128,-1,4
 168 642 168 642 252 687.5 c 128,-1,5
 336 733 336 733 439 733 c 0,6,7
 541 733 541 733 611.5 687.5 c 128,-1,8
 682 642 682 642 712 557.5 c 128,-1,9
 742 473 742 473 727 360 c 0,10,11
 711 247 711 247 657.5 163.5 c 128,-1,12
 604 80 604 80 521 35 c 128,-1,13
 438 -10 438 -10 335 -10 c 0,14,0
 231 -10 231 -10 159.5 35 c 128,-1,1
541 357 m 0,15,16
 558 480 558 480 525.5 537.5 c 128,-1,17
 493 595 493 595 420 595 c 128,-1,18
 347 595 347 595 297 537.5 c 128,-1,19
 247 480 247 480 230 357 c 0,20,21
 213 238 213 238 246.5 183 c 128,-1,22
 280 128 280 128 354 128 c 0,23,24
 509 128 509 128 541 357 c 0,15,16
581 818 m 128,-1,26
 556 810 556 810 528 810 c 0,27,28
 509 810 509 810 493.5 813.5 c 128,-1,29
 478 817 478 817 452 825 c 0,30,31
 435 830 435 830 416.5 834.5 c 128,-1,32
 398 839 398 839 381 839 c 0,33,34
 361 839 361 839 345.5 833.5 c 128,-1,35
 330 828 330 828 311 815 c 0,36,37
 303 810 303 810 299 810 c 0,38,39
 293 810 293 810 291 822 c 2,40,-1
 283 869 l 2,41,42
 282 871 282 871 281.5 873.5 c 128,-1,43
 281 876 281 876 282 880 c 0,44,45
 283 886 283 886 294 896 c 0,46,47
 316 914 316 914 338 923.5 c 128,-1,48
 360 933 360 933 389 933 c 0,49,50
 409 933 409 933 427.5 929 c 128,-1,51
 446 925 446 925 474 916 c 0,52,53
 491 911 491 911 508.5 906.5 c 128,-1,54
 526 902 526 902 540 902 c 0,55,56
 576 902 576 902 614 927 c 0,57,58
 621 931 621 931 625 931 c 0,59,60
 634 931 634 931 635 920 c 2,61,-1
 639 863 l 2,62,63
 640 861 640 861 639 856 c 0,64,65
 638 847 638 847 624 837 c 0,66,25
 606 826 606 826 581 818 c 128,-1,26
EndSplineSet
EndChar

StartChar: Odieresis
Encoding: 214 214 151
Width: 762
GlyphClass: 2
Flags: W
AnchorPoint: "Anchor-5" -46 0 basechar 0
AnchorPoint: "Anchor-4" 337 0 basechar 0
AnchorPoint: "Anchor-3" 335 723 basechar 0
AnchorPoint: "Anchor-2" 423 10 basechar 0
LayerCount: 2
Fore
SplineSet
159.5 35 m 128,-1,1
 88 80 88 80 58.5 163.5 c 128,-1,2
 29 247 29 247 45 360 c 128,-1,3
 61 473 61 473 114.5 557.5 c 128,-1,4
 168 642 168 642 252 687.5 c 128,-1,5
 336 733 336 733 439 733 c 0,6,7
 541 733 541 733 611.5 687.5 c 128,-1,8
 682 642 682 642 712 557.5 c 128,-1,9
 742 473 742 473 727 360 c 0,10,11
 711 247 711 247 657.5 163.5 c 128,-1,12
 604 80 604 80 521 35 c 128,-1,13
 438 -10 438 -10 335 -10 c 0,14,0
 231 -10 231 -10 159.5 35 c 128,-1,1
541 357 m 0,15,16
 558 480 558 480 525.5 537.5 c 128,-1,17
 493 595 493 595 420 595 c 128,-1,18
 347 595 347 595 297 537.5 c 128,-1,19
 247 480 247 480 230 357 c 0,20,21
 213 238 213 238 246.5 183 c 128,-1,22
 280 128 280 128 354 128 c 0,23,24
 509 128 509 128 541 357 c 0,15,16
413 797 m 1,25,-1
 266 797 l 1,26,-1
 285 929 l 1,27,-1
 432 929 l 1,28,-1
 413 797 l 1,25,-1
628 797 m 1,29,-1
 480 797 l 1,30,-1
 499 929 l 1,31,-1
 647 929 l 1,32,-1
 628 797 l 1,29,-1
EndSplineSet
EndChar

StartChar: multiply
Encoding: 215 215 152
Width: 593
GlyphClass: 2
Flags: W
LayerCount: 2
Fore
SplineSet
384 364 m 1,0,-1
 516 212 l 1,1,-1
 417 125 l 1,2,-1
 285 278 l 1,3,-1
 111 125 l 1,4,-1
 38 212 l 1,5,-1
 211 364 l 1,6,-1
 80 517 l 1,7,-1
 177 604 l 1,8,-1
 309 450 l 1,9,-1
 485 604 l 1,10,-1
 560 517 l 1,11,-1
 384 364 l 1,0,-1
EndSplineSet
EndChar

StartChar: Oslash
Encoding: 216 216 153
Width: 774
GlyphClass: 2
Flags: W
AnchorPoint: "Anchor-5" -46 0 basechar 0
AnchorPoint: "Anchor-4" -46 0 basechar 0
AnchorPoint: "Anchor-3" 337 723 basechar 0
AnchorPoint: "Anchor-2" -46 0 basechar 0
LayerCount: 2
Fore
SplineSet
801 664 m 0,0,1
 800 658 800 658 793 652 c 2,2,-1
 707 575 l 1,3,4
 746 486 746 486 729 360 c 0,5,6
 713 247 713 247 659.5 163.5 c 128,-1,7
 606 80 606 80 523 35 c 128,-1,8
 440 -10 440 -10 337 -10 c 0,9,10
 270 -10 270 -10 216.5 9 c 128,-1,11
 163 28 163 28 125 64 c 1,12,-1
 58 5 l 2,13,14
 48 -5 48 -5 38 -5 c 128,-1,15
 28 -5 28 -5 20 5 c 2,16,-1
 -10 41 l 2,17,18
 -19 52 -19 52 -19 59 c 0,19,20
 -18 64 -18 64 -10 73 c 2,21,-1
 69 142 l 1,22,23
 29 232 29 232 47 360 c 0,24,25
 63 473 63 473 116.5 557.5 c 128,-1,26
 170 642 170 642 254 687.5 c 128,-1,27
 338 733 338 733 441 733 c 0,28,29
 576 733 576 733 654 655 c 1,30,-1
 728 720 l 2,31,32
 737 728 737 728 746 728 c 0,33,34
 752 728 752 728 756 724 c 2,35,-1
 797 675 l 2,36,37
 802 671 802 671 801 664 c 0,0,1
247 295 m 1,38,-1
 520 539 l 1,39,40
 507 570 507 570 483 585 c 128,-1,41
 459 600 459 600 422 600 c 0,42,43
 349 600 349 600 308 542.5 c 128,-1,44
 267 485 267 485 249 357 c 0,45,46
 244 322 244 322 247 295 c 1,38,-1
527 421 m 1,47,-1
 257 178 l 1,48,49
 282 125 282 125 356 125 c 0,50,51
 429 125 429 125 468.5 179 c 128,-1,52
 508 233 508 233 525 357 c 0,53,54
 530 394 530 394 527 421 c 1,47,-1
EndSplineSet
EndChar

StartChar: Ugrave
Encoding: 217 217 154
Width: 745
GlyphClass: 2
Flags: W
AnchorPoint: "Anchor-5" -46 0 basechar 0
AnchorPoint: "Anchor-4" -46 0 basechar 0
AnchorPoint: "Anchor-3" 312 723 basechar 0
AnchorPoint: "Anchor-2" 404 12 basechar 0
LayerCount: 2
Fore
SplineSet
565.5 67.5 m 128,-1,1
 484 -10 484 -10 325 -10 c 128,-1,2
 166 -10 166 -10 106.5 68 c 128,-1,3
 47 146 47 146 67 290 c 2,4,-1
 128 723 l 1,5,-1
 301 723 l 1,6,-1
 238 280 l 2,7,8
 228 206 228 206 258 169.5 c 128,-1,9
 288 133 288 133 345 133 c 0,10,11
 403 133 403 133 443.5 169.5 c 128,-1,12
 484 206 484 206 494 280 c 2,13,-1
 557 723 l 1,14,-1
 729 723 l 1,15,-1
 667 287 l 2,16,0
 647 145 647 145 565.5 67.5 c 128,-1,1
573 836 m 1,17,-1
 540 766 l 1,18,-1
 278 834 l 1,19,-1
 330 940 l 1,20,-1
 573 836 l 1,17,-1
EndSplineSet
EndChar

StartChar: Uacute
Encoding: 218 218 155
Width: 745
GlyphClass: 2
Flags: W
AnchorPoint: "Anchor-5" -46 0 basechar 0
AnchorPoint: "Anchor-4" -46 0 basechar 0
AnchorPoint: "Anchor-3" 312 723 basechar 0
AnchorPoint: "Anchor-2" 404 12 basechar 0
LayerCount: 2
Fore
SplineSet
565.5 67.5 m 128,-1,1
 484 -10 484 -10 325 -10 c 128,-1,2
 166 -10 166 -10 106.5 68 c 128,-1,3
 47 146 47 146 67 290 c 2,4,-1
 128 723 l 1,5,-1
 301 723 l 1,6,-1
 238 280 l 2,7,8
 228 206 228 206 258 169.5 c 128,-1,9
 288 133 288 133 345 133 c 0,10,11
 403 133 403 133 443.5 169.5 c 128,-1,12
 484 206 484 206 494 280 c 2,13,-1
 557 723 l 1,14,-1
 729 723 l 1,15,-1
 667 287 l 2,16,0
 647 145 647 145 565.5 67.5 c 128,-1,1
578 834 m 1,17,-1
 298 766 l 1,18,-1
 284 836 l 1,19,-1
 556 940 l 1,20,-1
 578 834 l 1,17,-1
EndSplineSet
EndChar

StartChar: Ucircumflex
Encoding: 219 219 156
Width: 745
GlyphClass: 2
Flags: W
AnchorPoint: "Anchor-5" -46 0 basechar 0
AnchorPoint: "Anchor-4" -46 0 basechar 0
AnchorPoint: "Anchor-3" 312 723 basechar 0
AnchorPoint: "Anchor-2" 404 12 basechar 0
LayerCount: 2
Fore
SplineSet
565.5 67.5 m 128,-1,1
 484 -10 484 -10 325 -10 c 128,-1,2
 166 -10 166 -10 106.5 68 c 128,-1,3
 47 146 47 146 67 290 c 2,4,-1
 128 723 l 1,5,-1
 301 723 l 1,6,-1
 238 280 l 2,7,8
 228 206 228 206 258 169.5 c 128,-1,9
 288 133 288 133 345 133 c 0,10,11
 403 133 403 133 443.5 169.5 c 128,-1,12
 484 206 484 206 494 280 c 2,13,-1
 557 723 l 1,14,-1
 729 723 l 1,15,-1
 667 287 l 2,16,0
 647 145 647 145 565.5 67.5 c 128,-1,1
434 872 m 1,17,-1
 351 794 l 1,18,-1
 231 794 l 1,19,-1
 386 937 l 1,20,-1
 502 937 l 1,21,-1
 614 794 l 1,22,-1
 487 794 l 1,23,-1
 434 872 l 1,17,-1
EndSplineSet
EndChar

StartChar: Udieresis
Encoding: 220 220 157
Width: 745
GlyphClass: 2
Flags: W
AnchorPoint: "Anchor-5" -46 0 basechar 0
AnchorPoint: "Anchor-4" -46 0 basechar 0
AnchorPoint: "Anchor-3" 312 723 basechar 0
AnchorPoint: "Anchor-2" 404 12 basechar 0
LayerCount: 2
Fore
SplineSet
565.5 67.5 m 128,-1,1
 484 -10 484 -10 325 -10 c 128,-1,2
 166 -10 166 -10 106.5 68 c 128,-1,3
 47 146 47 146 67 290 c 2,4,-1
 128 723 l 1,5,-1
 301 723 l 1,6,-1
 238 280 l 2,7,8
 228 206 228 206 258 169.5 c 128,-1,9
 288 133 288 133 345 133 c 0,10,11
 403 133 403 133 443.5 169.5 c 128,-1,12
 484 206 484 206 494 280 c 2,13,-1
 557 723 l 1,14,-1
 729 723 l 1,15,-1
 667 287 l 2,16,0
 647 145 647 145 565.5 67.5 c 128,-1,1
390 797 m 1,17,-1
 243 797 l 1,18,-1
 262 929 l 1,19,-1
 409 929 l 1,20,-1
 390 797 l 1,17,-1
605 797 m 1,21,-1
 457 797 l 1,22,-1
 476 929 l 1,23,-1
 624 929 l 1,24,-1
 605 797 l 1,21,-1
EndSplineSet
EndChar

StartChar: Yacute
Encoding: 221 221 158
Width: 683
GlyphClass: 2
Flags: W
AnchorPoint: "Anchor-5" -46 0 basechar 0
AnchorPoint: "Anchor-4" -46 0 basechar 0
AnchorPoint: "Anchor-3" 315 723 basechar 0
AnchorPoint: "Anchor-2" -46 0 basechar 0
LayerCount: 2
Fore
SplineSet
423 303 m 1,0,-1
 380 0 l 1,1,-1
 209 0 l 1,2,-1
 252 303 l 1,3,-1
 58 723 l 1,4,-1
 242 723 l 1,5,-1
 358 448 l 1,6,-1
 550 723 l 1,7,-1
 736 723 l 1,8,-1
 423 303 l 1,0,-1
581 834 m 1,9,-1
 301 766 l 1,10,-1
 287 836 l 1,11,-1
 559 940 l 1,12,-1
 581 834 l 1,9,-1
EndSplineSet
EndChar

StartChar: Thorn
Encoding: 222 222 159
Width: 722
GlyphClass: 2
Flags: W
LayerCount: 2
Fore
SplineSet
604 203 m 128,-1,1
 523 144 523 144 402 144 c 2,2,-1
 240 144 l 1,3,-1
 220 0 l 1,4,-1
 26 0 l 1,5,-1
 128 723 l 1,6,-1
 322 723 l 1,7,-1
 303 589 l 1,8,-1
 443 589 l 2,9,10
 524 589 524 589 586 564 c 128,-1,11
 648 539 648 539 679 488.5 c 128,-1,12
 710 438 710 438 699 366 c 0,13,0
 685 262 685 262 604 203 c 128,-1,1
481.5 429 m 128,-1,15
 456 451 456 451 411 451 c 2,16,-1
 283 451 l 1,17,-1
 260 282 l 1,18,-1
 394 282 l 2,19,20
 438 282 438 282 467 305.5 c 128,-1,21
 496 329 496 329 502 368 c 0,22,14
 507 407 507 407 481.5 429 c 128,-1,15
EndSplineSet
EndChar

StartChar: germandbls
Encoding: 223 223 160
Width: 656
GlyphClass: 2
Flags: W
LayerCount: 2
Fore
SplineSet
548.5 683 m 128,-1,1
 599 643 599 643 589 570 c 0,2,3
 582 519 582 519 546 485.5 c 128,-1,4
 510 452 510 452 433 422 c 0,5,6
 423 417 423 417 419 413.5 c 128,-1,7
 415 410 415 410 414 405 c 0,8,9
 413 399 413 399 416.5 395.5 c 128,-1,10
 420 392 420 392 430 389 c 0,11,12
 496 358 496 358 532.5 335 c 128,-1,13
 569 312 569 312 591.5 272 c 128,-1,14
 614 232 614 232 605 172 c 0,15,16
 593 84 593 84 527.5 37 c 128,-1,17
 462 -10 462 -10 361 -10 c 0,18,19
 283 -10 283 -10 233 23 c 1,20,-1
 296 126 l 1,21,22
 314 112 314 112 330.5 104.5 c 128,-1,23
 347 97 347 97 372 97 c 0,24,25
 404 97 404 97 425.5 111.5 c 128,-1,26
 447 126 447 126 451 154 c 0,27,28
 455 179 455 179 437.5 193.5 c 128,-1,29
 420 208 420 208 375 227 c 0,30,31
 274 274 274 274 286 363 c 0,32,33
 291 398 291 398 310 424.5 c 128,-1,34
 329 451 329 451 360 474 c 0,35,36
 368 480 368 480 388.5 496.5 c 128,-1,37
 409 513 409 513 420 528.5 c 128,-1,38
 431 544 431 544 434 561 c 0,39,40
 437 585 437 585 420.5 600 c 128,-1,41
 404 615 404 615 371 615 c 0,42,43
 329 615 329 615 302 589.5 c 128,-1,44
 275 564 275 564 269 522 c 2,45,-1
 196 0 l 1,46,-1
 29 0 l 1,47,-1
 81 372 l 1,48,-1
 24 372 l 1,49,-1
 41 489 l 1,50,-1
 97 489 l 1,51,52
 114 590 114 590 186.5 656.5 c 128,-1,53
 259 723 259 723 394 723 c 0,54,0
 498 723 498 723 548.5 683 c 128,-1,1
EndSplineSet
EndChar

StartChar: agrave
Encoding: 224 224 161
Width: 577
GlyphClass: 2
Flags: W
AnchorPoint: "Anchor-5" -46 0 basechar 0
AnchorPoint: "Anchor-4" -46 0 basechar 0
AnchorPoint: "Anchor-3" 243 517 basechar 0
AnchorPoint: "Anchor-2" 445 11 basechar 0
LayerCount: 2
Fore
SplineSet
506 0 m 1,0,-1
 335 0 l 1,1,-1
 506 0 l 1,0,-1
335 0 m 1,2,-1
 342 48 l 1,3,4
 303 16 303 16 266.5 3 c 128,-1,5
 230 -10 230 -10 193 -10 c 0,6,7
 101 -10 101 -10 51.5 57.5 c 128,-1,8
 2 125 2 125 21 261 c 0,9,10
 33 349 33 349 68.5 408.5 c 128,-1,11
 104 468 104 468 154.5 497.5 c 128,-1,12
 205 527 205 527 262 527 c 0,13,14
 303 527 303 527 339 511.5 c 128,-1,15
 375 496 375 496 400 471 c 1,16,-1
 407 517 l 1,17,-1
 579 517 l 1,18,-1
 506 0 l 1,19,-1
 335 0 l 1,2,-1
326.5 138 m 128,-1,21
 353 174 353 174 369 239 c 1,22,-1
 374 278 l 2,23,24
 383 344 383 344 365.5 379 c 128,-1,25
 348 414 348 414 308 414 c 0,26,27
 266 414 266 414 235 376 c 128,-1,28
 204 338 204 338 193 264 c 0,29,30
 182 189 182 189 203 145.5 c 128,-1,31
 224 102 224 102 266 102 c 0,32,20
 300 102 300 102 326.5 138 c 128,-1,21
475 630 m 1,33,-1
 442 560 l 1,34,-1
 180 628 l 1,35,-1
 232 734 l 1,36,-1
 475 630 l 1,33,-1
EndSplineSet
EndChar

StartChar: aacute
Encoding: 225 225 162
Width: 577
GlyphClass: 2
Flags: W
AnchorPoint: "Anchor-5" -46 0 basechar 0
AnchorPoint: "Anchor-4" -46 0 basechar 0
AnchorPoint: "Anchor-3" 243 517 basechar 0
AnchorPoint: "Anchor-2" 445 11 basechar 0
LayerCount: 2
Fore
SplineSet
506 0 m 1,0,-1
 335 0 l 1,1,-1
 506 0 l 1,0,-1
335 0 m 1,2,-1
 342 48 l 1,3,4
 303 16 303 16 266.5 3 c 128,-1,5
 230 -10 230 -10 193 -10 c 0,6,7
 101 -10 101 -10 51.5 57.5 c 128,-1,8
 2 125 2 125 21 261 c 0,9,10
 33 349 33 349 68.5 408.5 c 128,-1,11
 104 468 104 468 154.5 497.5 c 128,-1,12
 205 527 205 527 262 527 c 0,13,14
 303 527 303 527 339 511.5 c 128,-1,15
 375 496 375 496 400 471 c 1,16,-1
 407 517 l 1,17,-1
 579 517 l 1,18,-1
 506 0 l 1,19,-1
 335 0 l 1,2,-1
326.5 138 m 128,-1,21
 353 174 353 174 369 239 c 1,22,-1
 374 278 l 2,23,24
 383 344 383 344 365.5 379 c 128,-1,25
 348 414 348 414 308 414 c 0,26,27
 266 414 266 414 235 376 c 128,-1,28
 204 338 204 338 193 264 c 0,29,30
 182 189 182 189 203 145.5 c 128,-1,31
 224 102 224 102 266 102 c 0,32,20
 300 102 300 102 326.5 138 c 128,-1,21
480 628 m 1,33,-1
 200 560 l 1,34,-1
 186 630 l 1,35,-1
 458 734 l 1,36,-1
 480 628 l 1,33,-1
EndSplineSet
EndChar

StartChar: acircumflex
Encoding: 226 226 163
Width: 577
GlyphClass: 2
Flags: W
AnchorPoint: "Anchor-5" -46 0 basechar 0
AnchorPoint: "Anchor-4" -46 0 basechar 0
AnchorPoint: "Anchor-3" 243 517 basechar 0
AnchorPoint: "Anchor-2" 445 11 basechar 0
LayerCount: 2
Fore
SplineSet
506 0 m 1,0,-1
 335 0 l 1,1,-1
 506 0 l 1,0,-1
335 0 m 1,2,-1
 342 48 l 1,3,4
 303 16 303 16 266.5 3 c 128,-1,5
 230 -10 230 -10 193 -10 c 0,6,7
 101 -10 101 -10 51.5 57.5 c 128,-1,8
 2 125 2 125 21 261 c 0,9,10
 33 349 33 349 68.5 408.5 c 128,-1,11
 104 468 104 468 154.5 497.5 c 128,-1,12
 205 527 205 527 262 527 c 0,13,14
 303 527 303 527 339 511.5 c 128,-1,15
 375 496 375 496 400 471 c 1,16,-1
 407 517 l 1,17,-1
 579 517 l 1,18,-1
 506 0 l 1,19,-1
 335 0 l 1,2,-1
326.5 138 m 128,-1,21
 353 174 353 174 369 239 c 1,22,-1
 374 278 l 2,23,24
 383 344 383 344 365.5 379 c 128,-1,25
 348 414 348 414 308 414 c 0,26,27
 266 414 266 414 235 376 c 128,-1,28
 204 338 204 338 193 264 c 0,29,30
 182 189 182 189 203 145.5 c 128,-1,31
 224 102 224 102 266 102 c 0,32,20
 300 102 300 102 326.5 138 c 128,-1,21
336 666 m 1,33,-1
 253 588 l 1,34,-1
 133 588 l 1,35,-1
 288 731 l 1,36,-1
 404 731 l 1,37,-1
 516 588 l 1,38,-1
 389 588 l 1,39,-1
 336 666 l 1,33,-1
EndSplineSet
EndChar

StartChar: atilde
Encoding: 227 227 164
Width: 577
GlyphClass: 2
Flags: W
AnchorPoint: "Anchor-5" -46 0 basechar 0
AnchorPoint: "Anchor-4" -46 0 basechar 0
AnchorPoint: "Anchor-3" 243 517 basechar 0
AnchorPoint: "Anchor-2" 445 11 basechar 0
LayerCount: 2
Fore
SplineSet
506 0 m 1,0,-1
 335 0 l 1,1,-1
 506 0 l 1,0,-1
335 0 m 1,2,-1
 342 48 l 1,3,4
 303 16 303 16 266.5 3 c 128,-1,5
 230 -10 230 -10 193 -10 c 0,6,7
 101 -10 101 -10 51.5 57.5 c 128,-1,8
 2 125 2 125 21 261 c 0,9,10
 33 349 33 349 68.5 408.5 c 128,-1,11
 104 468 104 468 154.5 497.5 c 128,-1,12
 205 527 205 527 262 527 c 0,13,14
 303 527 303 527 339 511.5 c 128,-1,15
 375 496 375 496 400 471 c 1,16,-1
 407 517 l 1,17,-1
 579 517 l 1,18,-1
 506 0 l 1,19,-1
 335 0 l 1,2,-1
326.5 138 m 128,-1,21
 353 174 353 174 369 239 c 1,22,-1
 374 278 l 2,23,24
 383 344 383 344 365.5 379 c 128,-1,25
 348 414 348 414 308 414 c 0,26,27
 266 414 266 414 235 376 c 128,-1,28
 204 338 204 338 193 264 c 0,29,30
 182 189 182 189 203 145.5 c 128,-1,31
 224 102 224 102 266 102 c 0,32,20
 300 102 300 102 326.5 138 c 128,-1,21
460 612 m 128,-1,34
 435 604 435 604 407 604 c 0,35,36
 388 604 388 604 372.5 607.5 c 128,-1,37
 357 611 357 611 331 619 c 0,38,39
 314 624 314 624 295.5 628.5 c 128,-1,40
 277 633 277 633 260 633 c 0,41,42
 240 633 240 633 224.5 627.5 c 128,-1,43
 209 622 209 622 190 609 c 0,44,45
 182 604 182 604 178 604 c 0,46,47
 172 604 172 604 170 616 c 2,48,-1
 162 663 l 2,49,50
 161 665 161 665 160.5 667.5 c 128,-1,51
 160 670 160 670 161 674 c 0,52,53
 162 680 162 680 173 690 c 0,54,55
 195 708 195 708 217 717.5 c 128,-1,56
 239 727 239 727 268 727 c 0,57,58
 288 727 288 727 306.5 723 c 128,-1,59
 325 719 325 719 353 710 c 0,60,61
 370 705 370 705 387.5 700.5 c 128,-1,62
 405 696 405 696 419 696 c 0,63,64
 455 696 455 696 493 721 c 0,65,66
 500 725 500 725 504 725 c 0,67,68
 513 725 513 725 514 714 c 2,69,-1
 518 657 l 2,70,71
 519 655 519 655 518 650 c 0,72,73
 517 641 517 641 503 631 c 0,74,33
 485 620 485 620 460 612 c 128,-1,34
EndSplineSet
EndChar

StartChar: adieresis
Encoding: 228 228 165
Width: 577
GlyphClass: 2
Flags: W
AnchorPoint: "Anchor-5" -46 0 basechar 0
AnchorPoint: "Anchor-4" -46 0 basechar 0
AnchorPoint: "Anchor-3" 243 517 basechar 0
AnchorPoint: "Anchor-2" 445 11 basechar 0
LayerCount: 2
Fore
SplineSet
506 0 m 1,0,-1
 335 0 l 1,1,-1
 506 0 l 1,0,-1
335 0 m 1,2,-1
 342 48 l 1,3,4
 303 16 303 16 266.5 3 c 128,-1,5
 230 -10 230 -10 193 -10 c 0,6,7
 101 -10 101 -10 51.5 57.5 c 128,-1,8
 2 125 2 125 21 261 c 0,9,10
 33 349 33 349 68.5 408.5 c 128,-1,11
 104 468 104 468 154.5 497.5 c 128,-1,12
 205 527 205 527 262 527 c 0,13,14
 303 527 303 527 339 511.5 c 128,-1,15
 375 496 375 496 400 471 c 1,16,-1
 407 517 l 1,17,-1
 579 517 l 1,18,-1
 506 0 l 1,19,-1
 335 0 l 1,2,-1
326.5 138 m 128,-1,21
 353 174 353 174 369 239 c 1,22,-1
 374 278 l 2,23,24
 383 344 383 344 365.5 379 c 128,-1,25
 348 414 348 414 308 414 c 0,26,27
 266 414 266 414 235 376 c 128,-1,28
 204 338 204 338 193 264 c 0,29,30
 182 189 182 189 203 145.5 c 128,-1,31
 224 102 224 102 266 102 c 0,32,20
 300 102 300 102 326.5 138 c 128,-1,21
292 591 m 1,33,-1
 145 591 l 1,34,-1
 164 723 l 1,35,-1
 311 723 l 1,36,-1
 292 591 l 1,33,-1
507 591 m 1,37,-1
 359 591 l 1,38,-1
 378 723 l 1,39,-1
 526 723 l 1,40,-1
 507 591 l 1,37,-1
EndSplineSet
EndChar

StartChar: aring
Encoding: 229 229 166
Width: 577
GlyphClass: 2
Flags: W
AnchorPoint: "Anchor-5" -46 0 basechar 0
AnchorPoint: "Anchor-4" -46 0 basechar 0
AnchorPoint: "Anchor-3" 243 517 basechar 0
AnchorPoint: "Anchor-2" 445 11 basechar 0
LayerCount: 2
Fore
SplineSet
506 0 m 1,0,-1
 335 0 l 1,1,-1
 506 0 l 1,0,-1
335 0 m 1,2,-1
 342 48 l 1,3,4
 303 16 303 16 266.5 3 c 128,-1,5
 230 -10 230 -10 193 -10 c 0,6,7
 101 -10 101 -10 51.5 57.5 c 128,-1,8
 2 125 2 125 21 261 c 0,9,10
 33 349 33 349 68.5 408.5 c 128,-1,11
 104 468 104 468 154.5 497.5 c 128,-1,12
 205 527 205 527 262 527 c 0,13,14
 303 527 303 527 339 511.5 c 128,-1,15
 375 496 375 496 400 471 c 1,16,-1
 407 517 l 1,17,-1
 579 517 l 1,18,-1
 506 0 l 1,19,-1
 335 0 l 1,2,-1
326.5 138 m 128,-1,21
 353 174 353 174 369 239 c 1,22,-1
 374 278 l 2,23,24
 383 344 383 344 365.5 379 c 128,-1,25
 348 414 348 414 308 414 c 0,26,27
 266 414 266 414 235 376 c 128,-1,28
 204 338 204 338 193 264 c 0,29,30
 182 189 182 189 203 145.5 c 128,-1,31
 224 102 224 102 266 102 c 0,32,20
 300 102 300 102 326.5 138 c 128,-1,21
406 595.5 m 128,-1,34
 369 563 369 563 322 563 c 0,35,36
 276 563 276 563 248 596 c 128,-1,37
 220 629 220 629 227 676 c 0,38,39
 233 721 233 721 270 752.5 c 128,-1,40
 307 784 307 784 353 784 c 0,41,42
 400 784 400 784 428 752 c 128,-1,43
 456 720 456 720 449 674 c 0,44,33
 443 628 443 628 406 595.5 c 128,-1,34
375 707.5 m 128,-1,46
 363 721 363 721 343 721 c 128,-1,47
 323 721 323 721 306.5 707.5 c 128,-1,48
 290 694 290 694 287 673 c 0,49,50
 284 654 284 654 297 639 c 128,-1,51
 310 624 310 624 329 624 c 0,52,53
 349 624 349 624 365.5 639 c 128,-1,54
 382 654 382 654 384 673 c 0,55,45
 387 694 387 694 375 707.5 c 128,-1,46
EndSplineSet
EndChar

StartChar: ae
Encoding: 230 230 167
Width: 909
GlyphClass: 2
Flags: W
AnchorPoint: "Anchor-5" -46 0 basechar 0
AnchorPoint: "Anchor-4" -46 0 basechar 0
AnchorPoint: "Anchor-3" 406 517 basechar 0
AnchorPoint: "Anchor-2" -46 0 basechar 0
LayerCount: 2
Fore
SplineSet
537.5 138 m 128,-1,1
 566 105 566 105 615 105 c 0,2,3
 649 105 649 105 679.5 120.5 c 128,-1,4
 710 136 710 136 748 172 c 1,5,-1
 847 128 l 1,6,7
 786 51 786 51 724.5 20.5 c 128,-1,8
 663 -10 663 -10 577 -10 c 0,9,10
 514 -10 514 -10 465.5 13 c 128,-1,11
 417 36 417 36 387 75 c 0,12,13
 382 79 382 79 377 75 c 0,14,15
 327 32 327 32 274 11 c 128,-1,16
 221 -10 221 -10 151 -10 c 0,17,18
 71 -10 71 -10 32.5 30.5 c 128,-1,19
 -6 71 -6 71 3 138 c 0,20,21
 14 217 14 217 91 264.5 c 128,-1,22
 168 312 168 312 303 319 c 2,23,-1
 357 323 l 1,24,-1
 362 354 l 2,25,26
 367 387 367 387 351 404.5 c 128,-1,27
 335 422 335 422 299 422 c 0,28,29
 233 422 233 422 194 357 c 1,30,-1
 53 388 l 1,31,32
 94 459 94 459 154.5 493 c 128,-1,33
 215 527 215 527 319 527 c 0,34,35
 446 526 446 526 492 476 c 1,36,37
 527 501 527 501 567 514 c 128,-1,38
 607 527 607 527 649 527 c 0,39,40
 724 527 724 527 778 491.5 c 128,-1,41
 832 456 832 456 855.5 388 c 128,-1,42
 879 320 879 320 866 227 c 1,43,-1
 517 227 l 1,44,0
 509 171 509 171 537.5 138 c 128,-1,1
571 396.5 m 128,-1,46
 540 369 540 369 533 319 c 1,47,-1
 713 318 l 1,48,49
 718 356 718 356 700 390 c 128,-1,50
 682 424 682 424 642 424 c 128,-1,45
 602 424 602 424 571 396.5 c 128,-1,46
302 233 m 2,51,52
 256 230 256 230 216.5 208 c 128,-1,53
 177 186 177 186 172 149 c 0,54,55
 168 124 168 124 183.5 108.5 c 128,-1,56
 199 93 199 93 231 93 c 0,57,58
 269 93 269 93 299.5 111.5 c 128,-1,59
 330 130 330 130 334 159 c 2,60,-1
 345 236 l 1,61,-1
 302 233 l 2,51,52
EndSplineSet
EndChar

StartChar: ccedilla
Encoding: 231 231 168
Width: 535
GlyphClass: 2
Flags: W
AnchorPoint: "Anchor-5" -46 0 basechar 0
AnchorPoint: "Anchor-4" 238 0 basechar 0
AnchorPoint: "Anchor-3" 239 517 basechar 0
AnchorPoint: "Anchor-2" -46 0 basechar 0
LayerCount: 2
Fore
SplineSet
423 499.5 m 128,-1,1
 467 472 467 472 487 425.5 c 128,-1,2
 507 379 507 379 504 323 c 1,3,-1
 366 320 l 1,4,5
 358 357 358 357 344 378.5 c 128,-1,6
 330 400 330 400 296 400 c 0,7,8
 250 400 250 400 218.5 363 c 128,-1,9
 187 326 187 326 177 258 c 0,10,11
 167 189 167 189 190 149 c 128,-1,12
 213 109 213 109 259 109 c 0,13,14
 293 109 293 109 314.5 132.5 c 128,-1,15
 336 156 336 156 351 189 c 1,16,-1
 484 186 l 1,17,18
 473 133 473 133 439.5 88 c 128,-1,19
 406 43 406 43 354 16.5 c 128,-1,20
 302 -10 302 -10 238 -10 c 0,21,22
 165 -10 165 -10 111.5 23.5 c 128,-1,23
 58 57 58 57 33.5 117.5 c 128,-1,24
 9 178 9 178 20 256 c 0,25,26
 31 335 31 335 72 396.5 c 128,-1,27
 113 458 113 458 176 492.5 c 128,-1,28
 239 527 239 527 313 527 c 0,29,0
 379 527 379 527 423 499.5 c 128,-1,1
299.5 -193 m 128,-1,31
 260 -216 260 -216 208 -216 c 0,32,33
 130 -216 130 -216 88 -188 c 1,34,-1
 117 -134 l 1,35,36
 157 -159 157 -159 195 -159 c 0,37,38
 217 -159 217 -159 231 -151.5 c 128,-1,39
 245 -144 245 -144 247 -131 c 0,40,41
 250 -111 250 -111 231 -101 c 128,-1,42
 212 -91 212 -91 165 -91 c 0,43,44
 158 -91 158 -91 156 -89 c 128,-1,45
 154 -87 154 -87 158 -80 c 2,46,-1
 207 5 l 1,47,-1
 279 5 l 1,48,-1
 249 -53 l 1,49,50
 303 -54 303 -54 326 -78 c 128,-1,51
 349 -102 349 -102 344 -133 c 0,52,30
 339 -170 339 -170 299.5 -193 c 128,-1,31
EndSplineSet
EndChar

StartChar: egrave
Encoding: 232 232 169
Width: 564
GlyphClass: 2
Flags: W
AnchorPoint: "Anchor-5" -46 0 basechar 0
AnchorPoint: "Anchor-4" 242 0 basechar 0
AnchorPoint: "Anchor-3" 241 517 basechar 0
AnchorPoint: "Anchor-2" 364 24 basechar 0
LayerCount: 2
Fore
SplineSet
196.5 139.5 m 128,-1,1
 218 111 218 111 260 111 c 0,2,3
 294 111 294 111 318.5 124 c 128,-1,4
 343 137 343 137 360 168 c 1,5,-1
 510 165 l 1,6,7
 495 112 495 112 454 72.5 c 128,-1,8
 413 33 413 33 358.5 11.5 c 128,-1,9
 304 -10 304 -10 248 -10 c 0,10,11
 170 -10 170 -10 114.5 22.5 c 128,-1,12
 59 55 59 55 33.5 114.5 c 128,-1,13
 8 174 8 174 19 252 c 0,14,15
 30 329 30 329 69.5 391.5 c 128,-1,16
 109 454 109 454 172 490.5 c 128,-1,17
 235 527 235 527 314 527 c 0,18,19
 433 527 433 527 487 454 c 128,-1,20
 541 381 541 381 524 262 c 2,21,-1
 518 219 l 1,22,-1
 182 219 l 1,23,0
 175 168 175 168 196.5 139.5 c 128,-1,1
375 317 m 1,24,25
 381 357 381 357 361 383.5 c 128,-1,26
 341 410 341 410 298 410 c 0,27,28
 259 410 259 410 230 382 c 128,-1,29
 201 354 201 354 196 317 c 1,30,-1
 375 317 l 1,24,25
473 630 m 1,31,-1
 440 560 l 1,32,-1
 178 628 l 1,33,-1
 230 734 l 1,34,-1
 473 630 l 1,31,-1
EndSplineSet
EndChar

StartChar: eacute
Encoding: 233 233 170
Width: 564
GlyphClass: 2
Flags: W
AnchorPoint: "Anchor-5" -46 0 basechar 0
AnchorPoint: "Anchor-4" 242 0 basechar 0
AnchorPoint: "Anchor-3" 241 517 basechar 0
AnchorPoint: "Anchor-2" 364 24 basechar 0
LayerCount: 2
Fore
SplineSet
196.5 139.5 m 128,-1,1
 218 111 218 111 260 111 c 0,2,3
 294 111 294 111 318.5 124 c 128,-1,4
 343 137 343 137 360 168 c 1,5,-1
 510 165 l 1,6,7
 495 112 495 112 454 72.5 c 128,-1,8
 413 33 413 33 358.5 11.5 c 128,-1,9
 304 -10 304 -10 248 -10 c 0,10,11
 170 -10 170 -10 114.5 22.5 c 128,-1,12
 59 55 59 55 33.5 114.5 c 128,-1,13
 8 174 8 174 19 252 c 0,14,15
 30 329 30 329 69.5 391.5 c 128,-1,16
 109 454 109 454 172 490.5 c 128,-1,17
 235 527 235 527 314 527 c 0,18,19
 433 527 433 527 487 454 c 128,-1,20
 541 381 541 381 524 262 c 2,21,-1
 518 219 l 1,22,-1
 182 219 l 1,23,0
 175 168 175 168 196.5 139.5 c 128,-1,1
375 317 m 1,24,25
 381 357 381 357 361 383.5 c 128,-1,26
 341 410 341 410 298 410 c 0,27,28
 259 410 259 410 230 382 c 128,-1,29
 201 354 201 354 196 317 c 1,30,-1
 375 317 l 1,24,25
478 628 m 1,31,-1
 198 560 l 1,32,-1
 184 630 l 1,33,-1
 456 734 l 1,34,-1
 478 628 l 1,31,-1
EndSplineSet
EndChar

StartChar: ecircumflex
Encoding: 234 234 171
Width: 564
GlyphClass: 2
Flags: W
AnchorPoint: "Anchor-5" -46 0 basechar 0
AnchorPoint: "Anchor-4" 242 0 basechar 0
AnchorPoint: "Anchor-3" 241 517 basechar 0
AnchorPoint: "Anchor-2" 364 24 basechar 0
LayerCount: 2
Fore
SplineSet
196.5 139.5 m 128,-1,1
 218 111 218 111 260 111 c 0,2,3
 294 111 294 111 318.5 124 c 128,-1,4
 343 137 343 137 360 168 c 1,5,-1
 510 165 l 1,6,7
 495 112 495 112 454 72.5 c 128,-1,8
 413 33 413 33 358.5 11.5 c 128,-1,9
 304 -10 304 -10 248 -10 c 0,10,11
 170 -10 170 -10 114.5 22.5 c 128,-1,12
 59 55 59 55 33.5 114.5 c 128,-1,13
 8 174 8 174 19 252 c 0,14,15
 30 329 30 329 69.5 391.5 c 128,-1,16
 109 454 109 454 172 490.5 c 128,-1,17
 235 527 235 527 314 527 c 0,18,19
 433 527 433 527 487 454 c 128,-1,20
 541 381 541 381 524 262 c 2,21,-1
 518 219 l 1,22,-1
 182 219 l 1,23,0
 175 168 175 168 196.5 139.5 c 128,-1,1
375 317 m 1,24,25
 381 357 381 357 361 383.5 c 128,-1,26
 341 410 341 410 298 410 c 0,27,28
 259 410 259 410 230 382 c 128,-1,29
 201 354 201 354 196 317 c 1,30,-1
 375 317 l 1,24,25
334 666 m 1,31,-1
 251 588 l 1,32,-1
 131 588 l 1,33,-1
 286 731 l 1,34,-1
 402 731 l 1,35,-1
 514 588 l 1,36,-1
 387 588 l 1,37,-1
 334 666 l 1,31,-1
EndSplineSet
EndChar

StartChar: edieresis
Encoding: 235 235 172
Width: 564
GlyphClass: 2
Flags: W
AnchorPoint: "Anchor-5" -46 0 basechar 0
AnchorPoint: "Anchor-4" 242 0 basechar 0
AnchorPoint: "Anchor-3" 241 517 basechar 0
AnchorPoint: "Anchor-2" 364 24 basechar 0
LayerCount: 2
Fore
SplineSet
196.5 139.5 m 128,-1,1
 218 111 218 111 260 111 c 0,2,3
 294 111 294 111 318.5 124 c 128,-1,4
 343 137 343 137 360 168 c 1,5,-1
 510 165 l 1,6,7
 495 112 495 112 454 72.5 c 128,-1,8
 413 33 413 33 358.5 11.5 c 128,-1,9
 304 -10 304 -10 248 -10 c 0,10,11
 170 -10 170 -10 114.5 22.5 c 128,-1,12
 59 55 59 55 33.5 114.5 c 128,-1,13
 8 174 8 174 19 252 c 0,14,15
 30 329 30 329 69.5 391.5 c 128,-1,16
 109 454 109 454 172 490.5 c 128,-1,17
 235 527 235 527 314 527 c 0,18,19
 433 527 433 527 487 454 c 128,-1,20
 541 381 541 381 524 262 c 2,21,-1
 518 219 l 1,22,-1
 182 219 l 1,23,0
 175 168 175 168 196.5 139.5 c 128,-1,1
375 317 m 1,24,25
 381 357 381 357 361 383.5 c 128,-1,26
 341 410 341 410 298 410 c 0,27,28
 259 410 259 410 230 382 c 128,-1,29
 201 354 201 354 196 317 c 1,30,-1
 375 317 l 1,24,25
290 591 m 1,31,-1
 143 591 l 1,32,-1
 162 723 l 1,33,-1
 309 723 l 1,34,-1
 290 591 l 1,31,-1
505 591 m 1,35,-1
 357 591 l 1,36,-1
 376 723 l 1,37,-1
 524 723 l 1,38,-1
 505 591 l 1,35,-1
EndSplineSet
EndChar

StartChar: igrave
Encoding: 236 236 173
Width: 293
GlyphClass: 2
Flags: W
AnchorPoint: "Anchor-5" -46 0 basechar 0
AnchorPoint: "Anchor-4" -46 0 basechar 0
AnchorPoint: "Anchor-3" 104 517 basechar 0
AnchorPoint: "Anchor-2" 161 10 basechar 0
LayerCount: 2
Fore
SplineSet
186 0 m 1,0,-1
 15 0 l 1,1,-1
 88 517 l 1,2,-1
 259 517 l 1,3,-1
 186 0 l 1,0,-1
336 630 m 1,4,-1
 303 560 l 1,5,-1
 41 628 l 1,6,-1
 93 734 l 1,7,-1
 336 630 l 1,4,-1
EndSplineSet
EndChar

StartChar: iacute
Encoding: 237 237 174
Width: 293
GlyphClass: 2
Flags: W
AnchorPoint: "Anchor-5" -46 0 basechar 0
AnchorPoint: "Anchor-4" -46 0 basechar 0
AnchorPoint: "Anchor-3" 104 517 basechar 0
AnchorPoint: "Anchor-2" 161 10 basechar 0
LayerCount: 2
Fore
SplineSet
186 0 m 1,0,-1
 15 0 l 1,1,-1
 88 517 l 1,2,-1
 259 517 l 1,3,-1
 186 0 l 1,0,-1
341 628 m 1,4,-1
 61 560 l 1,5,-1
 47 630 l 1,6,-1
 319 734 l 1,7,-1
 341 628 l 1,4,-1
EndSplineSet
EndChar

StartChar: icircumflex
Encoding: 238 238 175
Width: 293
GlyphClass: 2
Flags: W
AnchorPoint: "Anchor-5" -46 0 basechar 0
AnchorPoint: "Anchor-4" -46 0 basechar 0
AnchorPoint: "Anchor-3" 104 517 basechar 0
AnchorPoint: "Anchor-2" 161 10 basechar 0
LayerCount: 2
Fore
SplineSet
186 0 m 1,0,-1
 15 0 l 1,1,-1
 88 517 l 1,2,-1
 259 517 l 1,3,-1
 186 0 l 1,0,-1
197 666 m 1,4,-1
 114 588 l 1,5,-1
 -6 588 l 1,6,-1
 149 731 l 1,7,-1
 265 731 l 1,8,-1
 377 588 l 1,9,-1
 250 588 l 1,10,-1
 197 666 l 1,4,-1
EndSplineSet
EndChar

StartChar: idieresis
Encoding: 239 239 176
Width: 293
GlyphClass: 2
Flags: W
AnchorPoint: "Anchor-5" -46 0 basechar 0
AnchorPoint: "Anchor-4" -46 0 basechar 0
AnchorPoint: "Anchor-3" 104 517 basechar 0
AnchorPoint: "Anchor-2" 161 10 basechar 0
LayerCount: 2
Fore
SplineSet
186 0 m 1,0,-1
 15 0 l 1,1,-1
 88 517 l 1,2,-1
 259 517 l 1,3,-1
 186 0 l 1,0,-1
153 591 m 1,4,-1
 6 591 l 1,5,-1
 25 723 l 1,6,-1
 172 723 l 1,7,-1
 153 591 l 1,4,-1
368 591 m 1,8,-1
 220 591 l 1,9,-1
 239 723 l 1,10,-1
 387 723 l 1,11,-1
 368 591 l 1,8,-1
EndSplineSet
EndChar

StartChar: eth
Encoding: 240 240 177
Width: 592
GlyphClass: 2
Flags: W
LayerCount: 2
Fore
SplineSet
500.5 122.5 m 128,-1,1
 458 59 458 59 393 24.5 c 128,-1,2
 328 -10 328 -10 248 -10 c 0,3,4
 171 -10 171 -10 115.5 23 c 128,-1,5
 60 56 60 56 34 114.5 c 128,-1,6
 8 173 8 173 19 246 c 0,7,8
 30 321 30 321 72.5 380.5 c 128,-1,9
 115 440 115 440 180 473.5 c 128,-1,10
 245 507 245 507 320 507 c 0,11,12
 341 507 341 507 347 501 c 1,13,14
 324 547 324 547 279 584 c 1,15,-1
 152 518 l 1,16,-1
 128 568 l 1,17,-1
 228 618 l 1,18,19
 185 642 185 642 137 660 c 1,20,-1
 237 734 l 1,21,22
 308 715 308 715 360 687 c 1,23,-1
 457 737 l 1,24,-1
 477 686 l 1,25,-1
 413 652 l 1,26,27
 498 586 498 586 535 487 c 128,-1,28
 572 388 572 388 555 271 c 0,29,0
 543 186 543 186 500.5 122.5 c 128,-1,1
340 139 m 128,-1,31
 369 177 369 177 379 250 c 128,-1,32
 389 323 389 323 370.5 361 c 128,-1,33
 352 399 352 399 306 399 c 0,34,35
 261 399 261 399 231 360.5 c 128,-1,36
 201 322 201 322 191 250 c 128,-1,37
 181 178 181 178 200 139.5 c 128,-1,38
 219 101 219 101 264 101 c 0,39,30
 311 101 311 101 340 139 c 128,-1,31
EndSplineSet
EndChar

StartChar: ntilde
Encoding: 241 241 178
Width: 617
GlyphClass: 2
Flags: W
AnchorPoint: "Anchor-5" -46 0 basechar 0
AnchorPoint: "Anchor-4" 262 0 basechar 0
AnchorPoint: "Anchor-3" 264 517 basechar 0
AnchorPoint: "Anchor-2" -46 0 basechar 0
LayerCount: 2
Fore
SplineSet
88 517 m 1,0,-1
 257 517 l 1,1,-1
 248 453 l 1,2,3
 282 486 282 486 314 503 c 128,-1,4
 346 520 346 520 401 520 c 0,5,6
 448 520 448 520 486.5 498 c 128,-1,7
 525 476 525 476 545 436 c 128,-1,8
 565 396 565 396 558 347 c 2,9,-1
 509 0 l 1,10,-1
 339 0 l 1,11,-1
 385 325 l 2,12,13
 389 354 389 354 370 371.5 c 128,-1,14
 351 389 351 389 321 389 c 0,15,16
 290 389 290 389 263 372.5 c 128,-1,17
 236 356 236 356 232 329 c 2,18,-1
 186 0 l 1,19,-1
 15 0 l 1,20,-1
 88 517 l 1,0,-1
481 612 m 128,-1,22
 456 604 456 604 428 604 c 0,23,24
 409 604 409 604 393.5 607.5 c 128,-1,25
 378 611 378 611 352 619 c 0,26,27
 335 624 335 624 316.5 628.5 c 128,-1,28
 298 633 298 633 281 633 c 0,29,30
 261 633 261 633 245.5 627.5 c 128,-1,31
 230 622 230 622 211 609 c 0,32,33
 203 604 203 604 199 604 c 0,34,35
 193 604 193 604 191 616 c 2,36,-1
 183 663 l 2,37,38
 182 665 182 665 181.5 667.5 c 128,-1,39
 181 670 181 670 182 674 c 0,40,41
 183 680 183 680 194 690 c 0,42,43
 216 708 216 708 238 717.5 c 128,-1,44
 260 727 260 727 289 727 c 0,45,46
 309 727 309 727 327.5 723 c 128,-1,47
 346 719 346 719 374 710 c 0,48,49
 391 705 391 705 408.5 700.5 c 128,-1,50
 426 696 426 696 440 696 c 0,51,52
 476 696 476 696 514 721 c 0,53,54
 521 725 521 725 525 725 c 0,55,56
 534 725 534 725 535 714 c 2,57,-1
 539 657 l 2,58,59
 540 655 540 655 539 650 c 0,60,61
 538 641 538 641 524 631 c 0,62,21
 506 620 506 620 481 612 c 128,-1,22
EndSplineSet
EndChar

StartChar: ograve
Encoding: 242 242 179
Width: 572
GlyphClass: 2
Flags: W
AnchorPoint: "Anchor-5" -46 0 basechar 0
AnchorPoint: "Anchor-4" 238 0 basechar 0
AnchorPoint: "Anchor-3" 241 517 basechar 0
AnchorPoint: "Anchor-2" 314 10 basechar 0
LayerCount: 2
Fore
SplineSet
107.5 23.5 m 128,-1,1
 54 57 54 57 31.5 117.5 c 128,-1,2
 9 178 9 178 20 255 c 0,3,4
 31 335 31 335 72.5 397 c 128,-1,5
 114 459 114 459 176.5 493 c 128,-1,6
 239 527 239 527 315 527 c 0,7,8
 392 527 392 527 445 492 c 128,-1,9
 498 457 498 457 520.5 395.5 c 128,-1,10
 543 334 543 334 532 255 c 0,11,12
 521 178 521 178 481.5 118 c 128,-1,13
 442 58 442 58 379.5 24 c 128,-1,14
 317 -10 317 -10 239 -10 c 128,-1,0
 161 -10 161 -10 107.5 23.5 c 128,-1,1
331.5 157.5 m 128,-1,16
 358 200 358 200 367 261 c 128,-1,17
 376 322 376 322 361 363 c 128,-1,18
 346 404 346 404 298 404 c 0,19,20
 249 404 249 404 222 363 c 128,-1,21
 195 322 195 322 187 261 c 0,22,23
 178 200 178 200 193 157.5 c 128,-1,24
 208 115 208 115 257 115 c 0,25,15
 305 115 305 115 331.5 157.5 c 128,-1,16
473 630 m 1,26,-1
 440 560 l 1,27,-1
 178 628 l 1,28,-1
 230 734 l 1,29,-1
 473 630 l 1,26,-1
EndSplineSet
EndChar

StartChar: oacute
Encoding: 243 243 180
Width: 572
GlyphClass: 2
Flags: W
AnchorPoint: "Anchor-5" -46 0 basechar 0
AnchorPoint: "Anchor-4" 238 0 basechar 0
AnchorPoint: "Anchor-3" 241 517 basechar 0
AnchorPoint: "Anchor-2" 314 10 basechar 0
LayerCount: 2
Fore
SplineSet
107.5 23.5 m 128,-1,1
 54 57 54 57 31.5 117.5 c 128,-1,2
 9 178 9 178 20 255 c 0,3,4
 31 335 31 335 72.5 397 c 128,-1,5
 114 459 114 459 176.5 493 c 128,-1,6
 239 527 239 527 315 527 c 0,7,8
 392 527 392 527 445 492 c 128,-1,9
 498 457 498 457 520.5 395.5 c 128,-1,10
 543 334 543 334 532 255 c 0,11,12
 521 178 521 178 481.5 118 c 128,-1,13
 442 58 442 58 379.5 24 c 128,-1,14
 317 -10 317 -10 239 -10 c 128,-1,0
 161 -10 161 -10 107.5 23.5 c 128,-1,1
331.5 157.5 m 128,-1,16
 358 200 358 200 367 261 c 128,-1,17
 376 322 376 322 361 363 c 128,-1,18
 346 404 346 404 298 404 c 0,19,20
 249 404 249 404 222 363 c 128,-1,21
 195 322 195 322 187 261 c 0,22,23
 178 200 178 200 193 157.5 c 128,-1,24
 208 115 208 115 257 115 c 0,25,15
 305 115 305 115 331.5 157.5 c 128,-1,16
478 628 m 1,26,-1
 198 560 l 1,27,-1
 184 630 l 1,28,-1
 456 734 l 1,29,-1
 478 628 l 1,26,-1
EndSplineSet
EndChar

StartChar: ocircumflex
Encoding: 244 244 181
Width: 572
GlyphClass: 2
Flags: W
AnchorPoint: "Anchor-5" -46 0 basechar 0
AnchorPoint: "Anchor-4" 238 0 basechar 0
AnchorPoint: "Anchor-3" 241 517 basechar 0
AnchorPoint: "Anchor-2" 314 10 basechar 0
LayerCount: 2
Fore
SplineSet
107.5 23.5 m 128,-1,1
 54 57 54 57 31.5 117.5 c 128,-1,2
 9 178 9 178 20 255 c 0,3,4
 31 335 31 335 72.5 397 c 128,-1,5
 114 459 114 459 176.5 493 c 128,-1,6
 239 527 239 527 315 527 c 0,7,8
 392 527 392 527 445 492 c 128,-1,9
 498 457 498 457 520.5 395.5 c 128,-1,10
 543 334 543 334 532 255 c 0,11,12
 521 178 521 178 481.5 118 c 128,-1,13
 442 58 442 58 379.5 24 c 128,-1,14
 317 -10 317 -10 239 -10 c 128,-1,0
 161 -10 161 -10 107.5 23.5 c 128,-1,1
331.5 157.5 m 128,-1,16
 358 200 358 200 367 261 c 128,-1,17
 376 322 376 322 361 363 c 128,-1,18
 346 404 346 404 298 404 c 0,19,20
 249 404 249 404 222 363 c 128,-1,21
 195 322 195 322 187 261 c 0,22,23
 178 200 178 200 193 157.5 c 128,-1,24
 208 115 208 115 257 115 c 0,25,15
 305 115 305 115 331.5 157.5 c 128,-1,16
334 666 m 1,26,-1
 251 588 l 1,27,-1
 131 588 l 1,28,-1
 286 731 l 1,29,-1
 402 731 l 1,30,-1
 514 588 l 1,31,-1
 387 588 l 1,32,-1
 334 666 l 1,26,-1
EndSplineSet
EndChar

StartChar: otilde
Encoding: 245 245 182
Width: 572
GlyphClass: 2
Flags: W
AnchorPoint: "Anchor-5" -46 0 basechar 0
AnchorPoint: "Anchor-4" 238 0 basechar 0
AnchorPoint: "Anchor-3" 241 517 basechar 0
AnchorPoint: "Anchor-2" 314 10 basechar 0
LayerCount: 2
Fore
SplineSet
107.5 23.5 m 128,-1,1
 54 57 54 57 31.5 117.5 c 128,-1,2
 9 178 9 178 20 255 c 0,3,4
 31 335 31 335 72.5 397 c 128,-1,5
 114 459 114 459 176.5 493 c 128,-1,6
 239 527 239 527 315 527 c 0,7,8
 392 527 392 527 445 492 c 128,-1,9
 498 457 498 457 520.5 395.5 c 128,-1,10
 543 334 543 334 532 255 c 0,11,12
 521 178 521 178 481.5 118 c 128,-1,13
 442 58 442 58 379.5 24 c 128,-1,14
 317 -10 317 -10 239 -10 c 128,-1,0
 161 -10 161 -10 107.5 23.5 c 128,-1,1
331.5 157.5 m 128,-1,16
 358 200 358 200 367 261 c 128,-1,17
 376 322 376 322 361 363 c 128,-1,18
 346 404 346 404 298 404 c 0,19,20
 249 404 249 404 222 363 c 128,-1,21
 195 322 195 322 187 261 c 0,22,23
 178 200 178 200 193 157.5 c 128,-1,24
 208 115 208 115 257 115 c 0,25,15
 305 115 305 115 331.5 157.5 c 128,-1,16
458 612 m 128,-1,27
 433 604 433 604 405 604 c 0,28,29
 386 604 386 604 370.5 607.5 c 128,-1,30
 355 611 355 611 329 619 c 0,31,32
 312 624 312 624 293.5 628.5 c 128,-1,33
 275 633 275 633 258 633 c 0,34,35
 238 633 238 633 222.5 627.5 c 128,-1,36
 207 622 207 622 188 609 c 0,37,38
 180 604 180 604 176 604 c 0,39,40
 170 604 170 604 168 616 c 2,41,-1
 160 663 l 2,42,43
 159 665 159 665 158.5 667.5 c 128,-1,44
 158 670 158 670 159 674 c 0,45,46
 160 680 160 680 171 690 c 0,47,48
 193 708 193 708 215 717.5 c 128,-1,49
 237 727 237 727 266 727 c 0,50,51
 286 727 286 727 304.5 723 c 128,-1,52
 323 719 323 719 351 710 c 0,53,54
 368 705 368 705 385.5 700.5 c 128,-1,55
 403 696 403 696 417 696 c 0,56,57
 453 696 453 696 491 721 c 0,58,59
 498 725 498 725 502 725 c 0,60,61
 511 725 511 725 512 714 c 2,62,-1
 516 657 l 2,63,64
 517 655 517 655 516 650 c 0,65,66
 515 641 515 641 501 631 c 0,67,26
 483 620 483 620 458 612 c 128,-1,27
EndSplineSet
EndChar

StartChar: odieresis
Encoding: 246 246 183
Width: 572
GlyphClass: 2
Flags: W
AnchorPoint: "Anchor-5" -46 0 basechar 0
AnchorPoint: "Anchor-4" 238 0 basechar 0
AnchorPoint: "Anchor-3" 241 517 basechar 0
AnchorPoint: "Anchor-2" 314 10 basechar 0
LayerCount: 2
Fore
SplineSet
107.5 23.5 m 128,-1,1
 54 57 54 57 31.5 117.5 c 128,-1,2
 9 178 9 178 20 255 c 0,3,4
 31 335 31 335 72.5 397 c 128,-1,5
 114 459 114 459 176.5 493 c 128,-1,6
 239 527 239 527 315 527 c 0,7,8
 392 527 392 527 445 492 c 128,-1,9
 498 457 498 457 520.5 395.5 c 128,-1,10
 543 334 543 334 532 255 c 0,11,12
 521 178 521 178 481.5 118 c 128,-1,13
 442 58 442 58 379.5 24 c 128,-1,14
 317 -10 317 -10 239 -10 c 128,-1,0
 161 -10 161 -10 107.5 23.5 c 128,-1,1
331.5 157.5 m 128,-1,16
 358 200 358 200 367 261 c 128,-1,17
 376 322 376 322 361 363 c 128,-1,18
 346 404 346 404 298 404 c 0,19,20
 249 404 249 404 222 363 c 128,-1,21
 195 322 195 322 187 261 c 0,22,23
 178 200 178 200 193 157.5 c 128,-1,24
 208 115 208 115 257 115 c 0,25,15
 305 115 305 115 331.5 157.5 c 128,-1,16
290 591 m 1,26,-1
 143 591 l 1,27,-1
 162 723 l 1,28,-1
 309 723 l 1,29,-1
 290 591 l 1,26,-1
505 591 m 1,30,-1
 357 591 l 1,31,-1
 376 723 l 1,32,-1
 524 723 l 1,33,-1
 505 591 l 1,30,-1
EndSplineSet
EndChar

StartChar: divide
Encoding: 247 247 184
Width: 598
GlyphClass: 2
Flags: W
LayerCount: 2
Fore
SplineSet
403 489 m 1,0,-1
 234 489 l 1,1,-1
 257 652 l 1,2,-1
 426 652 l 1,3,-1
 403 489 l 1,0,-1
537 303 m 1,4,-1
 46 303 l 1,5,-1
 63 425 l 1,6,-1
 554 425 l 1,7,-1
 537 303 l 1,4,-1
345 76 m 1,8,-1
 176 76 l 1,9,-1
 199 239 l 1,10,-1
 368 239 l 1,11,-1
 345 76 l 1,8,-1
EndSplineSet
EndChar

StartChar: oslash
Encoding: 248 248 185
Width: 604
GlyphClass: 2
Flags: W
AnchorPoint: "Anchor-5" -46 0 basechar 0
AnchorPoint: "Anchor-4" 249 0 basechar 0
AnchorPoint: "Anchor-3" 252 517 basechar 0
AnchorPoint: "Anchor-2" 325 10 basechar 0
LayerCount: 2
Fore
SplineSet
526 409 m 1,0,1
 555 344 555 344 543 255 c 0,2,3
 532 178 532 178 492.5 118 c 128,-1,4
 453 58 453 58 390.5 24 c 128,-1,5
 328 -10 328 -10 250 -10 c 0,6,7
 151 -10 151 -10 89 46 c 1,8,-1
 24 -8 l 1,9,-1
 -21 48 l 1,10,-1
 48 105 l 1,11,12
 19 169 19 169 31 255 c 0,13,14
 42 335 42 335 83.5 397 c 128,-1,15
 125 459 125 459 187.5 493 c 128,-1,16
 250 527 250 527 326 527 c 0,17,18
 427 527 427 527 486 468 c 1,19,-1
 553 524 l 1,20,-1
 597 467 l 1,21,-1
 526 409 l 1,0,1
195 227 m 1,22,-1
 368 371 l 1,23,24
 350 404 350 404 309 404 c 0,25,26
 260 404 260 404 233 363 c 128,-1,27
 206 322 206 322 198 261 c 0,28,29
 196 249 196 249 195 227 c 1,22,-1
380 288 m 1,30,-1
 210 146 l 1,31,32
 229 115 229 115 268 115 c 0,33,34
 316 115 316 115 342.5 157.5 c 128,-1,35
 369 200 369 200 378 261 c 0,36,37
 380 279 380 279 380 288 c 1,30,-1
EndSplineSet
EndChar

StartChar: ugrave
Encoding: 249 249 186
Width: 617
GlyphClass: 2
Flags: W
AnchorPoint: "Anchor-5" -46 0 basechar 0
AnchorPoint: "Anchor-4" 262 0 basechar 0
AnchorPoint: "Anchor-3" 260 517 basechar 0
AnchorPoint: "Anchor-2" 482 10 basechar 0
LayerCount: 2
Fore
SplineSet
120 9.5 m 128,-1,1
 78 29 78 29 54 67 c 128,-1,2
 30 105 30 105 37 156 c 2,3,-1
 88 517 l 1,4,-1
 259 517 l 1,5,-1
 211 179 l 2,6,7
 207 148 207 148 225 130 c 128,-1,8
 243 112 243 112 276 112 c 0,9,10
 311 112 311 112 334.5 130.5 c 128,-1,11
 358 149 358 149 362 180 c 2,12,-1
 410 517 l 1,13,-1
 582 517 l 1,14,-1
 506 0 l 1,15,-1
 379 0 l 1,16,-1
 377 71 l 1,17,18
 350 32 350 32 300.5 11 c 128,-1,19
 251 -10 251 -10 206 -10 c 0,20,0
 162 -10 162 -10 120 9.5 c 128,-1,1
492 630 m 1,21,-1
 459 560 l 1,22,-1
 197 628 l 1,23,-1
 249 734 l 1,24,-1
 492 630 l 1,21,-1
EndSplineSet
EndChar

StartChar: uacute
Encoding: 250 250 187
Width: 617
GlyphClass: 2
Flags: W
AnchorPoint: "Anchor-5" -46 0 basechar 0
AnchorPoint: "Anchor-4" 262 0 basechar 0
AnchorPoint: "Anchor-3" 260 517 basechar 0
AnchorPoint: "Anchor-2" 482 10 basechar 0
LayerCount: 2
Fore
SplineSet
120 9.5 m 128,-1,1
 78 29 78 29 54 67 c 128,-1,2
 30 105 30 105 37 156 c 2,3,-1
 88 517 l 1,4,-1
 259 517 l 1,5,-1
 211 179 l 2,6,7
 207 148 207 148 225 130 c 128,-1,8
 243 112 243 112 276 112 c 0,9,10
 311 112 311 112 334.5 130.5 c 128,-1,11
 358 149 358 149 362 180 c 2,12,-1
 410 517 l 1,13,-1
 582 517 l 1,14,-1
 506 0 l 1,15,-1
 379 0 l 1,16,-1
 377 71 l 1,17,18
 350 32 350 32 300.5 11 c 128,-1,19
 251 -10 251 -10 206 -10 c 0,20,0
 162 -10 162 -10 120 9.5 c 128,-1,1
497 628 m 1,21,-1
 217 560 l 1,22,-1
 203 630 l 1,23,-1
 475 734 l 1,24,-1
 497 628 l 1,21,-1
EndSplineSet
EndChar

StartChar: ucircumflex
Encoding: 251 251 188
Width: 617
GlyphClass: 2
Flags: W
AnchorPoint: "Anchor-5" -46 0 basechar 0
AnchorPoint: "Anchor-4" 262 0 basechar 0
AnchorPoint: "Anchor-3" 260 517 basechar 0
AnchorPoint: "Anchor-2" 482 10 basechar 0
LayerCount: 2
Fore
SplineSet
120 9.5 m 128,-1,1
 78 29 78 29 54 67 c 128,-1,2
 30 105 30 105 37 156 c 2,3,-1
 88 517 l 1,4,-1
 259 517 l 1,5,-1
 211 179 l 2,6,7
 207 148 207 148 225 130 c 128,-1,8
 243 112 243 112 276 112 c 0,9,10
 311 112 311 112 334.5 130.5 c 128,-1,11
 358 149 358 149 362 180 c 2,12,-1
 410 517 l 1,13,-1
 582 517 l 1,14,-1
 506 0 l 1,15,-1
 379 0 l 1,16,-1
 377 71 l 1,17,18
 350 32 350 32 300.5 11 c 128,-1,19
 251 -10 251 -10 206 -10 c 0,20,0
 162 -10 162 -10 120 9.5 c 128,-1,1
353 666 m 1,21,-1
 270 588 l 1,22,-1
 150 588 l 1,23,-1
 305 731 l 1,24,-1
 421 731 l 1,25,-1
 533 588 l 1,26,-1
 406 588 l 1,27,-1
 353 666 l 1,21,-1
EndSplineSet
EndChar

StartChar: udieresis
Encoding: 252 252 189
Width: 617
GlyphClass: 2
Flags: W
AnchorPoint: "Anchor-5" -46 0 basechar 0
AnchorPoint: "Anchor-4" 262 0 basechar 0
AnchorPoint: "Anchor-3" 260 517 basechar 0
AnchorPoint: "Anchor-2" 482 10 basechar 0
LayerCount: 2
Fore
SplineSet
120 9.5 m 128,-1,1
 78 29 78 29 54 67 c 128,-1,2
 30 105 30 105 37 156 c 2,3,-1
 88 517 l 1,4,-1
 259 517 l 1,5,-1
 211 179 l 2,6,7
 207 148 207 148 225 130 c 128,-1,8
 243 112 243 112 276 112 c 0,9,10
 311 112 311 112 334.5 130.5 c 128,-1,11
 358 149 358 149 362 180 c 2,12,-1
 410 517 l 1,13,-1
 582 517 l 1,14,-1
 506 0 l 1,15,-1
 379 0 l 1,16,-1
 377 71 l 1,17,18
 350 32 350 32 300.5 11 c 128,-1,19
 251 -10 251 -10 206 -10 c 0,20,0
 162 -10 162 -10 120 9.5 c 128,-1,1
309 591 m 1,21,-1
 162 591 l 1,22,-1
 181 723 l 1,23,-1
 328 723 l 1,24,-1
 309 591 l 1,21,-1
524 591 m 1,25,-1
 376 591 l 1,26,-1
 395 723 l 1,27,-1
 543 723 l 1,28,-1
 524 591 l 1,25,-1
EndSplineSet
EndChar

StartChar: yacute
Encoding: 253 253 190
Width: 586
GlyphClass: 2
Flags: W
AnchorPoint: "Anchor-5" -46 0 basechar 0
AnchorPoint: "Anchor-4" -46 0 basechar 0
AnchorPoint: "Anchor-3" 268 517 basechar 0
AnchorPoint: "Anchor-2" -46 0 basechar 0
LayerCount: 2
Fore
SplineSet
31 -160.5 m 128,-1,1
 8 -156 8 -156 -3 -151.5 c 128,-1,2
 -14 -147 -14 -147 -15 -145 c 2,3,-1
 0 -37 l 1,4,-1
 50 -40 l 2,5,6
 93 -43 93 -43 117 -34.5 c 128,-1,7
 141 -26 141 -26 149.5 -16 c 128,-1,8
 158 -6 158 -6 165 7 c 2,9,-1
 173 26 l 1,10,-1
 41 517 l 1,11,-1
 209 517 l 1,12,-1
 276 208 l 1,13,-1
 434 517 l 1,14,-1
 600 517 l 1,15,-1
 323 14 l 2,16,17
 284 -57 284 -57 246.5 -96.5 c 128,-1,18
 209 -136 209 -136 171 -150.5 c 128,-1,19
 133 -165 133 -165 87 -165 c 0,20,0
 54 -165 54 -165 31 -160.5 c 128,-1,1
505 628 m 1,21,-1
 225 560 l 1,22,-1
 211 630 l 1,23,-1
 483 734 l 1,24,-1
 505 628 l 1,21,-1
EndSplineSet
EndChar

StartChar: thorn
Encoding: 254 254 191
Width: 612
GlyphClass: 2
Flags: W
LayerCount: 2
Fore
SplineSet
250 454 m 1,0,1
 289 489 289 489 326 508 c 128,-1,2
 363 527 363 527 414 527 c 0,3,4
 502 527 502 527 546.5 459.5 c 128,-1,5
 591 392 591 392 573 261 c 0,6,7
 554 124 554 124 488.5 57 c 128,-1,8
 423 -10 423 -10 332 -10 c 0,9,10
 294 -10 294 -10 264.5 1.5 c 128,-1,11
 235 13 235 13 211 40 c 0,12,13
 202 49 202 49 198 49 c 0,14,15
 193 49 193 49 191 35 c 2,16,-1
 163 -161 l 1,17,-1
 -8 -161 l 1,18,-1
 117 723 l 1,19,-1
 288 723 l 1,20,-1
 250 454 l 1,0,1
281 95 m 128,-1,22
 328 95 328 95 358 134.5 c 128,-1,23
 388 174 388 174 401 266 c 0,24,25
 413 351 413 351 393.5 386.5 c 128,-1,26
 374 422 374 422 328 422 c 0,27,28
 293 422 293 422 266.5 401.5 c 128,-1,29
 240 381 240 381 236 354 c 2,30,-1
 206 140 l 1,31,21
 234 95 234 95 281 95 c 128,-1,22
EndSplineSet
EndChar

StartChar: ydieresis
Encoding: 255 255 192
Width: 586
GlyphClass: 2
Flags: W
AnchorPoint: "Anchor-5" -46 0 basechar 0
AnchorPoint: "Anchor-4" -46 0 basechar 0
AnchorPoint: "Anchor-3" 268 517 basechar 0
AnchorPoint: "Anchor-2" -46 0 basechar 0
LayerCount: 2
Fore
SplineSet
31 -160.5 m 128,-1,1
 8 -156 8 -156 -3 -151.5 c 128,-1,2
 -14 -147 -14 -147 -15 -145 c 2,3,-1
 0 -37 l 1,4,-1
 50 -40 l 2,5,6
 93 -43 93 -43 117 -34.5 c 128,-1,7
 141 -26 141 -26 149.5 -16 c 128,-1,8
 158 -6 158 -6 165 7 c 2,9,-1
 173 26 l 1,10,-1
 41 517 l 1,11,-1
 209 517 l 1,12,-1
 276 208 l 1,13,-1
 434 517 l 1,14,-1
 600 517 l 1,15,-1
 323 14 l 2,16,17
 284 -57 284 -57 246.5 -96.5 c 128,-1,18
 209 -136 209 -136 171 -150.5 c 128,-1,19
 133 -165 133 -165 87 -165 c 0,20,0
 54 -165 54 -165 31 -160.5 c 128,-1,1
317 591 m 1,21,-1
 170 591 l 1,22,-1
 189 723 l 1,23,-1
 336 723 l 1,24,-1
 317 591 l 1,21,-1
532 591 m 1,25,-1
 384 591 l 1,26,-1
 403 723 l 1,27,-1
 551 723 l 1,28,-1
 532 591 l 1,25,-1
EndSplineSet
EndChar

StartChar: Amacron
Encoding: 256 256 193
Width: 718
GlyphClass: 2
Flags: W
AnchorPoint: "Anchor-5" -46 0 basechar 0
AnchorPoint: "Anchor-4" -46 0 basechar 0
AnchorPoint: "Anchor-3" 326 723 basechar 0
AnchorPoint: "Anchor-2" 659 9 basechar 0
LayerCount: 2
Fore
SplineSet
327 723 m 1,0,-1
 504 723 l 1,1,-1
 659 0 l 1,2,-1
 490 0 l 1,3,-1
 459 154 l 1,4,-1
 215 154 l 1,5,-1
 138 0 l 1,6,-1
 -32 0 l 1,7,-1
 327 723 l 1,0,-1
439 301 m 1,8,-1
 393 560 l 1,9,-1
 271 301 l 1,10,-1
 439 301 l 1,8,-1
629 820 m 1,11,-1
 253 820 l 1,12,-1
 268 926 l 1,13,-1
 644 926 l 1,14,-1
 629 820 l 1,11,-1
EndSplineSet
EndChar

StartChar: amacron
Encoding: 257 257 194
Width: 577
GlyphClass: 2
Flags: W
AnchorPoint: "Anchor-5" -46 0 basechar 0
AnchorPoint: "Anchor-4" -46 0 basechar 0
AnchorPoint: "Anchor-3" 243 517 basechar 0
AnchorPoint: "Anchor-2" 445 11 basechar 0
LayerCount: 2
Fore
SplineSet
506 0 m 1,0,-1
 335 0 l 1,1,-1
 506 0 l 1,0,-1
335 0 m 1,2,-1
 342 48 l 1,3,4
 303 16 303 16 266.5 3 c 128,-1,5
 230 -10 230 -10 193 -10 c 0,6,7
 101 -10 101 -10 51.5 57.5 c 128,-1,8
 2 125 2 125 21 261 c 0,9,10
 33 349 33 349 68.5 408.5 c 128,-1,11
 104 468 104 468 154.5 497.5 c 128,-1,12
 205 527 205 527 262 527 c 0,13,14
 303 527 303 527 339 511.5 c 128,-1,15
 375 496 375 496 400 471 c 1,16,-1
 407 517 l 1,17,-1
 579 517 l 1,18,-1
 506 0 l 1,19,-1
 335 0 l 1,2,-1
326.5 138 m 128,-1,21
 353 174 353 174 369 239 c 1,22,-1
 374 278 l 2,23,24
 383 344 383 344 365.5 379 c 128,-1,25
 348 414 348 414 308 414 c 0,26,27
 266 414 266 414 235 376 c 128,-1,28
 204 338 204 338 193 264 c 0,29,30
 182 189 182 189 203 145.5 c 128,-1,31
 224 102 224 102 266 102 c 0,32,20
 300 102 300 102 326.5 138 c 128,-1,21
517 614 m 1,33,-1
 141 614 l 1,34,-1
 156 720 l 1,35,-1
 532 720 l 1,36,-1
 517 614 l 1,33,-1
EndSplineSet
EndChar

StartChar: Abreve
Encoding: 258 258 195
Width: 718
GlyphClass: 2
Flags: W
AnchorPoint: "Anchor-5" -46 0 basechar 0
AnchorPoint: "Anchor-4" -46 0 basechar 0
AnchorPoint: "Anchor-3" 326 723 basechar 0
AnchorPoint: "Anchor-2" 659 9 basechar 0
LayerCount: 2
Fore
SplineSet
327 723 m 1,0,-1
 504 723 l 1,1,-1
 659 0 l 1,2,-1
 490 0 l 1,3,-1
 459 154 l 1,4,-1
 215 154 l 1,5,-1
 138 0 l 1,6,-1
 -32 0 l 1,7,-1
 327 723 l 1,0,-1
439 301 m 1,8,-1
 393 560 l 1,9,-1
 271 301 l 1,10,-1
 439 301 l 1,8,-1
559 828.5 m 128,-1,12
 504 793 504 793 438 793 c 0,13,14
 371 793 371 793 325.5 828 c 128,-1,15
 280 863 280 863 271 929 c 1,16,-1
 367 929 l 1,17,18
 376 904 376 904 398.5 888 c 128,-1,19
 421 872 421 872 450 872 c 0,20,21
 475 872 475 872 502 888.5 c 128,-1,22
 529 905 529 905 546 929 c 1,23,-1
 643 929 l 1,24,11
 614 864 614 864 559 828.5 c 128,-1,12
EndSplineSet
EndChar

StartChar: abreve
Encoding: 259 259 196
Width: 577
GlyphClass: 2
Flags: W
AnchorPoint: "Anchor-5" -46 0 basechar 0
AnchorPoint: "Anchor-4" -46 0 basechar 0
AnchorPoint: "Anchor-3" 243 517 basechar 0
AnchorPoint: "Anchor-2" 445 11 basechar 0
LayerCount: 2
Fore
SplineSet
506 0 m 1,0,-1
 335 0 l 1,1,-1
 506 0 l 1,0,-1
335 0 m 1,2,-1
 342 48 l 1,3,4
 303 16 303 16 266.5 3 c 128,-1,5
 230 -10 230 -10 193 -10 c 0,6,7
 101 -10 101 -10 51.5 57.5 c 128,-1,8
 2 125 2 125 21 261 c 0,9,10
 33 349 33 349 68.5 408.5 c 128,-1,11
 104 468 104 468 154.5 497.5 c 128,-1,12
 205 527 205 527 262 527 c 0,13,14
 303 527 303 527 339 511.5 c 128,-1,15
 375 496 375 496 400 471 c 1,16,-1
 407 517 l 1,17,-1
 579 517 l 1,18,-1
 506 0 l 1,19,-1
 335 0 l 1,2,-1
326.5 138 m 128,-1,21
 353 174 353 174 369 239 c 1,22,-1
 374 278 l 2,23,24
 383 344 383 344 365.5 379 c 128,-1,25
 348 414 348 414 308 414 c 0,26,27
 266 414 266 414 235 376 c 128,-1,28
 204 338 204 338 193 264 c 0,29,30
 182 189 182 189 203 145.5 c 128,-1,31
 224 102 224 102 266 102 c 0,32,20
 300 102 300 102 326.5 138 c 128,-1,21
447 622.5 m 128,-1,34
 392 587 392 587 326 587 c 0,35,36
 259 587 259 587 213.5 622 c 128,-1,37
 168 657 168 657 159 723 c 1,38,-1
 255 723 l 1,39,40
 264 698 264 698 286.5 682 c 128,-1,41
 309 666 309 666 338 666 c 0,42,43
 363 666 363 666 390 682.5 c 128,-1,44
 417 699 417 699 434 723 c 1,45,-1
 531 723 l 1,46,33
 502 658 502 658 447 622.5 c 128,-1,34
EndSplineSet
EndChar

StartChar: Aogonek
Encoding: 260 260 197
Width: 718
GlyphClass: 2
Flags: W
AnchorPoint: "Anchor-5" -46 0 basechar 0
AnchorPoint: "Anchor-4" -46 0 basechar 0
AnchorPoint: "Anchor-3" 326 723 basechar 0
AnchorPoint: "Anchor-2" 659 9 basechar 0
LayerCount: 2
Fore
SplineSet
327 723 m 1,0,-1
 504 723 l 1,1,-1
 659 0 l 1,2,-1
 490 0 l 1,3,-1
 459 154 l 1,4,-1
 215 154 l 1,5,-1
 138 0 l 1,6,-1
 -32 0 l 1,7,-1
 327 723 l 1,0,-1
439 301 m 1,8,-1
 393 560 l 1,9,-1
 271 301 l 1,10,-1
 439 301 l 1,8,-1
482 -35 m 128,-1,12
 505 -13 505 -13 562 6 c 1,13,-1
 679 4 l 1,14,15
 624 -14 624 -14 602.5 -29.5 c 128,-1,16
 581 -45 581 -45 578 -64 c 0,17,18
 574 -94 574 -94 605 -94 c 0,19,20
 630 -94 630 -94 664 -79 c 0,21,22
 670 -76 670 -76 673 -76 c 0,23,24
 680 -76 680 -76 679 -88 c 2,25,-1
 672 -134 l 2,26,27
 671 -144 671 -144 661 -150 c 0,28,29
 645 -158 645 -158 616 -164 c 128,-1,30
 587 -170 587 -170 556 -170 c 0,31,32
 503 -170 503 -170 476 -148.5 c 128,-1,33
 449 -127 449 -127 455 -86 c 0,34,11
 459 -57 459 -57 482 -35 c 128,-1,12
EndSplineSet
EndChar

StartChar: aogonek
Encoding: 261 261 198
Width: 577
GlyphClass: 2
Flags: W
AnchorPoint: "Anchor-5" -46 0 basechar 0
AnchorPoint: "Anchor-4" -46 0 basechar 0
AnchorPoint: "Anchor-3" 243 517 basechar 0
AnchorPoint: "Anchor-2" 445 11 basechar 0
LayerCount: 2
Fore
SplineSet
506 0 m 1,0,-1
 335 0 l 1,1,-1
 506 0 l 1,0,-1
335 0 m 1,2,-1
 342 48 l 1,3,4
 303 16 303 16 266.5 3 c 128,-1,5
 230 -10 230 -10 193 -10 c 0,6,7
 101 -10 101 -10 51.5 57.5 c 128,-1,8
 2 125 2 125 21 261 c 0,9,10
 33 349 33 349 68.5 408.5 c 128,-1,11
 104 468 104 468 154.5 497.5 c 128,-1,12
 205 527 205 527 262 527 c 0,13,14
 303 527 303 527 339 511.5 c 128,-1,15
 375 496 375 496 400 471 c 1,16,-1
 407 517 l 1,17,-1
 579 517 l 1,18,-1
 506 0 l 1,19,-1
 335 0 l 1,2,-1
326.5 138 m 128,-1,21
 353 174 353 174 369 239 c 1,22,-1
 374 278 l 2,23,24
 383 344 383 344 365.5 379 c 128,-1,25
 348 414 348 414 308 414 c 0,26,27
 266 414 266 414 235 376 c 128,-1,28
 204 338 204 338 193 264 c 0,29,30
 182 189 182 189 203 145.5 c 128,-1,31
 224 102 224 102 266 102 c 0,32,20
 300 102 300 102 326.5 138 c 128,-1,21
268 -33 m 128,-1,34
 291 -11 291 -11 348 8 c 1,35,-1
 465 6 l 1,36,37
 410 -12 410 -12 388.5 -27.5 c 128,-1,38
 367 -43 367 -43 364 -62 c 0,39,40
 360 -92 360 -92 391 -92 c 0,41,42
 416 -92 416 -92 450 -77 c 0,43,44
 456 -74 456 -74 459 -74 c 0,45,46
 466 -74 466 -74 465 -86 c 2,47,-1
 458 -132 l 2,48,49
 457 -142 457 -142 447 -148 c 0,50,51
 431 -156 431 -156 402 -162 c 128,-1,52
 373 -168 373 -168 342 -168 c 0,53,54
 289 -168 289 -168 262 -146.5 c 128,-1,55
 235 -125 235 -125 241 -84 c 0,56,33
 245 -55 245 -55 268 -33 c 128,-1,34
EndSplineSet
EndChar

StartChar: Cacute
Encoding: 262 262 199
Width: 721
GlyphClass: 2
Flags: W
AnchorPoint: "Anchor-5" -46 0 basechar 0
AnchorPoint: "Anchor-4" 331 0 basechar 0
AnchorPoint: "Anchor-3" 331 723 basechar 0
AnchorPoint: "Anchor-2" -46 0 basechar 0
LayerCount: 2
Fore
SplineSet
578 700.5 m 128,-1,1
 640 668 640 668 672.5 610.5 c 128,-1,2
 705 553 705 553 702 479 c 1,3,-1
 524 478 l 1,4,5
 523 533 523 533 493.5 564 c 128,-1,6
 464 595 464 595 408 595 c 0,7,8
 264 595 264 595 232 367 c 0,9,10
 215 245 215 245 244.5 186.5 c 128,-1,11
 274 128 274 128 343 128 c 0,12,13
 395 128 395 128 435 164.5 c 128,-1,14
 475 201 475 201 492 257 c 1,15,-1
 670 255 l 1,16,17
 638 134 638 134 558.5 62 c 128,-1,18
 479 -10 479 -10 330 -10 c 0,19,20
 229 -10 229 -10 159 38 c 128,-1,21
 89 86 89 86 59.5 172 c 128,-1,22
 30 258 30 258 46 369 c 128,-1,23
 62 480 62 480 114.5 562 c 128,-1,24
 167 644 167 644 248.5 688.5 c 128,-1,25
 330 733 330 733 433 733 c 0,26,0
 516 733 516 733 578 700.5 c 128,-1,1
597 834 m 1,27,-1
 317 766 l 1,28,-1
 303 836 l 1,29,-1
 575 940 l 1,30,-1
 597 834 l 1,27,-1
EndSplineSet
EndChar

StartChar: cacute
Encoding: 263 263 200
Width: 535
GlyphClass: 2
Flags: W
AnchorPoint: "Anchor-5" -46 0 basechar 0
AnchorPoint: "Anchor-4" 238 0 basechar 0
AnchorPoint: "Anchor-3" 239 517 basechar 0
AnchorPoint: "Anchor-2" -46 0 basechar 0
LayerCount: 2
Fore
SplineSet
423 499.5 m 128,-1,1
 467 472 467 472 487 425.5 c 128,-1,2
 507 379 507 379 504 323 c 1,3,-1
 366 320 l 1,4,5
 358 357 358 357 344 378.5 c 128,-1,6
 330 400 330 400 296 400 c 0,7,8
 250 400 250 400 218.5 363 c 128,-1,9
 187 326 187 326 177 258 c 0,10,11
 167 189 167 189 190 149 c 128,-1,12
 213 109 213 109 259 109 c 0,13,14
 293 109 293 109 314.5 132.5 c 128,-1,15
 336 156 336 156 351 189 c 1,16,-1
 484 186 l 1,17,18
 473 133 473 133 439.5 88 c 128,-1,19
 406 43 406 43 354 16.5 c 128,-1,20
 302 -10 302 -10 238 -10 c 0,21,22
 165 -10 165 -10 111.5 23.5 c 128,-1,23
 58 57 58 57 33.5 117.5 c 128,-1,24
 9 178 9 178 20 256 c 0,25,26
 31 335 31 335 72 396.5 c 128,-1,27
 113 458 113 458 176 492.5 c 128,-1,28
 239 527 239 527 313 527 c 0,29,0
 379 527 379 527 423 499.5 c 128,-1,1
476 628 m 1,30,-1
 196 560 l 1,31,-1
 182 630 l 1,32,-1
 454 734 l 1,33,-1
 476 628 l 1,30,-1
EndSplineSet
EndChar

StartChar: Ccircumflex
Encoding: 264 264 201
Width: 721
GlyphClass: 2
Flags: W
AnchorPoint: "Anchor-5" -46 0 basechar 0
AnchorPoint: "Anchor-4" 331 0 basechar 0
AnchorPoint: "Anchor-3" 331 723 basechar 0
AnchorPoint: "Anchor-2" -46 0 basechar 0
LayerCount: 2
Fore
SplineSet
578 700.5 m 128,-1,1
 640 668 640 668 672.5 610.5 c 128,-1,2
 705 553 705 553 702 479 c 1,3,-1
 524 478 l 1,4,5
 523 533 523 533 493.5 564 c 128,-1,6
 464 595 464 595 408 595 c 0,7,8
 264 595 264 595 232 367 c 0,9,10
 215 245 215 245 244.5 186.5 c 128,-1,11
 274 128 274 128 343 128 c 0,12,13
 395 128 395 128 435 164.5 c 128,-1,14
 475 201 475 201 492 257 c 1,15,-1
 670 255 l 1,16,17
 638 134 638 134 558.5 62 c 128,-1,18
 479 -10 479 -10 330 -10 c 0,19,20
 229 -10 229 -10 159 38 c 128,-1,21
 89 86 89 86 59.5 172 c 128,-1,22
 30 258 30 258 46 369 c 128,-1,23
 62 480 62 480 114.5 562 c 128,-1,24
 167 644 167 644 248.5 688.5 c 128,-1,25
 330 733 330 733 433 733 c 0,26,0
 516 733 516 733 578 700.5 c 128,-1,1
453 872 m 1,27,-1
 370 794 l 1,28,-1
 250 794 l 1,29,-1
 405 937 l 1,30,-1
 521 937 l 1,31,-1
 633 794 l 1,32,-1
 506 794 l 1,33,-1
 453 872 l 1,27,-1
EndSplineSet
EndChar

StartChar: ccircumflex
Encoding: 265 265 202
Width: 535
GlyphClass: 2
Flags: W
AnchorPoint: "Anchor-5" -46 0 basechar 0
AnchorPoint: "Anchor-4" 238 0 basechar 0
AnchorPoint: "Anchor-3" 239 517 basechar 0
AnchorPoint: "Anchor-2" -46 0 basechar 0
LayerCount: 2
Fore
SplineSet
423 499.5 m 128,-1,1
 467 472 467 472 487 425.5 c 128,-1,2
 507 379 507 379 504 323 c 1,3,-1
 366 320 l 1,4,5
 358 357 358 357 344 378.5 c 128,-1,6
 330 400 330 400 296 400 c 0,7,8
 250 400 250 400 218.5 363 c 128,-1,9
 187 326 187 326 177 258 c 0,10,11
 167 189 167 189 190 149 c 128,-1,12
 213 109 213 109 259 109 c 0,13,14
 293 109 293 109 314.5 132.5 c 128,-1,15
 336 156 336 156 351 189 c 1,16,-1
 484 186 l 1,17,18
 473 133 473 133 439.5 88 c 128,-1,19
 406 43 406 43 354 16.5 c 128,-1,20
 302 -10 302 -10 238 -10 c 0,21,22
 165 -10 165 -10 111.5 23.5 c 128,-1,23
 58 57 58 57 33.5 117.5 c 128,-1,24
 9 178 9 178 20 256 c 0,25,26
 31 335 31 335 72 396.5 c 128,-1,27
 113 458 113 458 176 492.5 c 128,-1,28
 239 527 239 527 313 527 c 0,29,0
 379 527 379 527 423 499.5 c 128,-1,1
332 666 m 1,30,-1
 249 588 l 1,31,-1
 129 588 l 1,32,-1
 284 731 l 1,33,-1
 400 731 l 1,34,-1
 512 588 l 1,35,-1
 385 588 l 1,36,-1
 332 666 l 1,30,-1
EndSplineSet
EndChar

StartChar: Cdotaccent
Encoding: 266 266 203
Width: 721
GlyphClass: 2
Flags: W
AnchorPoint: "Anchor-5" -46 0 basechar 0
AnchorPoint: "Anchor-4" 331 0 basechar 0
AnchorPoint: "Anchor-3" 331 723 basechar 0
AnchorPoint: "Anchor-2" -46 0 basechar 0
LayerCount: 2
Fore
SplineSet
578 700.5 m 128,-1,1
 640 668 640 668 672.5 610.5 c 128,-1,2
 705 553 705 553 702 479 c 1,3,-1
 524 478 l 1,4,5
 523 533 523 533 493.5 564 c 128,-1,6
 464 595 464 595 408 595 c 0,7,8
 264 595 264 595 232 367 c 0,9,10
 215 245 215 245 244.5 186.5 c 128,-1,11
 274 128 274 128 343 128 c 0,12,13
 395 128 395 128 435 164.5 c 128,-1,14
 475 201 475 201 492 257 c 1,15,-1
 670 255 l 1,16,17
 638 134 638 134 558.5 62 c 128,-1,18
 479 -10 479 -10 330 -10 c 0,19,20
 229 -10 229 -10 159 38 c 128,-1,21
 89 86 89 86 59.5 172 c 128,-1,22
 30 258 30 258 46 369 c 128,-1,23
 62 480 62 480 114.5 562 c 128,-1,24
 167 644 167 644 248.5 688.5 c 128,-1,25
 330 733 330 733 433 733 c 0,26,0
 516 733 516 733 578 700.5 c 128,-1,1
527 777 m 1,27,-1
 355 777 l 1,28,-1
 377 929 l 1,29,-1
 549 929 l 1,30,-1
 527 777 l 1,27,-1
EndSplineSet
EndChar

StartChar: cdotaccent
Encoding: 267 267 204
Width: 535
GlyphClass: 2
Flags: W
AnchorPoint: "Anchor-5" -46 0 basechar 0
AnchorPoint: "Anchor-4" 238 0 basechar 0
AnchorPoint: "Anchor-3" 239 517 basechar 0
AnchorPoint: "Anchor-2" -46 0 basechar 0
LayerCount: 2
Fore
SplineSet
423 499.5 m 128,-1,1
 467 472 467 472 487 425.5 c 128,-1,2
 507 379 507 379 504 323 c 1,3,-1
 366 320 l 1,4,5
 358 357 358 357 344 378.5 c 128,-1,6
 330 400 330 400 296 400 c 0,7,8
 250 400 250 400 218.5 363 c 128,-1,9
 187 326 187 326 177 258 c 0,10,11
 167 189 167 189 190 149 c 128,-1,12
 213 109 213 109 259 109 c 0,13,14
 293 109 293 109 314.5 132.5 c 128,-1,15
 336 156 336 156 351 189 c 1,16,-1
 484 186 l 1,17,18
 473 133 473 133 439.5 88 c 128,-1,19
 406 43 406 43 354 16.5 c 128,-1,20
 302 -10 302 -10 238 -10 c 0,21,22
 165 -10 165 -10 111.5 23.5 c 128,-1,23
 58 57 58 57 33.5 117.5 c 128,-1,24
 9 178 9 178 20 256 c 0,25,26
 31 335 31 335 72 396.5 c 128,-1,27
 113 458 113 458 176 492.5 c 128,-1,28
 239 527 239 527 313 527 c 0,29,0
 379 527 379 527 423 499.5 c 128,-1,1
406 571 m 1,30,-1
 234 571 l 1,31,-1
 256 723 l 1,32,-1
 428 723 l 1,33,-1
 406 571 l 1,30,-1
EndSplineSet
EndChar

StartChar: Ccaron
Encoding: 268 268 205
Width: 721
GlyphClass: 2
Flags: W
AnchorPoint: "Anchor-5" -46 0 basechar 0
AnchorPoint: "Anchor-4" 331 0 basechar 0
AnchorPoint: "Anchor-3" 331 723 basechar 0
AnchorPoint: "Anchor-2" -46 0 basechar 0
LayerCount: 2
Fore
SplineSet
578 700.5 m 128,-1,1
 640 668 640 668 672.5 610.5 c 128,-1,2
 705 553 705 553 702 479 c 1,3,-1
 524 478 l 1,4,5
 523 533 523 533 493.5 564 c 128,-1,6
 464 595 464 595 408 595 c 0,7,8
 264 595 264 595 232 367 c 0,9,10
 215 245 215 245 244.5 186.5 c 128,-1,11
 274 128 274 128 343 128 c 0,12,13
 395 128 395 128 435 164.5 c 128,-1,14
 475 201 475 201 492 257 c 1,15,-1
 670 255 l 1,16,17
 638 134 638 134 558.5 62 c 128,-1,18
 479 -10 479 -10 330 -10 c 0,19,20
 229 -10 229 -10 159 38 c 128,-1,21
 89 86 89 86 59.5 172 c 128,-1,22
 30 258 30 258 46 369 c 128,-1,23
 62 480 62 480 114.5 562 c 128,-1,24
 167 644 167 644 248.5 688.5 c 128,-1,25
 330 733 330 733 433 733 c 0,26,0
 516 733 516 733 578 700.5 c 128,-1,1
652 930 m 1,27,-1
 499 785 l 1,28,-1
 382 785 l 1,29,-1
 269 930 l 1,30,-1
 389 930 l 1,31,-1
 450 851 l 1,32,-1
 525 930 l 1,33,-1
 652 930 l 1,27,-1
EndSplineSet
EndChar

StartChar: ccaron
Encoding: 269 269 206
Width: 535
GlyphClass: 2
Flags: W
AnchorPoint: "Anchor-5" -46 0 basechar 0
AnchorPoint: "Anchor-4" 238 0 basechar 0
AnchorPoint: "Anchor-3" 239 517 basechar 0
AnchorPoint: "Anchor-2" -46 0 basechar 0
LayerCount: 2
Fore
SplineSet
423 499.5 m 128,-1,1
 467 472 467 472 487 425.5 c 128,-1,2
 507 379 507 379 504 323 c 1,3,-1
 366 320 l 1,4,5
 358 357 358 357 344 378.5 c 128,-1,6
 330 400 330 400 296 400 c 0,7,8
 250 400 250 400 218.5 363 c 128,-1,9
 187 326 187 326 177 258 c 0,10,11
 167 189 167 189 190 149 c 128,-1,12
 213 109 213 109 259 109 c 0,13,14
 293 109 293 109 314.5 132.5 c 128,-1,15
 336 156 336 156 351 189 c 1,16,-1
 484 186 l 1,17,18
 473 133 473 133 439.5 88 c 128,-1,19
 406 43 406 43 354 16.5 c 128,-1,20
 302 -10 302 -10 238 -10 c 0,21,22
 165 -10 165 -10 111.5 23.5 c 128,-1,23
 58 57 58 57 33.5 117.5 c 128,-1,24
 9 178 9 178 20 256 c 0,25,26
 31 335 31 335 72 396.5 c 128,-1,27
 113 458 113 458 176 492.5 c 128,-1,28
 239 527 239 527 313 527 c 0,29,0
 379 527 379 527 423 499.5 c 128,-1,1
531 724 m 1,30,-1
 378 579 l 1,31,-1
 261 579 l 1,32,-1
 148 724 l 1,33,-1
 268 724 l 1,34,-1
 329 645 l 1,35,-1
 404 724 l 1,36,-1
 531 724 l 1,30,-1
EndSplineSet
EndChar

StartChar: Dcaron
Encoding: 270 270 207
Width: 724
GlyphClass: 2
Flags: W
AnchorPoint: "Anchor-5" -46 0 basechar 0
AnchorPoint: "Anchor-4" -46 0 basechar 0
AnchorPoint: "Anchor-3" 316 723 basechar 0
AnchorPoint: "Anchor-2" -46 0 basechar 0
LayerCount: 2
Fore
SplineSet
230 723 m 2,0,1
 335 723 335 723 365 722 c 0,2,3
 554 716 554 716 633 622 c 128,-1,4
 712 528 712 528 689 364 c 0,5,6
 665 195 665 195 556.5 97.5 c 128,-1,7
 448 0 448 0 261 0 c 2,8,-1
 26 0 l 1,9,-1
 128 723 l 1,10,-1
 230 723 l 2,0,1
216 136 m 1,11,-1
 284 136 l 2,12,13
 367 136 367 136 431 192 c 128,-1,14
 495 248 495 248 511 366 c 0,15,16
 527 477 527 477 483.5 532.5 c 128,-1,17
 440 588 440 588 349 588 c 2,18,-1
 280 588 l 1,19,-1
 216 136 l 1,11,-1
637 930 m 1,20,-1
 484 785 l 1,21,-1
 367 785 l 1,22,-1
 254 930 l 1,23,-1
 374 930 l 1,24,-1
 435 851 l 1,25,-1
 510 930 l 1,26,-1
 637 930 l 1,20,-1
EndSplineSet
EndChar

StartChar: dcaron
Encoding: 271 271 208
Width: 611
GlyphClass: 2
Flags: W
AnchorPoint: "Anchor-5" 534 549 basechar 0
AnchorPoint: "Anchor-4" 249 0 basechar 0
AnchorPoint: "Anchor-3" -46 0 basechar 0
AnchorPoint: "Anchor-2" -46 0 basechar 0
LayerCount: 2
Fore
SplineSet
51 62 m 128,-1,1
 3 134 3 134 21 260 c 0,2,3
 38 384 38 384 101.5 455.5 c 128,-1,4
 165 527 165 527 262 527 c 0,5,6
 306 527 306 527 342 511 c 128,-1,7
 378 495 378 495 398 459 c 1,8,-1
 437 743 l 1,9,-1
 608 743 l 1,10,-1
 504 0 l 1,11,-1
 382 0 l 1,12,-1
 379 69 l 1,13,14
 354 37 354 37 308 13.5 c 128,-1,15
 262 -10 262 -10 203 -10 c 0,16,0
 99 -10 99 -10 51 62 c 128,-1,1
328 142 m 128,-1,18
 357 173 357 173 365 228 c 2,19,-1
 376 304 l 1,20,21
 378 357 378 357 358 381 c 128,-1,22
 338 405 338 405 301 405 c 0,23,24
 206 405 206 405 186 262 c 0,25,26
 175 183 175 183 196 147 c 128,-1,27
 217 111 217 111 260 111 c 0,28,17
 299 111 299 111 328 142 c 128,-1,18
484.5 324 m 128,-1,30
 483 328 483 328 485 334 c 2,31,-1
 526 408 l 2,32,33
 530 416 530 416 530 419 c 0,34,35
 531 426 531 426 522 427 c 2,36,-1
 512 429 l 2,37,38
 503 430 503 430 500 433 c 128,-1,39
 497 436 497 436 498 443 c 2,40,-1
 511 535 l 2,41,42
 512 542 512 542 516 545.5 c 128,-1,43
 520 549 520 549 525 549 c 2,44,-1
 612 549 l 2,45,46
 624 549 624 549 622 538 c 2,47,-1
 607 429 l 2,48,49
 606 423 606 423 602 420 c 2,50,-1
 554 334 l 2,51,52
 550 326 550 326 543.5 323 c 128,-1,53
 537 320 537 320 524 320 c 2,54,-1
 492 320 l 2,55,29
 486 320 486 320 484.5 324 c 128,-1,30
EndSplineSet
EndChar

StartChar: Dcroat
Encoding: 272 272 209
Width: 752
GlyphClass: 2
Flags: W
AnchorPoint: "Anchor-5" -46 0 basechar 0
AnchorPoint: "Anchor-4" -46 0 basechar 0
AnchorPoint: "Anchor-3" 344 723 basechar 0
AnchorPoint: "Anchor-2" -46 0 basechar 0
LayerCount: 2
Fore
SplineSet
661.5 622 m 128,-1,1
 740 528 740 528 717 364 c 0,2,3
 693 195 693 195 584.5 97.5 c 128,-1,4
 476 0 476 0 289 0 c 2,5,-1
 54 0 l 1,6,-1
 95 295 l 1,7,-1
 49 295 l 2,8,9
 36 295 36 295 32 300 c 128,-1,10
 28 305 28 305 30 317 c 2,11,-1
 41 397 l 2,12,13
 44 417 44 417 61 417 c 2,14,-1
 113 417 l 1,15,-1
 156 723 l 1,16,-1
 258 723 l 2,17,18
 363 723 363 723 393 722 c 0,19,0
 583 716 583 716 661.5 622 c 128,-1,1
459 192 m 128,-1,21
 523 248 523 248 539 366 c 0,22,23
 555 477 555 477 511.5 532.5 c 128,-1,24
 468 588 468 588 377 588 c 2,25,-1
 308 588 l 1,26,-1
 284 417 l 1,27,-1
 410 417 l 2,28,29
 417 417 417 417 420.5 412.5 c 128,-1,30
 424 408 424 408 423 400 c 2,31,-1
 412 320 l 2,32,33
 410 306 410 306 402 300.5 c 128,-1,34
 394 295 394 295 379 295 c 2,35,-1
 266 295 l 1,36,-1
 244 136 l 1,37,-1
 312 136 l 2,38,20
 395 136 395 136 459 192 c 128,-1,21
EndSplineSet
EndChar

StartChar: dcroat
Encoding: 273 273 210
Width: 615
GlyphClass: 2
Flags: W
AnchorPoint: "Anchor-5" 534 549 basechar 0
AnchorPoint: "Anchor-4" 249 0 basechar 0
AnchorPoint: "Anchor-3" -46 0 basechar 0
AnchorPoint: "Anchor-2" -46 0 basechar 0
LayerCount: 2
Fore
SplineSet
622 573 m 1,0,-1
 585 573 l 1,1,-1
 504 0 l 1,2,-1
 382 0 l 1,3,-1
 379 69 l 1,4,5
 354 37 354 37 308 13.5 c 128,-1,6
 262 -10 262 -10 203 -10 c 0,7,8
 99 -10 99 -10 51 62 c 128,-1,9
 3 134 3 134 21 260 c 0,10,11
 38 384 38 384 101.5 455.5 c 128,-1,12
 165 527 165 527 262 527 c 0,13,14
 306 527 306 527 342 511 c 128,-1,15
 378 495 378 495 398 459 c 1,16,-1
 414 573 l 1,17,-1
 272 573 l 1,18,-1
 285 666 l 1,19,-1
 427 666 l 1,20,-1
 437 743 l 1,21,-1
 608 743 l 1,22,-1
 598 666 l 1,23,-1
 635 666 l 1,24,-1
 622 573 l 1,0,-1
376 304 m 1,25,26
 378 357 378 357 358 381 c 128,-1,27
 338 405 338 405 301 405 c 0,28,29
 206 405 206 405 186 262 c 0,30,31
 175 183 175 183 196 147 c 128,-1,32
 217 111 217 111 260 111 c 0,33,34
 299 111 299 111 328 142 c 128,-1,35
 357 173 357 173 365 228 c 2,36,-1
 376 304 l 1,25,26
EndSplineSet
EndChar

StartChar: Emacron
Encoding: 274 274 211
Width: 643
GlyphClass: 2
Flags: W
AnchorPoint: "Anchor-5" -46 0 basechar 0
AnchorPoint: "Anchor-4" 289 0 basechar 0
AnchorPoint: "Anchor-3" 286 723 basechar 0
AnchorPoint: "Anchor-2" 542 10 basechar 0
LayerCount: 2
Fore
SplineSet
128 723 m 1,0,-1
 643 723 l 1,1,-1
 622 581 l 1,2,-1
 279 581 l 1,3,-1
 258 433 l 1,4,-1
 551 433 l 1,5,-1
 531 294 l 1,6,-1
 237 294 l 1,7,-1
 216 143 l 1,8,-1
 564 143 l 1,9,-1
 544 0 l 1,10,-1
 26 0 l 1,11,-1
 128 723 l 1,0,-1
589 820 m 1,12,-1
 213 820 l 1,13,-1
 228 926 l 1,14,-1
 604 926 l 1,15,-1
 589 820 l 1,12,-1
EndSplineSet
EndChar

StartChar: emacron
Encoding: 275 275 212
Width: 564
GlyphClass: 2
Flags: W
AnchorPoint: "Anchor-5" -46 0 basechar 0
AnchorPoint: "Anchor-4" 242 0 basechar 0
AnchorPoint: "Anchor-3" 241 517 basechar 0
AnchorPoint: "Anchor-2" 364 24 basechar 0
LayerCount: 2
Fore
SplineSet
196.5 139.5 m 128,-1,1
 218 111 218 111 260 111 c 0,2,3
 294 111 294 111 318.5 124 c 128,-1,4
 343 137 343 137 360 168 c 1,5,-1
 510 165 l 1,6,7
 495 112 495 112 454 72.5 c 128,-1,8
 413 33 413 33 358.5 11.5 c 128,-1,9
 304 -10 304 -10 248 -10 c 0,10,11
 170 -10 170 -10 114.5 22.5 c 128,-1,12
 59 55 59 55 33.5 114.5 c 128,-1,13
 8 174 8 174 19 252 c 0,14,15
 30 329 30 329 69.5 391.5 c 128,-1,16
 109 454 109 454 172 490.5 c 128,-1,17
 235 527 235 527 314 527 c 0,18,19
 433 527 433 527 487 454 c 128,-1,20
 541 381 541 381 524 262 c 2,21,-1
 518 219 l 1,22,-1
 182 219 l 1,23,0
 175 168 175 168 196.5 139.5 c 128,-1,1
375 317 m 1,24,25
 381 357 381 357 361 383.5 c 128,-1,26
 341 410 341 410 298 410 c 0,27,28
 259 410 259 410 230 382 c 128,-1,29
 201 354 201 354 196 317 c 1,30,-1
 375 317 l 1,24,25
515 614 m 1,31,-1
 139 614 l 1,32,-1
 154 720 l 1,33,-1
 530 720 l 1,34,-1
 515 614 l 1,31,-1
EndSplineSet
EndChar

StartChar: Ebreve
Encoding: 276 276 213
Width: 643
GlyphClass: 2
Flags: W
AnchorPoint: "Anchor-5" -46 0 basechar 0
AnchorPoint: "Anchor-4" 289 0 basechar 0
AnchorPoint: "Anchor-3" 286 723 basechar 0
AnchorPoint: "Anchor-2" 542 10 basechar 0
LayerCount: 2
Fore
SplineSet
128 723 m 1,0,-1
 643 723 l 1,1,-1
 622 581 l 1,2,-1
 279 581 l 1,3,-1
 258 433 l 1,4,-1
 551 433 l 1,5,-1
 531 294 l 1,6,-1
 237 294 l 1,7,-1
 216 143 l 1,8,-1
 564 143 l 1,9,-1
 544 0 l 1,10,-1
 26 0 l 1,11,-1
 128 723 l 1,0,-1
519 828.5 m 128,-1,13
 464 793 464 793 398 793 c 0,14,15
 331 793 331 793 285.5 828 c 128,-1,16
 240 863 240 863 231 929 c 1,17,-1
 327 929 l 1,18,19
 336 904 336 904 358.5 888 c 128,-1,20
 381 872 381 872 410 872 c 0,21,22
 435 872 435 872 462 888.5 c 128,-1,23
 489 905 489 905 506 929 c 1,24,-1
 603 929 l 1,25,12
 574 864 574 864 519 828.5 c 128,-1,13
EndSplineSet
EndChar

StartChar: ebreve
Encoding: 277 277 214
Width: 564
GlyphClass: 2
Flags: W
AnchorPoint: "Anchor-5" -46 0 basechar 0
AnchorPoint: "Anchor-4" 242 0 basechar 0
AnchorPoint: "Anchor-3" 241 517 basechar 0
AnchorPoint: "Anchor-2" 364 24 basechar 0
LayerCount: 2
Fore
SplineSet
196.5 139.5 m 128,-1,1
 218 111 218 111 260 111 c 0,2,3
 294 111 294 111 318.5 124 c 128,-1,4
 343 137 343 137 360 168 c 1,5,-1
 510 165 l 1,6,7
 495 112 495 112 454 72.5 c 128,-1,8
 413 33 413 33 358.5 11.5 c 128,-1,9
 304 -10 304 -10 248 -10 c 0,10,11
 170 -10 170 -10 114.5 22.5 c 128,-1,12
 59 55 59 55 33.5 114.5 c 128,-1,13
 8 174 8 174 19 252 c 0,14,15
 30 329 30 329 69.5 391.5 c 128,-1,16
 109 454 109 454 172 490.5 c 128,-1,17
 235 527 235 527 314 527 c 0,18,19
 433 527 433 527 487 454 c 128,-1,20
 541 381 541 381 524 262 c 2,21,-1
 518 219 l 1,22,-1
 182 219 l 1,23,0
 175 168 175 168 196.5 139.5 c 128,-1,1
375 317 m 1,24,25
 381 357 381 357 361 383.5 c 128,-1,26
 341 410 341 410 298 410 c 0,27,28
 259 410 259 410 230 382 c 128,-1,29
 201 354 201 354 196 317 c 1,30,-1
 375 317 l 1,24,25
445 622.5 m 128,-1,32
 390 587 390 587 324 587 c 0,33,34
 257 587 257 587 211.5 622 c 128,-1,35
 166 657 166 657 157 723 c 1,36,-1
 253 723 l 1,37,38
 262 698 262 698 284.5 682 c 128,-1,39
 307 666 307 666 336 666 c 0,40,41
 361 666 361 666 388 682.5 c 128,-1,42
 415 699 415 699 432 723 c 1,43,-1
 529 723 l 1,44,31
 500 658 500 658 445 622.5 c 128,-1,32
EndSplineSet
EndChar

StartChar: Edotaccent
Encoding: 278 278 215
Width: 643
GlyphClass: 2
Flags: W
AnchorPoint: "Anchor-5" -46 0 basechar 0
AnchorPoint: "Anchor-4" 289 0 basechar 0
AnchorPoint: "Anchor-3" 286 723 basechar 0
AnchorPoint: "Anchor-2" 542 10 basechar 0
LayerCount: 2
Fore
SplineSet
128 723 m 1,0,-1
 643 723 l 1,1,-1
 622 581 l 1,2,-1
 279 581 l 1,3,-1
 258 433 l 1,4,-1
 551 433 l 1,5,-1
 531 294 l 1,6,-1
 237 294 l 1,7,-1
 216 143 l 1,8,-1
 564 143 l 1,9,-1
 544 0 l 1,10,-1
 26 0 l 1,11,-1
 128 723 l 1,0,-1
482 777 m 1,12,-1
 310 777 l 1,13,-1
 332 929 l 1,14,-1
 504 929 l 1,15,-1
 482 777 l 1,12,-1
EndSplineSet
EndChar

StartChar: edotaccent
Encoding: 279 279 216
Width: 564
GlyphClass: 2
Flags: W
AnchorPoint: "Anchor-5" -46 0 basechar 0
AnchorPoint: "Anchor-4" 242 0 basechar 0
AnchorPoint: "Anchor-3" 241 517 basechar 0
AnchorPoint: "Anchor-2" 364 24 basechar 0
LayerCount: 2
Fore
SplineSet
196.5 139.5 m 128,-1,1
 218 111 218 111 260 111 c 0,2,3
 294 111 294 111 318.5 124 c 128,-1,4
 343 137 343 137 360 168 c 1,5,-1
 510 165 l 1,6,7
 495 112 495 112 454 72.5 c 128,-1,8
 413 33 413 33 358.5 11.5 c 128,-1,9
 304 -10 304 -10 248 -10 c 0,10,11
 170 -10 170 -10 114.5 22.5 c 128,-1,12
 59 55 59 55 33.5 114.5 c 128,-1,13
 8 174 8 174 19 252 c 0,14,15
 30 329 30 329 69.5 391.5 c 128,-1,16
 109 454 109 454 172 490.5 c 128,-1,17
 235 527 235 527 314 527 c 0,18,19
 433 527 433 527 487 454 c 128,-1,20
 541 381 541 381 524 262 c 2,21,-1
 518 219 l 1,22,-1
 182 219 l 1,23,0
 175 168 175 168 196.5 139.5 c 128,-1,1
375 317 m 1,24,25
 381 357 381 357 361 383.5 c 128,-1,26
 341 410 341 410 298 410 c 0,27,28
 259 410 259 410 230 382 c 128,-1,29
 201 354 201 354 196 317 c 1,30,-1
 375 317 l 1,24,25
408 571 m 1,31,-1
 236 571 l 1,32,-1
 258 723 l 1,33,-1
 430 723 l 1,34,-1
 408 571 l 1,31,-1
EndSplineSet
EndChar

StartChar: Eogonek
Encoding: 280 280 217
Width: 643
GlyphClass: 2
Flags: W
AnchorPoint: "Anchor-5" -46 0 basechar 0
AnchorPoint: "Anchor-4" 289 0 basechar 0
AnchorPoint: "Anchor-3" 286 723 basechar 0
AnchorPoint: "Anchor-2" 542 10 basechar 0
LayerCount: 2
Fore
SplineSet
128 723 m 1,0,-1
 643 723 l 1,1,-1
 622 581 l 1,2,-1
 279 581 l 1,3,-1
 258 433 l 1,4,-1
 551 433 l 1,5,-1
 531 294 l 1,6,-1
 237 294 l 1,7,-1
 216 143 l 1,8,-1
 564 143 l 1,9,-1
 544 0 l 1,10,-1
 26 0 l 1,11,-1
 128 723 l 1,0,-1
365 -34 m 128,-1,13
 388 -12 388 -12 445 7 c 1,14,-1
 562 5 l 1,15,16
 507 -13 507 -13 485.5 -28.5 c 128,-1,17
 464 -44 464 -44 461 -63 c 0,18,19
 457 -93 457 -93 488 -93 c 0,20,21
 513 -93 513 -93 547 -78 c 0,22,23
 553 -75 553 -75 556 -75 c 0,24,25
 563 -75 563 -75 562 -87 c 2,26,-1
 555 -133 l 2,27,28
 554 -143 554 -143 544 -149 c 0,29,30
 528 -157 528 -157 499 -163 c 128,-1,31
 470 -169 470 -169 439 -169 c 0,32,33
 386 -169 386 -169 359 -147.5 c 128,-1,34
 332 -126 332 -126 338 -85 c 0,35,12
 342 -56 342 -56 365 -34 c 128,-1,13
EndSplineSet
EndChar

StartChar: eogonek
Encoding: 281 281 218
Width: 564
GlyphClass: 2
Flags: W
AnchorPoint: "Anchor-5" -46 0 basechar 0
AnchorPoint: "Anchor-4" 242 0 basechar 0
AnchorPoint: "Anchor-3" 241 517 basechar 0
AnchorPoint: "Anchor-2" 364 24 basechar 0
LayerCount: 2
Fore
SplineSet
196.5 139.5 m 128,-1,1
 218 111 218 111 260 111 c 0,2,3
 294 111 294 111 318.5 124 c 128,-1,4
 343 137 343 137 360 168 c 1,5,-1
 510 165 l 1,6,7
 495 112 495 112 454 72.5 c 128,-1,8
 413 33 413 33 358.5 11.5 c 128,-1,9
 304 -10 304 -10 248 -10 c 0,10,11
 170 -10 170 -10 114.5 22.5 c 128,-1,12
 59 55 59 55 33.5 114.5 c 128,-1,13
 8 174 8 174 19 252 c 0,14,15
 30 329 30 329 69.5 391.5 c 128,-1,16
 109 454 109 454 172 490.5 c 128,-1,17
 235 527 235 527 314 527 c 0,18,19
 433 527 433 527 487 454 c 128,-1,20
 541 381 541 381 524 262 c 2,21,-1
 518 219 l 1,22,-1
 182 219 l 1,23,0
 175 168 175 168 196.5 139.5 c 128,-1,1
375 317 m 1,24,25
 381 357 381 357 361 383.5 c 128,-1,26
 341 410 341 410 298 410 c 0,27,28
 259 410 259 410 230 382 c 128,-1,29
 201 354 201 354 196 317 c 1,30,-1
 375 317 l 1,24,25
189 -20 m 128,-1,32
 212 2 212 2 269 21 c 1,33,-1
 386 19 l 1,34,35
 331 1 331 1 309.5 -14.5 c 128,-1,36
 288 -30 288 -30 285 -49 c 0,37,38
 281 -79 281 -79 312 -79 c 0,39,40
 337 -79 337 -79 371 -64 c 0,41,42
 377 -61 377 -61 380 -61 c 0,43,44
 387 -61 387 -61 386 -73 c 2,45,-1
 379 -119 l 2,46,47
 378 -129 378 -129 368 -135 c 0,48,49
 352 -143 352 -143 323 -149 c 128,-1,50
 294 -155 294 -155 263 -155 c 0,51,52
 210 -155 210 -155 183 -133.5 c 128,-1,53
 156 -112 156 -112 162 -71 c 0,54,31
 166 -42 166 -42 189 -20 c 128,-1,32
EndSplineSet
EndChar

StartChar: Ecaron
Encoding: 282 282 219
Width: 643
GlyphClass: 2
Flags: W
AnchorPoint: "Anchor-5" -46 0 basechar 0
AnchorPoint: "Anchor-4" 289 0 basechar 0
AnchorPoint: "Anchor-3" 286 723 basechar 0
AnchorPoint: "Anchor-2" 542 10 basechar 0
LayerCount: 2
Fore
SplineSet
128 723 m 1,0,-1
 643 723 l 1,1,-1
 622 581 l 1,2,-1
 279 581 l 1,3,-1
 258 433 l 1,4,-1
 551 433 l 1,5,-1
 531 294 l 1,6,-1
 237 294 l 1,7,-1
 216 143 l 1,8,-1
 564 143 l 1,9,-1
 544 0 l 1,10,-1
 26 0 l 1,11,-1
 128 723 l 1,0,-1
607 930 m 1,12,-1
 454 785 l 1,13,-1
 337 785 l 1,14,-1
 224 930 l 1,15,-1
 344 930 l 1,16,-1
 405 851 l 1,17,-1
 480 930 l 1,18,-1
 607 930 l 1,12,-1
EndSplineSet
EndChar

StartChar: ecaron
Encoding: 283 283 220
Width: 564
GlyphClass: 2
Flags: W
AnchorPoint: "Anchor-5" -46 0 basechar 0
AnchorPoint: "Anchor-4" 242 0 basechar 0
AnchorPoint: "Anchor-3" 241 517 basechar 0
AnchorPoint: "Anchor-2" 364 24 basechar 0
LayerCount: 2
Fore
SplineSet
196.5 139.5 m 128,-1,1
 218 111 218 111 260 111 c 0,2,3
 294 111 294 111 318.5 124 c 128,-1,4
 343 137 343 137 360 168 c 1,5,-1
 510 165 l 1,6,7
 495 112 495 112 454 72.5 c 128,-1,8
 413 33 413 33 358.5 11.5 c 128,-1,9
 304 -10 304 -10 248 -10 c 0,10,11
 170 -10 170 -10 114.5 22.5 c 128,-1,12
 59 55 59 55 33.5 114.5 c 128,-1,13
 8 174 8 174 19 252 c 0,14,15
 30 329 30 329 69.5 391.5 c 128,-1,16
 109 454 109 454 172 490.5 c 128,-1,17
 235 527 235 527 314 527 c 0,18,19
 433 527 433 527 487 454 c 128,-1,20
 541 381 541 381 524 262 c 2,21,-1
 518 219 l 1,22,-1
 182 219 l 1,23,0
 175 168 175 168 196.5 139.5 c 128,-1,1
375 317 m 1,24,25
 381 357 381 357 361 383.5 c 128,-1,26
 341 410 341 410 298 410 c 0,27,28
 259 410 259 410 230 382 c 128,-1,29
 201 354 201 354 196 317 c 1,30,-1
 375 317 l 1,24,25
533 724 m 1,31,-1
 380 579 l 1,32,-1
 263 579 l 1,33,-1
 150 724 l 1,34,-1
 270 724 l 1,35,-1
 331 645 l 1,36,-1
 406 724 l 1,37,-1
 533 724 l 1,31,-1
EndSplineSet
EndChar

StartChar: Gcircumflex
Encoding: 284 284 221
Width: 762
GlyphClass: 2
Flags: W
AnchorPoint: "Anchor-5" -46 0 basechar 0
AnchorPoint: "Anchor-4" 330 0 basechar 0
AnchorPoint: "Anchor-3" 329 723 basechar 0
AnchorPoint: "Anchor-2" -46 0 basechar 0
LayerCount: 2
Fore
SplineSet
157 36 m 128,-1,1
 88 82 88 82 58.5 166 c 128,-1,2
 29 250 29 250 44 359 c 0,3,4
 60 471 60 471 115.5 556 c 128,-1,5
 171 641 171 641 255.5 687 c 128,-1,6
 340 733 340 733 441 733 c 0,7,8
 529 733 529 733 593 697.5 c 128,-1,9
 657 662 657 662 687.5 603.5 c 128,-1,10
 718 545 718 545 710 479 c 1,11,-1
 532 478 l 1,12,13
 528 529 528 529 498.5 560 c 128,-1,14
 469 591 469 591 416 591 c 0,15,16
 347 591 347 591 297 536 c 128,-1,17
 247 481 247 481 230 365 c 0,18,19
 212 240 212 240 251.5 189.5 c 128,-1,20
 291 139 291 139 360 139 c 0,21,22
 410 139 410 139 446.5 167 c 128,-1,23
 483 195 483 195 496 230 c 2,24,-1
 508 266 l 1,25,-1
 370 266 l 1,26,-1
 387 382 l 1,27,-1
 703 380 l 1,28,-1
 650 0 l 1,29,-1
 536 0 l 1,30,-1
 548 87 l 1,31,32
 506 44 506 44 455.5 17 c 128,-1,33
 405 -10 405 -10 326 -10 c 0,34,0
 226 -10 226 -10 157 36 c 128,-1,1
451 872 m 1,35,-1
 368 794 l 1,36,-1
 248 794 l 1,37,-1
 403 937 l 1,38,-1
 519 937 l 1,39,-1
 631 794 l 1,40,-1
 504 794 l 1,41,-1
 451 872 l 1,35,-1
EndSplineSet
EndChar

StartChar: gcircumflex
Encoding: 285 285 222
Width: 641
GlyphClass: 2
Flags: W
AnchorPoint: "Anchor-5" -46 0 basechar 0
AnchorPoint: "Anchor-4" -46 0 basechar 0
AnchorPoint: "Anchor-3" 268 517 basechar 0
AnchorPoint: "Anchor-2" -46 0 basechar 0
LayerCount: 2
Fore
SplineSet
31.5 -137 m 128,-1,1
 -39 -103 -39 -103 -32 -48 c 0,2,3
 -23 13 -23 13 28.5 27.5 c 128,-1,4
 80 42 80 42 83 43 c 1,5,6
 81 44 81 44 64 53 c 128,-1,7
 47 62 47 62 35 81.5 c 128,-1,8
 23 101 23 101 27 125 c 0,9,10
 31 156 31 156 63 179.5 c 128,-1,11
 95 203 95 203 151 212 c 1,12,13
 102 236 102 236 80.5 277 c 128,-1,14
 59 318 59 318 65 363 c 0,15,16
 72 413 72 413 110.5 450 c 128,-1,17
 149 487 149 487 210 506 c 128,-1,18
 271 525 271 525 341 525 c 0,19,20
 391 525 391 525 423.5 515 c 128,-1,21
 456 505 456 505 487 486 c 1,22,23
 494 489 494 489 506 493.5 c 128,-1,24
 518 498 518 498 534 503 c 2,25,-1
 657 550 l 1,26,-1
 639 425 l 1,27,-1
 548 411 l 1,28,29
 550 400 550 400 550.5 386.5 c 128,-1,30
 551 373 551 373 550 364 c 0,31,32
 544 319 544 319 510.5 279 c 128,-1,33
 477 239 477 239 418.5 214.5 c 128,-1,34
 360 190 360 190 283 190 c 2,35,-1
 223 192 l 1,36,37
 191 189 191 189 189 177 c 0,38,39
 188 167 188 167 204.5 164 c 128,-1,40
 221 161 221 161 272 157 c 2,41,-1
 377 151 l 2,42,43
 474 145 474 145 518 103.5 c 128,-1,44
 562 62 562 62 553 0 c 0,45,46
 542 -77 542 -77 461.5 -124 c 128,-1,47
 381 -171 381 -171 243 -171 c 0,48,0
 102 -171 102 -171 31.5 -137 c 128,-1,1
360 302.5 m 128,-1,50
 383 323 383 323 388 358 c 128,-1,51
 393 393 393 393 375.5 416 c 128,-1,52
 358 439 358 439 323 439 c 128,-1,53
 288 439 288 439 263.5 416 c 128,-1,54
 239 393 239 393 234 358 c 0,55,56
 229 324 229 324 247.5 303 c 128,-1,57
 266 282 266 282 301 282 c 0,58,49
 337 282 337 282 360 302.5 c 128,-1,50
360.5 -68 m 128,-1,60
 383 -57 383 -57 386 -34 c 0,61,62
 389 -14 389 -14 372.5 -1.5 c 128,-1,63
 356 11 356 11 322 13 c 2,64,-1
 217 20 l 2,65,66
 182 22 182 22 161 7 c 128,-1,67
 140 -8 140 -8 137 -28 c 0,68,69
 133 -56 133 -56 168 -67.5 c 128,-1,70
 203 -79 203 -79 283 -79 c 0,71,59
 338 -79 338 -79 360.5 -68 c 128,-1,60
361 666 m 1,72,-1
 278 588 l 1,73,-1
 158 588 l 1,74,-1
 313 731 l 1,75,-1
 429 731 l 1,76,-1
 541 588 l 1,77,-1
 414 588 l 1,78,-1
 361 666 l 1,72,-1
EndSplineSet
EndChar

